<svg width="270" height="390" viewBox="0 0 290 410" fill="none" xmlns="http://www.w3.org/2000/svg">
<rect width="290" height="410" rx="10" fill="#191932"/>
<rect width="290" height="285" rx="10" fill="#191932"/>
<path d="M145.187 25.7129C153.999 25.7129 162.725 27.4486 170.867 30.821C179.008 34.1933 186.406 39.1363 192.637 45.3675C198.868 51.5988 203.811 58.9964 207.184 67.138C210.556 75.2796 212.292 84.0057 212.292 92.818C212.292 101.63 210.556 110.357 207.184 118.498C203.811 126.64 198.868 134.037 192.637 140.269C186.406 146.5 179.008 151.443 170.867 154.815C162.725 158.187 153.999 159.923 145.187 159.923C136.374 159.923 127.648 158.187 119.507 154.815C111.365 151.443 103.967 146.5 97.7361 140.269C91.5048 134.037 86.5619 126.64 83.1895 118.498C79.8172 110.356 78.0814 101.63 78.0814 92.818C78.0814 84.0057 79.8172 75.2796 83.1895 67.138C86.5619 58.9964 91.5048 51.5988 97.7361 45.3675C103.967 39.1363 111.365 34.1933 119.507 30.821C127.648 27.4486 136.374 25.7129 145.187 25.7129L145.187 25.7129Z" stroke="#05050F" stroke-width="4.89873"/>
<path d="M145.5 43.4494C151.941 43.4494 158.32 44.7181 164.271 47.1831C170.222 49.6482 175.629 53.2612 180.184 57.816C184.739 62.3707 188.352 67.778 190.817 73.7291C193.282 79.6802 194.551 86.0586 194.551 92.5C194.551 98.9414 193.282 105.32 190.817 111.271C188.352 117.222 184.739 122.629 180.184 127.184C175.629 131.739 170.222 135.352 164.271 137.817C158.32 140.282 151.941 141.551 145.5 141.551C139.059 141.551 132.68 140.282 126.729 137.817C120.778 135.352 115.371 131.739 110.816 127.184C106.261 122.629 102.648 117.222 100.183 111.271C97.7181 105.32 96.4494 98.9414 96.4494 92.5C96.4494 86.0586 97.7181 79.6802 100.183 73.7291C102.648 67.778 106.261 62.3707 110.816 57.816C115.371 53.2612 120.778 49.6481 126.729 47.1831C132.68 44.7181 139.059 43.4494 145.5 43.4494L145.5 43.4494Z" stroke="#05050F" stroke-width="4.89873"/>
<path d="M145 44C156.336 44 167.322 47.9307 176.085 55.1225C184.848 62.3142 190.847 72.322 193.058 83.4406C195.27 94.5592 193.558 106.101 188.214 116.098C182.87 126.096 174.225 133.932 163.751 138.27C153.278 142.608 141.624 143.181 130.776 139.89C119.928 136.599 110.556 129.649 104.258 120.223C97.9598 110.797 95.1248 99.479 96.2359 88.1972C97.3471 76.9153 102.336 66.3678 110.352 58.3518" stroke="url(#paint0_linear_617_22688)" stroke-width="10" stroke-linecap="round"/>
<path d="M145 25C156.365 25 167.549 27.8485 177.529 33.2852C187.509 38.7218 195.968 46.5732 202.131 56.1217C208.295 65.6702 211.967 76.6112 212.812 87.9448C213.657 99.2783 211.648 110.643 206.968 121C202.288 131.357 195.087 140.375 186.023 147.232C176.96 154.088 166.322 158.563 155.082 160.248C143.843 161.933 132.361 160.775 121.685 156.878C111.008 152.981 101.479 146.471 93.9681 137.942" stroke="url(#paint1_linear_617_22688)" stroke-width="10" stroke-linecap="round"/>
<path d="M81.6028 117.593C78.3733 109.267 76.8152 100.387 77.0175 91.4595C77.2198 82.5319 79.1785 73.7316 82.7818 65.561C86.3852 57.3904 91.5626 50.0095 98.0184 43.8398C104.474 37.6701 112.082 32.8323 120.407 29.6028" stroke="url(#paint2_linear_617_22688)" stroke-width="10" stroke-linecap="round"/>
<path d="M145 25C158.65 25 171.985 29.1083 183.269 36.7904" stroke="url(#paint3_linear_617_22688)" stroke-width="10" stroke-linecap="round"/>
<circle cx="145.5" cy="92.5" r="29" fill="#05050F" stroke="#05050F"/>
<path d="M146 102.833C140.017 102.833 135.167 97.9831 135.167 91.9998C135.167 86.0166 140.017 81.1665 146 81.1665C151.983 81.1665 156.833 86.0166 156.833 91.9998C156.833 97.9831 151.983 102.833 146 102.833ZM146 100.667C148.298 100.667 150.503 99.7534 152.128 98.1281C153.753 96.5028 154.667 94.2984 154.667 91.9998C154.667 89.7013 153.753 87.4969 152.128 85.8716C150.503 84.2463 148.298 83.3332 146 83.3332C143.701 83.3332 141.497 84.2463 139.872 85.8716C138.246 87.4969 137.333 89.7013 137.333 91.9998C137.333 94.2984 138.246 96.5028 139.872 98.1281C141.497 99.7534 143.701 100.667 146 100.667V100.667ZM142.75 87.6665H149.25L151.958 91.4582L146 97.4165L140.042 91.4582L142.75 87.6665ZM143.866 89.8332L142.869 91.2307L146 94.3615L149.131 91.2307L148.134 89.8332H143.866V89.8332Z" fill="#6A6A9F"/>
<path d="M87.3502 205H85.6901V192.197H81.1686V190.723H91.8717V192.197H87.3502V205ZM103.464 199.639C103.464 201.383 103.025 202.747 102.146 203.73C101.267 204.707 100.053 205.195 98.5031 205.195C97.5461 205.195 96.6965 204.971 95.9543 204.521C95.2121 204.072 94.6392 203.428 94.2355 202.588C93.8319 201.748 93.6301 200.765 93.6301 199.639C93.6301 197.894 94.0663 196.536 94.9387 195.566C95.8111 194.59 97.022 194.102 98.5715 194.102C100.069 194.102 101.257 194.6 102.136 195.596C103.021 196.592 103.464 197.939 103.464 199.639ZM95.3098 199.639C95.3098 201.006 95.5832 202.048 96.1301 202.764C96.677 203.48 97.481 203.838 98.5422 203.838C99.6034 203.838 100.407 203.483 100.954 202.773C101.508 202.057 101.784 201.012 101.784 199.639C101.784 198.278 101.508 197.246 100.954 196.543C100.407 195.833 99.5969 195.479 98.5227 195.479C97.4615 195.479 96.6607 195.827 96.1203 196.523C95.5799 197.22 95.3098 198.258 95.3098 199.639ZM110.213 203.857C110.499 203.857 110.776 203.838 111.043 203.799C111.31 203.753 111.521 203.708 111.677 203.662V204.902C111.502 204.987 111.241 205.055 110.896 205.107C110.558 205.166 110.252 205.195 109.978 205.195C107.908 205.195 106.873 204.105 106.873 201.924V195.557H105.34V194.775L106.873 194.102L107.556 191.816H108.494V194.297H111.599V195.557H108.494V201.855C108.494 202.5 108.647 202.995 108.953 203.34C109.259 203.685 109.679 203.857 110.213 203.857ZM120.848 205L120.526 203.477H120.448C119.914 204.147 119.38 204.603 118.846 204.844C118.319 205.078 117.658 205.195 116.864 205.195C115.802 205.195 114.969 204.922 114.364 204.375C113.765 203.828 113.465 203.05 113.465 202.041C113.465 199.88 115.194 198.747 118.651 198.643L120.467 198.584V197.92C120.467 197.08 120.285 196.462 119.92 196.064C119.562 195.661 118.986 195.459 118.192 195.459C117.3 195.459 116.291 195.732 115.164 196.279L114.666 195.039C115.194 194.753 115.77 194.528 116.395 194.365C117.026 194.202 117.658 194.121 118.289 194.121C119.565 194.121 120.509 194.404 121.121 194.971C121.74 195.537 122.049 196.445 122.049 197.695V205H120.848ZM117.186 203.857C118.195 203.857 118.986 203.581 119.559 203.027C120.138 202.474 120.428 201.699 120.428 200.703V199.736L118.807 199.805C117.518 199.85 116.587 200.052 116.014 200.41C115.448 200.762 115.164 201.312 115.164 202.061C115.164 202.646 115.34 203.092 115.692 203.398C116.05 203.704 116.548 203.857 117.186 203.857ZM127.46 205H125.839V189.805H127.46V205ZM141.494 205.195C139.912 205.195 138.662 204.714 137.744 203.75C136.833 202.786 136.377 201.449 136.377 199.736C136.377 198.011 136.8 196.641 137.646 195.625C138.499 194.609 139.642 194.102 141.074 194.102C142.415 194.102 143.477 194.544 144.258 195.43C145.039 196.309 145.43 197.471 145.43 198.916V199.941H138.057C138.089 201.198 138.405 202.152 139.004 202.803C139.609 203.454 140.459 203.779 141.553 203.779C142.705 203.779 143.844 203.538 144.971 203.057V204.502C144.398 204.749 143.854 204.925 143.34 205.029C142.832 205.14 142.217 205.195 141.494 205.195ZM141.055 195.459C140.195 195.459 139.508 195.739 138.994 196.299C138.486 196.859 138.187 197.633 138.096 198.623H143.691C143.691 197.601 143.464 196.82 143.008 196.279C142.552 195.732 141.901 195.459 141.055 195.459ZM155.225 205L154.903 203.477H154.825C154.291 204.147 153.757 204.603 153.223 204.844C152.696 205.078 152.035 205.195 151.241 205.195C150.18 205.195 149.346 204.922 148.741 204.375C148.142 203.828 147.842 203.05 147.842 202.041C147.842 199.88 149.571 198.747 153.028 198.643L154.844 198.584V197.92C154.844 197.08 154.662 196.462 154.297 196.064C153.939 195.661 153.363 195.459 152.569 195.459C151.677 195.459 150.668 195.732 149.542 196.279L149.044 195.039C149.571 194.753 150.147 194.528 150.772 194.365C151.404 194.202 152.035 194.121 152.667 194.121C153.943 194.121 154.887 194.404 155.499 194.971C156.117 195.537 156.426 196.445 156.426 197.695V205H155.225ZM151.563 203.857C152.572 203.857 153.363 203.581 153.936 203.027C154.516 202.474 154.805 201.699 154.805 200.703V199.736L153.184 199.805C151.895 199.85 150.964 200.052 150.391 200.41C149.825 200.762 149.542 201.312 149.542 202.061C149.542 202.646 149.717 203.092 150.069 203.398C150.427 203.704 150.925 203.857 151.563 203.857ZM165.099 194.102C165.574 194.102 166 194.141 166.378 194.219L166.153 195.723C165.711 195.625 165.32 195.576 164.982 195.576C164.116 195.576 163.373 195.928 162.755 196.631C162.143 197.334 161.837 198.21 161.837 199.258V205H160.216V194.297H161.554L161.739 196.279H161.817C162.215 195.583 162.693 195.046 163.253 194.668C163.813 194.29 164.428 194.102 165.099 194.102ZM176.144 205V198.076C176.144 197.204 175.946 196.553 175.549 196.123C175.151 195.693 174.53 195.479 173.683 195.479C172.563 195.479 171.743 195.781 171.222 196.387C170.702 196.992 170.441 197.992 170.441 199.385V205H168.82V194.297H170.138L170.402 195.762H170.48C170.812 195.234 171.278 194.827 171.877 194.541C172.476 194.248 173.143 194.102 173.879 194.102C175.168 194.102 176.138 194.414 176.789 195.039C177.44 195.658 177.765 196.65 177.765 198.018V205H176.144ZM183.166 205H181.545V194.297H183.166V205ZM181.408 191.396C181.408 191.025 181.5 190.755 181.682 190.586C181.864 190.41 182.092 190.322 182.365 190.322C182.626 190.322 182.851 190.41 183.039 190.586C183.228 190.762 183.323 191.032 183.323 191.396C183.323 191.761 183.228 192.035 183.039 192.217C182.851 192.393 182.626 192.48 182.365 192.48C182.092 192.48 181.864 192.393 181.682 192.217C181.5 192.035 181.408 191.761 181.408 191.396ZM194.368 205V198.076C194.368 197.204 194.169 196.553 193.772 196.123C193.375 195.693 192.753 195.479 191.907 195.479C190.787 195.479 189.967 195.781 189.446 196.387C188.925 196.992 188.665 197.992 188.665 199.385V205H187.044V194.297H188.362L188.626 195.762H188.704C189.036 195.234 189.501 194.827 190.1 194.541C190.699 194.248 191.367 194.102 192.102 194.102C193.391 194.102 194.361 194.414 195.012 195.039C195.664 195.658 195.989 196.65 195.989 198.018V205H194.368ZM208.529 194.297V195.322L206.546 195.557C206.729 195.785 206.891 196.084 207.035 196.455C207.178 196.82 207.249 197.233 207.249 197.695C207.249 198.743 206.891 199.58 206.175 200.205C205.459 200.83 204.476 201.143 203.226 201.143C202.907 201.143 202.607 201.117 202.327 201.064C201.637 201.429 201.292 201.888 201.292 202.441C201.292 202.734 201.413 202.952 201.654 203.096C201.895 203.232 202.308 203.301 202.894 203.301H204.788C205.947 203.301 206.836 203.545 207.454 204.033C208.079 204.521 208.392 205.231 208.392 206.162C208.392 207.347 207.917 208.249 206.966 208.867C206.016 209.492 204.629 209.805 202.806 209.805C201.406 209.805 200.326 209.544 199.564 209.023C198.809 208.503 198.431 207.767 198.431 206.816C198.431 206.165 198.639 205.602 199.056 205.127C199.473 204.652 200.059 204.329 200.814 204.16C200.54 204.036 200.309 203.844 200.12 203.584C199.938 203.324 199.847 203.021 199.847 202.676C199.847 202.285 199.951 201.943 200.16 201.65C200.368 201.357 200.697 201.074 201.146 200.801C200.592 200.573 200.14 200.186 199.788 199.639C199.443 199.092 199.271 198.467 199.271 197.764C199.271 196.592 199.622 195.69 200.326 195.059C201.029 194.421 202.025 194.102 203.314 194.102C203.874 194.102 204.378 194.167 204.827 194.297H208.529ZM199.994 206.797C199.994 207.376 200.238 207.816 200.726 208.115C201.214 208.415 201.914 208.564 202.826 208.564C204.186 208.564 205.192 208.359 205.843 207.949C206.501 207.546 206.829 206.995 206.829 206.299C206.829 205.719 206.65 205.316 206.292 205.088C205.934 204.867 205.26 204.756 204.271 204.756H202.327C201.592 204.756 201.019 204.932 200.609 205.283C200.199 205.635 199.994 206.139 199.994 206.797ZM200.872 197.725C200.872 198.473 201.084 199.04 201.507 199.424C201.93 199.808 202.52 200 203.275 200C204.857 200 205.648 199.232 205.648 197.695C205.648 196.087 204.847 195.283 203.245 195.283C202.484 195.283 201.898 195.488 201.488 195.898C201.077 196.309 200.872 196.917 200.872 197.725Z" fill="white"/>
<path d="M91.1836 234.645C91.1836 235.887 90.7344 236.887 89.8359 237.645C88.9375 238.395 87.6797 238.844 86.0625 238.992V241.395H84.457V239.039C82.5508 239 80.8789 238.664 79.4414 238.031V234.938C80.1211 235.273 80.9375 235.57 81.8906 235.828C82.8516 236.086 83.707 236.238 84.457 236.285V232.652L83.6719 232.348C82.125 231.738 81.0273 231.078 80.3789 230.367C79.7383 229.648 79.418 228.762 79.418 227.707C79.418 226.574 79.8594 225.645 80.7422 224.918C81.6328 224.184 82.8711 223.738 84.457 223.582V221.789H86.0625V223.535C87.8516 223.613 89.4688 223.973 90.9141 224.613L89.8125 227.355C88.5938 226.855 87.3438 226.551 86.0625 226.441V229.898C87.5859 230.484 88.668 230.992 89.3086 231.422C89.957 231.852 90.4297 232.324 90.7266 232.84C91.0312 233.355 91.1836 233.957 91.1836 234.645ZM87.6562 234.82C87.6562 234.492 87.5234 234.215 87.2578 233.988C86.9922 233.762 86.5938 233.527 86.0625 233.285V236.203C87.125 236.023 87.6562 235.562 87.6562 234.82ZM82.9453 227.707C82.9453 228.051 83.0625 228.336 83.2969 228.562C83.5391 228.781 83.9258 229.008 84.457 229.242V226.488C83.4492 226.637 82.9453 227.043 82.9453 227.707ZM102.012 240H98.3906V230.086L98.4258 228.457L98.4844 226.676C97.8828 227.277 97.4648 227.672 97.2305 227.859L95.2617 229.441L93.5156 227.262L99.0352 222.867H102.012V240ZM118.746 240H106.77V237.48L111.07 233.133C112.344 231.828 113.176 230.926 113.566 230.426C113.957 229.918 114.238 229.449 114.41 229.02C114.582 228.59 114.668 228.145 114.668 227.684C114.668 226.996 114.477 226.484 114.094 226.148C113.719 225.812 113.215 225.645 112.582 225.645C111.918 225.645 111.273 225.797 110.648 226.102C110.023 226.406 109.371 226.84 108.691 227.402L106.723 225.07C107.566 224.352 108.266 223.844 108.82 223.547C109.375 223.25 109.98 223.023 110.637 222.867C111.293 222.703 112.027 222.621 112.84 222.621C113.91 222.621 114.855 222.816 115.676 223.207C116.496 223.598 117.133 224.145 117.586 224.848C118.039 225.551 118.266 226.355 118.266 227.262C118.266 228.051 118.125 228.793 117.844 229.488C117.57 230.176 117.141 230.883 116.555 231.609C115.977 232.336 114.953 233.371 113.484 234.715L111.281 236.789V236.953H118.746V240ZM124.898 237.48C124.492 239.059 123.805 240.93 122.836 243.094H120.258C120.766 241.016 121.16 239.055 121.441 237.211H124.723L124.898 237.48ZM133.348 222.645C134.988 222.645 136.309 223.02 137.309 223.77C138.316 224.512 138.82 225.516 138.82 226.781C138.82 227.656 138.578 228.438 138.094 229.125C137.609 229.805 136.828 230.414 135.75 230.953C137.031 231.641 137.949 232.359 138.504 233.109C139.066 233.852 139.348 234.668 139.348 235.559C139.348 236.965 138.797 238.098 137.695 238.957C136.594 239.809 135.145 240.234 133.348 240.234C131.473 240.234 130 239.836 128.93 239.039C127.859 238.242 127.324 237.113 127.324 235.652C127.324 234.676 127.582 233.809 128.098 233.051C128.621 232.293 129.457 231.625 130.605 231.047C129.629 230.43 128.926 229.77 128.496 229.066C128.066 228.363 127.852 227.594 127.852 226.758C127.852 225.531 128.359 224.539 129.375 223.781C130.391 223.023 131.715 222.645 133.348 222.645ZM130.676 235.441C130.676 236.113 130.91 236.637 131.379 237.012C131.848 237.387 132.488 237.574 133.301 237.574C134.199 237.574 134.871 237.383 135.316 237C135.762 236.609 135.984 236.098 135.984 235.465C135.984 234.941 135.762 234.453 135.316 234C134.879 233.539 134.164 233.051 133.172 232.535C131.508 233.301 130.676 234.27 130.676 235.441ZM133.324 225.293C132.707 225.293 132.207 225.453 131.824 225.773C131.449 226.086 131.262 226.508 131.262 227.039C131.262 227.508 131.41 227.93 131.707 228.305C132.012 228.672 132.559 229.051 133.348 229.441C134.113 229.082 134.648 228.715 134.953 228.34C135.258 227.965 135.41 227.531 135.41 227.039C135.41 226.5 135.215 226.074 134.824 225.762C134.434 225.449 133.934 225.293 133.324 225.293ZM142.852 240L149.285 225.938H140.836V222.891H153.129V225.164L146.648 240H142.852ZM161.098 229.055C162.754 229.055 164.07 229.52 165.047 230.449C166.031 231.379 166.523 232.652 166.523 234.27C166.523 236.184 165.934 237.656 164.754 238.688C163.574 239.719 161.887 240.234 159.691 240.234C157.785 240.234 156.246 239.926 155.074 239.309V236.18C155.691 236.508 156.41 236.777 157.23 236.988C158.051 237.191 158.828 237.293 159.562 237.293C161.773 237.293 162.879 236.387 162.879 234.574C162.879 232.848 161.734 231.984 159.445 231.984C159.031 231.984 158.574 232.027 158.074 232.113C157.574 232.191 157.168 232.277 156.855 232.371L155.414 231.598L156.059 222.867H165.352V225.938H159.234L158.918 229.301L159.328 229.219C159.805 229.109 160.395 229.055 161.098 229.055Z" fill="white"/>
<g clip-path="url(#clip0_617_22688)">
<path d="M181 232L187 240H175L181 232Z" fill="#5EFF5A"/>
<path d="M197.264 240H190.695V239.022L193.327 236.377C194.129 235.566 194.658 234.987 194.913 234.641C195.168 234.294 195.359 233.957 195.487 233.629C195.615 233.301 195.678 232.948 195.678 232.569C195.678 232.036 195.517 231.615 195.193 231.305C194.87 230.99 194.421 230.833 193.846 230.833C193.432 230.833 193.037 230.901 192.664 231.038C192.295 231.175 191.882 231.423 191.426 231.783L190.825 231.011C191.745 230.245 192.748 229.862 193.833 229.862C194.772 229.862 195.508 230.104 196.041 230.587C196.574 231.065 196.841 231.71 196.841 232.521C196.841 233.155 196.663 233.782 196.307 234.401C195.952 235.021 195.287 235.805 194.311 236.753L192.124 238.893V238.947H197.264V240ZM200.117 232.986C200.117 233.761 200.202 234.342 200.37 234.729C200.539 235.117 200.812 235.311 201.191 235.311C201.938 235.311 202.312 234.536 202.312 232.986C202.312 231.446 201.938 230.676 201.191 230.676C200.812 230.676 200.539 230.867 200.37 231.25C200.202 231.633 200.117 232.212 200.117 232.986ZM203.248 232.986C203.248 234.025 203.073 234.812 202.722 235.345C202.376 235.873 201.865 236.138 201.191 236.138C200.553 236.138 200.056 235.867 199.7 235.324C199.35 234.782 199.174 234.003 199.174 232.986C199.174 231.952 199.343 231.173 199.68 230.648C200.022 230.124 200.525 229.862 201.191 229.862C201.852 229.862 202.36 230.133 202.715 230.676C203.071 231.218 203.248 231.988 203.248 232.986ZM206.133 236.992C206.133 237.771 206.217 238.355 206.386 238.742C206.555 239.125 206.83 239.316 207.213 239.316C207.596 239.316 207.879 239.127 208.061 238.749C208.243 238.366 208.334 237.781 208.334 236.992C208.334 236.213 208.243 235.636 208.061 235.263C207.879 234.884 207.596 234.695 207.213 234.695C206.83 234.695 206.555 234.884 206.386 235.263C206.217 235.636 206.133 236.213 206.133 236.992ZM209.271 236.992C209.271 238.027 209.095 238.811 208.744 239.344C208.398 239.872 207.888 240.137 207.213 240.137C206.566 240.137 206.067 239.866 205.716 239.323C205.37 238.781 205.197 238.004 205.197 236.992C205.197 235.958 205.365 235.178 205.702 234.654C206.044 234.13 206.548 233.868 207.213 233.868C207.86 233.868 208.364 234.137 208.724 234.675C209.088 235.208 209.271 235.98 209.271 236.992ZM207.507 230.006L201.963 240H200.958L206.502 230.006H207.507Z" fill="#5EFF5A"/>
</g>
<path opacity="0.5" d="M58.652 254.201C57.7105 254.201 56.9664 254.516 56.4195 255.145C55.8766 255.77 55.6051 256.627 55.6051 257.717C55.6051 258.838 55.8668 259.705 56.3902 260.318C56.9176 260.928 57.6676 261.232 58.6402 261.232C59.2379 261.232 59.9195 261.125 60.6852 260.91V261.783C60.0914 262.006 59.359 262.117 58.4879 262.117C57.2262 262.117 56.2516 261.734 55.5641 260.969C54.8805 260.203 54.5387 259.115 54.5387 257.705C54.5387 256.822 54.7027 256.049 55.0309 255.385C55.3629 254.721 55.8395 254.209 56.4605 253.85C57.0855 253.49 57.8199 253.311 58.6637 253.311C59.5621 253.311 60.3473 253.475 61.0191 253.803L60.5973 254.658C59.9488 254.354 59.3004 254.201 58.652 254.201ZM68.3508 258.783C68.3508 259.83 68.0871 260.648 67.5598 261.238C67.0324 261.824 66.3039 262.117 65.3742 262.117C64.8 262.117 64.2902 261.982 63.8449 261.713C63.3996 261.443 63.0559 261.057 62.8137 260.553C62.5715 260.049 62.4504 259.459 62.4504 258.783C62.4504 257.736 62.7121 256.922 63.2355 256.34C63.759 255.754 64.4855 255.461 65.4152 255.461C66.3137 255.461 67.0266 255.76 67.5539 256.357C68.0852 256.955 68.3508 257.764 68.3508 258.783ZM63.4582 258.783C63.4582 259.604 63.6223 260.229 63.9504 260.658C64.2785 261.088 64.7609 261.303 65.3977 261.303C66.0344 261.303 66.5168 261.09 66.8449 260.664C67.177 260.234 67.343 259.607 67.343 258.783C67.343 257.967 67.177 257.348 66.8449 256.926C66.5168 256.5 66.0305 256.287 65.3859 256.287C64.7492 256.287 64.2688 256.496 63.9445 256.914C63.6203 257.332 63.4582 257.955 63.4582 258.783ZM78.6473 262V257.822C78.6473 257.311 78.5379 256.928 78.3191 256.674C78.1004 256.416 77.7605 256.287 77.2996 256.287C76.6941 256.287 76.2469 256.461 75.9578 256.809C75.6688 257.156 75.5242 257.691 75.5242 258.414V262H74.5516V257.822C74.5516 257.311 74.4422 256.928 74.2234 256.674C74.0047 256.416 73.6629 256.287 73.198 256.287C72.5887 256.287 72.1414 256.471 71.8563 256.838C71.575 257.201 71.4344 257.799 71.4344 258.631V262H70.4617V255.578H71.2527L71.4109 256.457H71.4578C71.6414 256.145 71.8992 255.9 72.2313 255.725C72.5672 255.549 72.9422 255.461 73.3563 255.461C74.3602 255.461 75.0164 255.824 75.325 256.551H75.3719C75.5633 256.215 75.8406 255.949 76.2039 255.754C76.5672 255.559 76.9813 255.461 77.4461 255.461C78.1727 255.461 78.7156 255.648 79.075 256.023C79.4383 256.395 79.6199 256.99 79.6199 257.811V262H78.6473ZM85.018 262.117C84.6 262.117 84.2172 262.041 83.8695 261.889C83.5258 261.732 83.2367 261.494 83.0023 261.174H82.932C82.9789 261.549 83.0023 261.904 83.0023 262.24V264.883H82.0297V255.578H82.8207L82.9555 256.457H83.0023C83.2523 256.105 83.5434 255.852 83.8754 255.695C84.2074 255.539 84.5883 255.461 85.018 255.461C85.8695 255.461 86.5258 255.752 86.9867 256.334C87.4516 256.916 87.684 257.732 87.684 258.783C87.684 259.838 87.4477 260.658 86.975 261.244C86.5063 261.826 85.8539 262.117 85.018 262.117ZM84.8773 256.287C84.2211 256.287 83.7465 256.469 83.4535 256.832C83.1605 257.195 83.0102 257.773 83.0023 258.566V258.783C83.0023 259.686 83.1527 260.332 83.4535 260.723C83.7543 261.109 84.2367 261.303 84.9008 261.303C85.4555 261.303 85.8891 261.078 86.2016 260.629C86.518 260.18 86.6762 259.561 86.6762 258.771C86.6762 257.971 86.518 257.357 86.2016 256.932C85.8891 256.502 85.4477 256.287 84.8773 256.287ZM93.7383 262L93.5449 261.086H93.498C93.1777 261.488 92.8574 261.762 92.5371 261.906C92.2207 262.047 91.8242 262.117 91.3477 262.117C90.7109 262.117 90.2109 261.953 89.8477 261.625C89.4883 261.297 89.3086 260.83 89.3086 260.225C89.3086 258.928 90.3457 258.248 92.4199 258.186L93.5098 258.15V257.752C93.5098 257.248 93.4004 256.877 93.1816 256.639C92.9668 256.396 92.6211 256.275 92.1445 256.275C91.6094 256.275 91.0039 256.439 90.3281 256.768L90.0293 256.023C90.3457 255.852 90.6914 255.717 91.0664 255.619C91.4453 255.521 91.8242 255.473 92.2031 255.473C92.9688 255.473 93.5352 255.643 93.9023 255.982C94.2734 256.322 94.459 256.867 94.459 257.617V262H93.7383ZM91.541 261.314C92.1465 261.314 92.6211 261.148 92.9648 260.816C93.3125 260.484 93.4863 260.02 93.4863 259.422V258.842L92.5137 258.883C91.7402 258.91 91.1816 259.031 90.8379 259.246C90.498 259.457 90.3281 259.787 90.3281 260.236C90.3281 260.588 90.4336 260.855 90.6445 261.039C90.8594 261.223 91.1582 261.314 91.541 261.314ZM99.7984 255.461C100.084 255.461 100.339 255.484 100.566 255.531L100.431 256.434C100.166 256.375 99.9313 256.346 99.7281 256.346C99.2086 256.346 98.7633 256.557 98.3922 256.979C98.025 257.4 97.8414 257.926 97.8414 258.555V262H96.8688V255.578H97.6715L97.7828 256.768H97.8297C98.068 256.35 98.3551 256.027 98.691 255.801C99.027 255.574 99.3961 255.461 99.7984 255.461ZM104.88 262.117C103.931 262.117 103.181 261.828 102.63 261.25C102.083 260.672 101.81 259.869 101.81 258.842C101.81 257.807 102.064 256.984 102.571 256.375C103.083 255.766 103.769 255.461 104.628 255.461C105.433 255.461 106.07 255.727 106.538 256.258C107.007 256.785 107.241 257.482 107.241 258.35V258.965H102.818C102.837 259.719 103.027 260.291 103.386 260.682C103.749 261.072 104.259 261.268 104.915 261.268C105.607 261.268 106.29 261.123 106.966 260.834V261.701C106.622 261.85 106.296 261.955 105.988 262.018C105.683 262.084 105.314 262.117 104.88 262.117ZM104.616 256.275C104.101 256.275 103.689 256.443 103.38 256.779C103.075 257.115 102.896 257.58 102.841 258.174H106.198C106.198 257.561 106.062 257.092 105.788 256.768C105.515 256.439 105.124 256.275 104.616 256.275ZM113.677 261.139H113.624C113.175 261.791 112.503 262.117 111.608 262.117C110.768 262.117 110.114 261.83 109.645 261.256C109.18 260.682 108.948 259.865 108.948 258.807C108.948 257.748 109.182 256.926 109.651 256.34C110.12 255.754 110.772 255.461 111.608 255.461C112.479 255.461 113.147 255.777 113.612 256.41H113.688L113.647 255.947L113.624 255.496V252.883H114.596V262H113.805L113.677 261.139ZM111.731 261.303C112.395 261.303 112.876 261.123 113.173 260.764C113.473 260.4 113.624 259.816 113.624 259.012V258.807C113.624 257.896 113.471 257.248 113.167 256.861C112.866 256.471 112.384 256.275 111.72 256.275C111.149 256.275 110.712 256.498 110.407 256.943C110.106 257.385 109.956 258.01 109.956 258.818C109.956 259.639 110.106 260.258 110.407 260.676C110.708 261.094 111.149 261.303 111.731 261.303ZM122.656 261.314C122.828 261.314 122.994 261.303 123.154 261.279C123.314 261.252 123.441 261.225 123.535 261.197V261.941C123.43 261.992 123.273 262.033 123.066 262.064C122.863 262.1 122.68 262.117 122.516 262.117C121.273 262.117 120.652 261.463 120.652 260.154V256.334H119.732V255.865L120.652 255.461L121.062 254.09H121.625V255.578H123.488V256.334H121.625V260.113C121.625 260.5 121.717 260.797 121.9 261.004C122.084 261.211 122.336 261.314 122.656 261.314ZM130.767 258.783C130.767 259.83 130.504 260.648 129.976 261.238C129.449 261.824 128.72 262.117 127.791 262.117C127.216 262.117 126.707 261.982 126.261 261.713C125.816 261.443 125.472 261.057 125.23 260.553C124.988 260.049 124.867 259.459 124.867 258.783C124.867 257.736 125.129 256.922 125.652 256.34C126.175 255.754 126.902 255.461 127.832 255.461C128.73 255.461 129.443 255.76 129.97 256.357C130.502 256.955 130.767 257.764 130.767 258.783ZM125.875 258.783C125.875 259.604 126.039 260.229 126.367 260.658C126.695 261.088 127.177 261.303 127.814 261.303C128.451 261.303 128.933 261.09 129.261 260.664C129.593 260.234 129.759 259.607 129.759 258.783C129.759 257.967 129.593 257.348 129.261 256.926C128.933 256.5 128.447 256.287 127.802 256.287C127.166 256.287 126.685 256.496 126.361 256.914C126.037 257.332 125.875 257.955 125.875 258.783ZM141.434 259.369C141.434 259.9 141.235 260.34 140.837 260.688C140.438 261.031 139.882 261.248 139.167 261.338V262.697H138.411V261.391C137.973 261.391 137.55 261.357 137.139 261.291C136.729 261.221 136.393 261.125 136.132 261.004V260.09C136.456 260.234 136.829 260.354 137.251 260.447C137.677 260.537 138.063 260.582 138.411 260.582V258.004C137.61 257.75 137.048 257.455 136.723 257.119C136.403 256.783 136.243 256.35 136.243 255.818C136.243 255.307 136.44 254.887 136.835 254.559C137.233 254.23 137.759 254.031 138.411 253.961V252.895H139.167V253.949C139.886 253.969 140.579 254.113 141.247 254.383L140.942 255.15C140.36 254.92 139.768 254.783 139.167 254.74V257.283C139.78 257.479 140.239 257.67 140.544 257.857C140.848 258.041 141.073 258.254 141.218 258.496C141.362 258.734 141.434 259.025 141.434 259.369ZM140.438 259.445C140.438 259.164 140.35 258.938 140.175 258.766C140.003 258.59 139.667 258.416 139.167 258.244V260.523C140.014 260.406 140.438 260.047 140.438 259.445ZM137.233 255.807C137.233 256.104 137.321 256.342 137.497 256.521C137.673 256.701 137.977 256.871 138.411 257.031V254.764C138.024 254.826 137.731 254.949 137.532 255.133C137.333 255.312 137.233 255.537 137.233 255.807ZM148.848 262H143.217V261.162L145.473 258.895C146.161 258.199 146.614 257.703 146.832 257.406C147.051 257.109 147.215 256.82 147.325 256.539C147.434 256.258 147.489 255.955 147.489 255.631C147.489 255.174 147.35 254.812 147.073 254.547C146.795 254.277 146.411 254.143 145.918 254.143C145.563 254.143 145.225 254.201 144.905 254.318C144.588 254.436 144.235 254.648 143.844 254.957L143.329 254.295C144.118 253.639 144.977 253.311 145.907 253.311C146.711 253.311 147.342 253.518 147.799 253.932C148.256 254.342 148.485 254.895 148.485 255.59C148.485 256.133 148.332 256.67 148.028 257.201C147.723 257.732 147.153 258.404 146.317 259.217L144.442 261.051V261.098H148.848V262ZM154.088 262H153.139V255.895C153.139 255.387 153.154 254.906 153.186 254.453C153.104 254.535 153.012 254.621 152.91 254.711C152.809 254.801 152.344 255.182 151.516 255.854L151 255.186L153.268 253.434H154.088V262ZM159.216 260.605L159.304 260.74C159.203 261.131 159.056 261.584 158.865 262.1C158.673 262.619 158.474 263.102 158.267 263.547H157.535C157.64 263.141 157.755 262.639 157.88 262.041C158.009 261.443 158.099 260.965 158.15 260.605H159.216ZM163.771 256.768C164.673 256.768 165.382 256.992 165.898 257.441C166.417 257.887 166.677 258.498 166.677 259.275C166.677 260.162 166.394 260.857 165.827 261.361C165.265 261.865 164.488 262.117 163.495 262.117C162.53 262.117 161.794 261.963 161.286 261.654V260.717C161.56 260.893 161.9 261.031 162.306 261.133C162.712 261.23 163.113 261.279 163.507 261.279C164.195 261.279 164.728 261.117 165.107 260.793C165.489 260.469 165.681 260 165.681 259.387C165.681 258.191 164.948 257.594 163.484 257.594C163.113 257.594 162.616 257.65 161.995 257.764L161.491 257.441L161.814 253.434H166.073V254.33H162.646L162.429 256.902C162.878 256.812 163.325 256.768 163.771 256.768ZM174.038 257.705C174.038 259.186 173.804 260.291 173.335 261.021C172.87 261.752 172.157 262.117 171.196 262.117C170.274 262.117 169.573 261.744 169.093 260.998C168.612 260.248 168.372 259.15 168.372 257.705C168.372 256.213 168.604 255.105 169.069 254.383C169.534 253.66 170.243 253.299 171.196 253.299C172.126 253.299 172.831 253.676 173.311 254.43C173.796 255.184 174.038 256.275 174.038 257.705ZM169.356 257.705C169.356 258.951 169.503 259.859 169.796 260.43C170.089 260.996 170.555 261.279 171.196 261.279C171.845 261.279 172.313 260.992 172.602 260.418C172.895 259.84 173.042 258.936 173.042 257.705C173.042 256.475 172.895 255.574 172.602 255.004C172.313 254.43 171.845 254.143 171.196 254.143C170.555 254.143 170.089 254.426 169.796 254.992C169.503 255.555 169.356 256.459 169.356 257.705ZM181.663 260.031H180.391V262H179.459V260.031H175.293V259.182L179.36 253.387H180.391V259.146H181.663V260.031ZM179.459 259.146V256.299C179.459 255.74 179.479 255.109 179.518 254.406H179.471C179.284 254.781 179.108 255.092 178.944 255.338L176.266 259.146H179.459ZM187.83 262H186.857V252.883H187.83V262ZM194.241 262L194.048 261.086H194.001C193.681 261.488 193.361 261.762 193.04 261.906C192.724 262.047 192.327 262.117 191.851 262.117C191.214 262.117 190.714 261.953 190.351 261.625C189.991 261.297 189.812 260.83 189.812 260.225C189.812 258.928 190.849 258.248 192.923 258.186L194.013 258.15V257.752C194.013 257.248 193.904 256.877 193.685 256.639C193.47 256.396 193.124 256.275 192.648 256.275C192.112 256.275 191.507 256.439 190.831 256.768L190.532 256.023C190.849 255.852 191.195 255.717 191.57 255.619C191.948 255.521 192.327 255.473 192.706 255.473C193.472 255.473 194.038 255.643 194.405 255.982C194.777 256.322 194.962 256.867 194.962 257.617V262H194.241ZM192.044 261.314C192.65 261.314 193.124 261.148 193.468 260.816C193.816 260.484 193.989 260.02 193.989 259.422V258.842L193.017 258.883C192.243 258.91 191.685 259.031 191.341 259.246C191.001 259.457 190.831 259.787 190.831 260.236C190.831 260.588 190.937 260.855 191.148 261.039C191.362 261.223 191.661 261.314 192.044 261.314ZM201.514 260.248C201.514 260.846 201.292 261.307 200.846 261.631C200.401 261.955 199.776 262.117 198.971 262.117C198.12 262.117 197.456 261.982 196.979 261.713V260.811C197.288 260.967 197.618 261.09 197.97 261.18C198.325 261.27 198.667 261.314 198.995 261.314C199.503 261.314 199.893 261.234 200.167 261.074C200.44 260.91 200.577 260.662 200.577 260.33C200.577 260.08 200.468 259.867 200.249 259.691C200.034 259.512 199.612 259.301 198.983 259.059C198.386 258.836 197.96 258.643 197.706 258.479C197.456 258.311 197.268 258.121 197.143 257.91C197.022 257.699 196.962 257.447 196.962 257.154C196.962 256.631 197.175 256.219 197.6 255.918C198.026 255.613 198.61 255.461 199.352 255.461C200.044 255.461 200.72 255.602 201.38 255.883L201.034 256.674C200.389 256.408 199.805 256.275 199.282 256.275C198.821 256.275 198.473 256.348 198.239 256.492C198.005 256.637 197.888 256.836 197.888 257.09C197.888 257.262 197.93 257.408 198.016 257.529C198.106 257.65 198.249 257.766 198.444 257.875C198.639 257.984 199.014 258.143 199.569 258.35C200.331 258.627 200.845 258.906 201.11 259.188C201.38 259.469 201.514 259.822 201.514 260.248ZM205.577 261.314C205.748 261.314 205.914 261.303 206.075 261.279C206.235 261.252 206.362 261.225 206.455 261.197V261.941C206.35 261.992 206.194 262.033 205.987 262.064C205.784 262.1 205.6 262.117 205.436 262.117C204.194 262.117 203.573 261.463 203.573 260.154V256.334H202.653V255.865L203.573 255.461L203.983 254.09H204.545V255.578H206.409V256.334H204.545V260.113C204.545 260.5 204.637 260.797 204.821 261.004C205.004 261.211 205.256 261.314 205.577 261.314ZM210.642 255.578H211.685L213.091 259.24C213.4 260.076 213.591 260.68 213.666 261.051H213.712C213.763 260.852 213.869 260.512 214.029 260.031C214.193 259.547 214.724 258.062 215.623 255.578H216.666L213.906 262.891C213.632 263.613 213.312 264.125 212.945 264.426C212.582 264.73 212.134 264.883 211.603 264.883C211.306 264.883 211.013 264.85 210.724 264.783V264.004C210.939 264.051 211.179 264.074 211.445 264.074C212.113 264.074 212.589 263.699 212.875 262.949L213.232 262.035L210.642 255.578ZM220.821 262.117C219.872 262.117 219.122 261.828 218.571 261.25C218.025 260.672 217.751 259.869 217.751 258.842C217.751 257.807 218.005 256.984 218.513 256.375C219.025 255.766 219.71 255.461 220.57 255.461C221.374 255.461 222.011 255.727 222.48 256.258C222.948 256.785 223.183 257.482 223.183 258.35V258.965H218.759C218.779 259.719 218.968 260.291 219.327 260.682C219.691 261.072 220.2 261.268 220.857 261.268C221.548 261.268 222.232 261.123 222.907 260.834V261.701C222.564 261.85 222.237 261.955 221.929 262.018C221.624 262.084 221.255 262.117 220.821 262.117ZM220.558 256.275C220.042 256.275 219.63 256.443 219.321 256.779C219.017 257.115 218.837 257.58 218.782 258.174H222.14C222.14 257.561 222.003 257.092 221.73 256.768C221.456 256.439 221.066 256.275 220.558 256.275ZM229.196 262L229.003 261.086H228.956C228.636 261.488 228.315 261.762 227.995 261.906C227.679 262.047 227.282 262.117 226.805 262.117C226.169 262.117 225.669 261.953 225.305 261.625C224.946 261.297 224.766 260.83 224.766 260.225C224.766 258.928 225.804 258.248 227.878 258.186L228.968 258.15V257.752C228.968 257.248 228.858 256.877 228.639 256.639C228.425 256.396 228.079 256.275 227.602 256.275C227.067 256.275 226.462 256.439 225.786 256.768L225.487 256.023C225.804 255.852 226.149 255.717 226.524 255.619C226.903 255.521 227.282 255.473 227.661 255.473C228.427 255.473 228.993 255.643 229.36 255.982C229.731 256.322 229.917 256.867 229.917 257.617V262H229.196ZM226.999 261.314C227.604 261.314 228.079 261.148 228.423 260.816C228.77 260.484 228.944 260.02 228.944 259.422V258.842L227.971 258.883C227.198 258.91 226.639 259.031 226.296 259.246C225.956 259.457 225.786 259.787 225.786 260.236C225.786 260.588 225.891 260.855 226.102 261.039C226.317 261.223 226.616 261.314 226.999 261.314ZM235.256 255.461C235.541 255.461 235.797 255.484 236.024 255.531L235.889 256.434C235.623 256.375 235.389 256.346 235.186 256.346C234.666 256.346 234.221 256.557 233.85 256.979C233.483 257.4 233.299 257.926 233.299 258.555V262H232.327V255.578H233.129L233.241 256.768H233.288C233.526 256.35 233.813 256.027 234.149 255.801C234.485 255.574 234.854 255.461 235.256 255.461Z" fill="white"/>
<rect y="285" width="290" height="125" rx="10" fill="#191932"/>
<path d="M37.7109 313.418C37.7109 314.43 37.3646 315.209 36.6719 315.756C35.9837 316.298 34.9971 316.569 33.7119 316.569H32.5361V320.5H31.374V310.506H33.9648C36.4622 310.506 37.7109 311.477 37.7109 313.418ZM32.5361 315.571H33.582C34.612 315.571 35.3571 315.405 35.8174 315.072C36.2777 314.74 36.5078 314.206 36.5078 313.473C36.5078 312.812 36.2913 312.32 35.8584 311.996C35.4255 311.673 34.751 311.511 33.835 311.511H32.5361V315.571ZM43.4966 312.871C43.8293 312.871 44.1278 312.898 44.3921 312.953L44.2349 314.006C43.925 313.938 43.6516 313.903 43.4146 313.903C42.8085 313.903 42.289 314.149 41.856 314.642C41.4276 315.134 41.2134 315.747 41.2134 316.48V320.5H40.0787V313.008H41.0152L41.1451 314.396H41.1998C41.4778 313.908 41.8127 313.532 42.2046 313.268C42.5966 313.003 43.0272 312.871 43.4966 312.871ZM49.3986 320.637C48.2911 320.637 47.4161 320.299 46.7736 319.625C46.1355 318.951 45.8165 318.014 45.8165 316.815C45.8165 315.608 46.1127 314.648 46.7052 313.938C47.3022 313.227 48.102 312.871 49.1046 312.871C50.0434 312.871 50.7863 313.181 51.3331 313.801C51.88 314.416 52.1534 315.229 52.1534 316.241V316.959H46.9923C47.0151 317.839 47.2361 318.506 47.6554 318.962C48.0792 319.418 48.6739 319.646 49.4396 319.646C50.2462 319.646 51.0437 319.477 51.8321 319.14V320.151C51.4311 320.325 51.0506 320.448 50.6905 320.521C50.3351 320.598 49.9044 320.637 49.3986 320.637ZM49.0909 313.821C48.4894 313.821 48.0086 314.017 47.6486 314.409C47.2931 314.801 47.0835 315.343 47.0196 316.036H50.9366C50.9366 315.321 50.7771 314.774 50.4581 314.396C50.1391 314.013 49.6834 313.821 49.0909 313.821ZM59.3679 318.456C59.3679 319.153 59.1081 319.691 58.5886 320.069C58.069 320.448 57.3399 320.637 56.4011 320.637C55.4076 320.637 54.6328 320.479 54.0768 320.165V319.112C54.4369 319.295 54.822 319.438 55.2321 319.543C55.6468 319.648 56.0456 319.7 56.4284 319.7C57.0208 319.7 57.4766 319.607 57.7956 319.42C58.1146 319.229 58.2741 318.939 58.2741 318.552C58.2741 318.26 58.1465 318.012 57.8913 317.807C57.6406 317.597 57.1485 317.351 56.4147 317.068C55.7175 316.809 55.2207 316.583 54.9245 316.392C54.6328 316.196 54.4141 315.975 54.2682 315.729C54.127 315.482 54.0563 315.188 54.0563 314.847C54.0563 314.236 54.3047 313.755 54.8014 313.404C55.2982 313.049 55.9795 312.871 56.8454 312.871C57.652 312.871 58.4404 313.035 59.2106 313.363L58.8073 314.286C58.0554 313.976 57.374 313.821 56.7634 313.821C56.2256 313.821 55.82 313.906 55.5466 314.074C55.2731 314.243 55.1364 314.475 55.1364 314.771C55.1364 314.972 55.1865 315.143 55.2868 315.284C55.3916 315.425 55.558 315.56 55.7858 315.688C56.0137 315.815 56.4512 316 57.0983 316.241C57.987 316.565 58.5863 316.891 58.8962 317.219C59.2106 317.547 59.3679 317.959 59.3679 318.456ZM64.8254 320.637C63.718 320.637 62.843 320.299 62.2004 319.625C61.5624 318.951 61.2434 318.014 61.2434 316.815C61.2434 315.608 61.5396 314.648 62.1321 313.938C62.7291 313.227 63.5289 312.871 64.5315 312.871C65.4703 312.871 66.2131 313.181 66.76 313.801C67.3069 314.416 67.5803 315.229 67.5803 316.241V316.959H62.4192C62.442 317.839 62.663 318.506 63.0823 318.962C63.5061 319.418 64.1008 319.646 64.8664 319.646C65.6731 319.646 66.4706 319.477 67.259 319.14V320.151C66.858 320.325 66.4774 320.448 66.1174 320.521C65.762 320.598 65.3313 320.637 64.8254 320.637ZM64.5178 313.821C63.9163 313.821 63.4355 314.017 63.0754 314.409C62.72 314.801 62.5103 315.343 62.4465 316.036H66.3635C66.3635 315.321 66.204 314.774 65.885 314.396C65.566 314.013 65.1103 313.821 64.5178 313.821ZM75.0887 320.5V315.653C75.0887 315.043 74.9497 314.587 74.6717 314.286C74.3937 313.985 73.9585 313.835 73.366 313.835C72.5822 313.835 72.0079 314.047 71.6434 314.471C71.2788 314.895 71.0965 315.594 71.0965 316.569V320.5H69.9617V313.008H70.8846L71.0691 314.033H71.1238C71.3563 313.664 71.6821 313.379 72.1014 313.179C72.5206 312.974 72.9878 312.871 73.5027 312.871C74.4051 312.871 75.0841 313.09 75.5398 313.527C75.9956 313.96 76.2234 314.655 76.2234 315.612V320.5H75.0887ZM81.4212 319.7C81.6218 319.7 81.8155 319.687 82.0023 319.659C82.1892 319.627 82.3373 319.595 82.4466 319.563V320.432C82.3236 320.491 82.1413 320.539 81.8998 320.575C81.6628 320.616 81.4486 320.637 81.2572 320.637C79.808 320.637 79.0834 319.873 79.0834 318.347V313.89H78.0101V313.343L79.0834 312.871L79.5619 311.271H80.2181V313.008H82.392V313.89H80.2181V318.299C80.2181 318.75 80.3252 319.096 80.5394 319.338C80.7536 319.579 81.0476 319.7 81.4212 319.7ZM88.998 320.5L88.7724 319.434H88.7177C88.344 319.903 87.9703 320.222 87.5966 320.391C87.2275 320.555 86.7649 320.637 86.2089 320.637C85.4661 320.637 84.8827 320.445 84.4589 320.062C84.0396 319.68 83.83 319.135 83.83 318.429C83.83 316.916 85.04 316.123 87.4599 316.05L88.7314 316.009V315.544C88.7314 314.956 88.6038 314.523 88.3486 314.245C88.0979 313.963 87.6946 313.821 87.1386 313.821C86.5142 313.821 85.8079 314.013 85.0195 314.396L84.6708 313.527C85.04 313.327 85.4433 313.17 85.8808 313.056C86.3228 312.942 86.7649 312.885 87.207 312.885C88.1002 312.885 88.761 313.083 89.1894 313.479C89.6223 313.876 89.8388 314.512 89.8388 315.387V320.5H88.998ZM86.4345 319.7C87.1409 319.7 87.6946 319.507 88.0956 319.119C88.5012 318.732 88.704 318.189 88.704 317.492V316.815L87.5693 316.863C86.6669 316.895 86.0152 317.036 85.6142 317.287C85.2177 317.533 85.0195 317.918 85.0195 318.442C85.0195 318.853 85.1425 319.165 85.3886 319.379C85.6392 319.593 85.9879 319.7 86.4345 319.7ZM95.0434 319.7C95.244 319.7 95.4376 319.687 95.6245 319.659C95.8113 319.627 95.9595 319.595 96.0688 319.563V320.432C95.9458 320.491 95.7635 320.539 95.522 320.575C95.285 320.616 95.0708 320.637 94.8794 320.637C93.4302 320.637 92.7055 319.873 92.7055 318.347V313.89H91.6323V313.343L92.7055 312.871L93.1841 311.271H93.8403V313.008H96.0141V313.89H93.8403V318.299C93.8403 318.75 93.9474 319.096 94.1616 319.338C94.3758 319.579 94.6697 319.7 95.0434 319.7ZM99.1475 320.5H98.0127V313.008H99.1475V320.5ZM97.917 310.978C97.917 310.718 97.9808 310.529 98.1084 310.41C98.236 310.287 98.3955 310.226 98.587 310.226C98.7692 310.226 98.9265 310.287 99.0586 310.41C99.1908 310.533 99.2569 310.722 99.2569 310.978C99.2569 311.233 99.1908 311.424 99.0586 311.552C98.9265 311.675 98.7692 311.736 98.587 311.736C98.3955 311.736 98.236 311.675 98.1084 311.552C97.9808 311.424 97.917 311.233 97.917 310.978ZM108.461 316.747C108.461 317.968 108.153 318.923 107.538 319.611C106.922 320.295 106.073 320.637 104.988 320.637C104.318 320.637 103.723 320.479 103.204 320.165C102.684 319.851 102.283 319.399 102.001 318.812C101.718 318.224 101.577 317.535 101.577 316.747C101.577 315.526 101.882 314.576 102.493 313.896C103.103 313.213 103.951 312.871 105.036 312.871C106.084 312.871 106.916 313.22 107.531 313.917C108.151 314.614 108.461 315.558 108.461 316.747ZM102.753 316.747C102.753 317.704 102.944 318.433 103.327 318.935C103.71 319.436 104.272 319.687 105.015 319.687C105.758 319.687 106.321 319.438 106.704 318.941C107.091 318.44 107.285 317.709 107.285 316.747C107.285 315.795 107.091 315.072 106.704 314.58C106.321 314.083 105.754 313.835 105.002 313.835C104.259 313.835 103.698 314.079 103.32 314.566C102.942 315.054 102.753 315.781 102.753 316.747ZM116.024 320.5V315.653C116.024 315.043 115.885 314.587 115.607 314.286C115.329 313.985 114.893 313.835 114.301 313.835C113.517 313.835 112.943 314.047 112.578 314.471C112.214 314.895 112.031 315.594 112.031 316.569V320.5H110.897V313.008H111.819L112.004 314.033H112.059C112.291 313.664 112.617 313.379 113.036 313.179C113.456 312.974 113.923 312.871 114.438 312.871C115.34 312.871 116.019 313.09 116.475 313.527C116.93 313.96 117.158 314.655 117.158 315.612V320.5H116.024Z" fill="white"/>
<path opacity="0.5" d="M145.992 309.862C146.904 309.862 147.626 310.074 148.159 310.498C148.692 310.922 148.959 311.507 148.959 312.255C148.959 312.747 148.806 313.196 148.501 313.602C148.196 314.007 147.708 314.376 147.038 314.709C147.849 315.096 148.426 315.504 148.768 315.933C149.109 316.356 149.28 316.849 149.28 317.409C149.28 318.239 148.991 318.902 148.412 319.398C147.833 319.891 147.04 320.137 146.033 320.137C144.967 320.137 144.146 319.904 143.572 319.439C142.998 318.97 142.711 318.307 142.711 317.45C142.711 316.306 143.408 315.415 144.803 314.777C144.174 314.422 143.723 314.039 143.449 313.629C143.176 313.214 143.039 312.752 143.039 312.241C143.039 311.517 143.306 310.94 143.839 310.512C144.377 310.079 145.094 309.862 145.992 309.862ZM143.832 317.478C143.832 318.024 144.021 318.451 144.399 318.756C144.782 319.061 145.318 319.214 146.006 319.214C146.685 319.214 147.214 319.054 147.592 318.735C147.97 318.416 148.159 317.979 148.159 317.423C148.159 316.981 147.981 316.589 147.626 316.247C147.271 315.901 146.651 315.566 145.767 315.242C145.088 315.534 144.595 315.857 144.29 316.213C143.985 316.564 143.832 316.985 143.832 317.478ZM145.979 310.785C145.409 310.785 144.962 310.922 144.639 311.195C144.315 311.469 144.153 311.833 144.153 312.289C144.153 312.708 144.288 313.068 144.557 313.369C144.826 313.67 145.322 313.971 146.047 314.271C146.699 313.998 147.159 313.704 147.428 313.39C147.701 313.075 147.838 312.708 147.838 312.289C147.838 311.829 147.672 311.464 147.339 311.195C147.011 310.922 146.557 310.785 145.979 310.785ZM151.252 315.728C151.252 313.763 151.632 312.296 152.393 311.325C153.159 310.35 154.289 309.862 155.784 309.862C156.299 309.862 156.704 309.906 157.001 309.992V310.97C156.65 310.856 156.249 310.799 155.797 310.799C154.726 310.799 153.908 311.134 153.343 311.804C152.778 312.469 152.468 313.517 152.414 314.948H152.496C152.997 314.164 153.79 313.772 154.875 313.772C155.772 313.772 156.479 314.044 156.994 314.586C157.513 315.128 157.773 315.864 157.773 316.794C157.773 317.833 157.488 318.651 156.919 319.248C156.353 319.84 155.588 320.137 154.622 320.137C153.587 320.137 152.767 319.749 152.161 318.975C151.555 318.195 151.252 317.113 151.252 315.728ZM154.608 319.173C155.255 319.173 155.756 318.97 156.112 318.564C156.472 318.154 156.652 317.564 156.652 316.794C156.652 316.133 156.486 315.614 156.153 315.235C155.82 314.857 155.323 314.668 154.663 314.668C154.252 314.668 153.877 314.752 153.535 314.921C153.193 315.09 152.919 315.322 152.714 315.618C152.514 315.914 152.414 316.222 152.414 316.541C152.414 317.01 152.505 317.448 152.687 317.854C152.869 318.259 153.127 318.58 153.46 318.817C153.797 319.054 154.18 319.173 154.608 319.173ZM166.156 320H159.587V319.022L162.219 316.377C163.021 315.566 163.55 314.987 163.805 314.641C164.06 314.294 164.251 313.957 164.379 313.629C164.507 313.301 164.57 312.948 164.57 312.569C164.57 312.036 164.409 311.615 164.085 311.305C163.762 310.99 163.313 310.833 162.738 310.833C162.324 310.833 161.929 310.901 161.556 311.038C161.187 311.175 160.774 311.423 160.318 311.783L159.717 311.011C160.637 310.245 161.64 309.862 162.725 309.862C163.664 309.862 164.4 310.104 164.933 310.587C165.466 311.065 165.733 311.71 165.733 312.521C165.733 313.155 165.555 313.782 165.199 314.401C164.844 315.021 164.179 315.805 163.203 316.753L161.016 318.893V318.947H166.156V320Z" fill="white"/>
<rect opacity="0.7" x="188" y="305" width="17" height="21" rx="1" fill="#05050F"/>
<rect opacity="0.7" x="207" y="305" width="14" height="21" rx="1" fill="#05050F"/>
<rect opacity="0.7" x="223" y="305" width="14" height="21" rx="1" fill="#05050F"/>
<rect opacity="0.7" x="239" y="305" width="17" height="21" rx="1" fill="#05050F"/>
<path d="M188 312C196.627 312 195.612 321 205.761 321C215.91 321 213.373 314 222 314C230.627 314 232.516 310 239.254 310C245.794 310 247.373 319.5 256 319.5" stroke="url(#paint4_linear_617_22688)" stroke-width="2" stroke-linejoin="round"/>
<path d="M39.3516 347.407C39.3516 349.057 38.9027 350.319 38.0049 351.194C37.1117 352.065 35.8242 352.5 34.1426 352.5H31.374V342.506H34.4365C35.9906 342.506 37.1982 342.937 38.0596 343.798C38.9209 344.659 39.3516 345.862 39.3516 347.407ZM38.1211 347.448C38.1211 346.145 37.793 345.163 37.1367 344.502C36.485 343.841 35.5143 343.511 34.2246 343.511H32.5361V351.495H33.9512C35.3366 351.495 36.3779 351.156 37.0752 350.477C37.7725 349.793 38.1211 348.784 38.1211 347.448ZM45.0211 352.637C43.9136 352.637 43.0386 352.299 42.3961 351.625C41.758 350.951 41.439 350.014 41.439 348.815C41.439 347.608 41.7352 346.648 42.3277 345.938C42.9247 345.227 43.7245 344.871 44.7271 344.871C45.6659 344.871 46.4087 345.181 46.9556 345.801C47.5025 346.416 47.7759 347.229 47.7759 348.241V348.959H42.6148C42.6376 349.839 42.8586 350.506 43.2779 350.962C43.7017 351.418 44.2964 351.646 45.0621 351.646C45.8687 351.646 46.6662 351.477 47.4546 351.14V352.151C47.0536 352.325 46.6731 352.448 46.313 352.521C45.9576 352.598 45.5269 352.637 45.0211 352.637ZM44.7134 345.821C44.1119 345.821 43.6311 346.017 43.2711 346.409C42.9156 346.801 42.706 347.343 42.6421 348.036H46.5591C46.5591 347.321 46.3996 346.774 46.0806 346.396C45.7616 346.013 45.3059 345.821 44.7134 345.821ZM51.798 352.5L48.9542 345.008H50.171L51.7843 349.451C52.1489 350.49 52.3631 351.165 52.4269 351.475H52.4816C52.5317 351.233 52.6889 350.734 52.9532 349.978C53.2221 349.216 53.8214 347.56 54.7511 345.008H55.9679L53.1241 352.5H51.798ZM60.7761 352.637C59.6686 352.637 58.7936 352.299 58.1511 351.625C57.513 350.951 57.194 350.014 57.194 348.815C57.194 347.608 57.4902 346.648 58.0827 345.938C58.6797 345.227 59.4795 344.871 60.4821 344.871C61.4209 344.871 62.1637 345.181 62.7106 345.801C63.2575 346.416 63.5309 347.229 63.5309 348.241V348.959H58.3698C58.3926 349.839 58.6136 350.506 59.0329 350.962C59.4567 351.418 60.0514 351.646 60.8171 351.646C61.6237 351.646 62.4212 351.477 63.2096 351.14V352.151C62.8086 352.325 62.4281 352.448 62.068 352.521C61.7126 352.598 61.2819 352.637 60.7761 352.637ZM60.4684 345.821C59.8669 345.821 59.3861 346.017 59.0261 346.409C58.6706 346.801 58.461 347.343 58.3971 348.036H62.3141C62.3141 347.321 62.1546 346.774 61.8356 346.396C61.5166 346.013 61.0609 345.821 60.4684 345.821ZM67.0471 352.5H65.9123V341.863H67.0471V352.5ZM76.3602 348.747C76.3602 349.968 76.0525 350.923 75.4373 351.611C74.8221 352.295 73.9721 352.637 72.8875 352.637C72.2176 352.637 71.6229 352.479 71.1033 352.165C70.5838 351.851 70.1827 351.399 69.9002 350.812C69.6176 350.224 69.4764 349.535 69.4764 348.747C69.4764 347.526 69.7817 346.576 70.3924 345.896C71.0031 345.213 71.8507 344.871 72.9354 344.871C73.9835 344.871 74.8152 345.22 75.4305 345.917C76.0503 346.614 76.3602 347.558 76.3602 348.747ZM70.6521 348.747C70.6521 349.704 70.8436 350.433 71.2264 350.935C71.6092 351.436 72.172 351.687 72.9148 351.687C73.6577 351.687 74.2205 351.438 74.6033 350.941C74.9907 350.44 75.1844 349.709 75.1844 348.747C75.1844 347.795 74.9907 347.072 74.6033 346.58C74.2205 346.083 73.6531 345.835 72.9012 345.835C72.1583 345.835 71.5978 346.079 71.2195 346.566C70.8413 347.054 70.6521 347.781 70.6521 348.747ZM82.2826 352.637C81.7949 352.637 81.3483 352.548 80.9427 352.37C80.5417 352.188 80.2045 351.91 79.931 351.536H79.849C79.9037 351.974 79.931 352.388 79.931 352.78V355.863H78.7962V345.008H79.7191L79.8763 346.033H79.931C80.2227 345.623 80.5622 345.327 80.9496 345.145C81.3369 344.962 81.7813 344.871 82.2826 344.871C83.2761 344.871 84.0417 345.211 84.5795 345.89C85.1218 346.569 85.3929 347.521 85.3929 348.747C85.3929 349.978 85.1172 350.935 84.5658 351.618C84.0189 352.297 83.2578 352.637 82.2826 352.637ZM82.1185 345.835C81.3529 345.835 80.7992 346.047 80.4574 346.471C80.1156 346.895 79.9401 347.569 79.931 348.494V348.747C79.931 349.8 80.1065 350.554 80.4574 351.01C80.8083 351.461 81.3711 351.687 82.1459 351.687C82.793 351.687 83.2989 351.424 83.6634 350.9C84.0326 350.376 84.2171 349.654 84.2171 348.733C84.2171 347.799 84.0326 347.084 83.6634 346.587C83.2989 346.086 82.7839 345.835 82.1185 345.835ZM97.372 352.5V347.626C97.372 347.029 97.2444 346.582 96.9892 346.286C96.734 345.985 96.3375 345.835 95.7997 345.835C95.0933 345.835 94.5715 346.038 94.2343 346.443C93.8971 346.849 93.7284 347.473 93.7284 348.316V352.5H92.5937V347.626C92.5937 347.029 92.4661 346.582 92.2109 346.286C91.9557 345.985 91.5569 345.835 91.0146 345.835C90.3036 345.835 89.7818 346.049 89.4491 346.478C89.121 346.901 88.957 347.599 88.957 348.569V352.5H87.8222V345.008H88.745L88.9296 346.033H88.9843C89.1985 345.669 89.4993 345.384 89.8866 345.179C90.2786 344.974 90.7161 344.871 91.1991 344.871C92.3704 344.871 93.136 345.295 93.496 346.143H93.5507C93.774 345.751 94.0976 345.441 94.5214 345.213C94.9452 344.985 95.4283 344.871 95.9706 344.871C96.8183 344.871 97.4517 345.09 97.871 345.527C98.2948 345.96 98.5068 346.655 98.5068 347.612V352.5H97.372ZM104.457 352.637C103.349 352.637 102.474 352.299 101.832 351.625C101.193 350.951 100.874 350.014 100.874 348.815C100.874 347.608 101.171 346.648 101.763 345.938C102.36 345.227 103.16 344.871 104.163 344.871C105.101 344.871 105.844 345.181 106.391 345.801C106.938 346.416 107.211 347.229 107.211 348.241V348.959H102.05C102.073 349.839 102.294 350.506 102.713 350.962C103.137 351.418 103.732 351.646 104.498 351.646C105.304 351.646 106.102 351.477 106.89 351.14V352.151C106.489 352.325 106.109 352.448 105.749 352.521C105.393 352.598 104.962 352.637 104.457 352.637ZM104.149 345.821C103.547 345.821 103.067 346.017 102.707 346.409C102.351 346.801 102.141 347.343 102.078 348.036H105.995C105.995 347.321 105.835 346.774 105.516 346.396C105.197 346.013 104.741 345.821 104.149 345.821ZM114.72 352.5V347.653C114.72 347.043 114.581 346.587 114.303 346.286C114.025 345.985 113.59 345.835 112.997 345.835C112.213 345.835 111.639 346.047 111.274 346.471C110.91 346.895 110.728 347.594 110.728 348.569V352.5H109.593V345.008H110.516L110.7 346.033H110.755C110.987 345.664 111.313 345.379 111.732 345.179C112.152 344.974 112.619 344.871 113.134 344.871C114.036 344.871 114.715 345.09 115.171 345.527C115.627 345.96 115.855 346.655 115.855 347.612V352.5H114.72ZM121.052 351.7C121.253 351.7 121.447 351.687 121.633 351.659C121.82 351.627 121.968 351.595 122.078 351.563V352.432C121.955 352.491 121.772 352.539 121.531 352.575C121.294 352.616 121.08 352.637 120.888 352.637C119.439 352.637 118.714 351.873 118.714 350.347V345.89H117.641V345.343L118.714 344.871L119.193 343.271H119.849V345.008H122.023V345.89H119.849V350.299C119.849 350.75 119.956 351.096 120.171 351.338C120.385 351.579 120.679 351.7 121.052 351.7Z" fill="white"/>
<path opacity="0.5" d="M143.948 352L148.091 343.052H142.643V342.006H149.294V342.915L145.206 352H143.948ZM154.259 345.896C155.312 345.896 156.139 346.158 156.741 346.682C157.347 347.201 157.65 347.914 157.65 348.821C157.65 349.856 157.32 350.667 156.659 351.255C156.002 351.843 155.096 352.137 153.938 352.137C152.812 352.137 151.953 351.957 151.361 351.597V350.503C151.68 350.708 152.076 350.87 152.55 350.988C153.024 351.102 153.491 351.159 153.952 351.159C154.754 351.159 155.376 350.97 155.818 350.592C156.265 350.214 156.488 349.667 156.488 348.951C156.488 347.557 155.633 346.859 153.924 346.859C153.491 346.859 152.913 346.925 152.188 347.058L151.6 346.682L151.976 342.006H156.946V343.052H152.947L152.694 346.053C153.218 345.948 153.74 345.896 154.259 345.896ZM165.78 344.357C165.78 344.995 165.6 345.517 165.24 345.923C164.885 346.328 164.379 346.6 163.723 346.736V346.791C164.525 346.891 165.12 347.146 165.507 347.557C165.894 347.967 166.088 348.505 166.088 349.17C166.088 350.122 165.758 350.856 165.097 351.371C164.436 351.882 163.497 352.137 162.28 352.137C161.752 352.137 161.266 352.096 160.824 352.014C160.387 351.936 159.961 351.797 159.546 351.597V350.517C159.979 350.731 160.439 350.895 160.927 351.009C161.419 351.118 161.884 351.173 162.321 351.173C164.049 351.173 164.912 350.496 164.912 349.143C164.912 347.93 163.96 347.324 162.055 347.324H161.07V346.347H162.068C162.848 346.347 163.465 346.176 163.921 345.834C164.377 345.488 164.605 345.009 164.605 344.398C164.605 343.911 164.436 343.528 164.099 343.25C163.766 342.972 163.313 342.833 162.738 342.833C162.301 342.833 161.888 342.892 161.501 343.011C161.114 343.129 160.672 343.348 160.175 343.667L159.601 342.901C160.011 342.578 160.483 342.325 161.016 342.143C161.554 341.956 162.119 341.862 162.711 341.862C163.682 341.862 164.436 342.086 164.974 342.532C165.512 342.974 165.78 343.583 165.78 344.357Z" fill="white"/>
<rect opacity="0.7" x="188" y="337" width="17" height="21" rx="1" fill="#05050F"/>
<rect opacity="0.7" x="207" y="337" width="14" height="21" rx="1" fill="#05050F"/>
<rect opacity="0.7" x="223" y="337" width="14" height="21" rx="1" fill="#05050F"/>
<rect opacity="0.7" x="239" y="337" width="17" height="21" rx="1" fill="#05050F"/>
<path d="M188 349.929C196.691 349.929 195.668 346.476 205.893 346.476C216.117 346.476 213.561 352.952 222.252 352.952C230.943 352.952 232.845 347.929 239.633 347.929C246.222 347.929 247.309 342 256 342" stroke="url(#paint5_linear_617_22688)" stroke-width="2" stroke-linejoin="round"/>
<path d="M32.5361 380.344V384.5H31.374V374.506H34.1152C35.3411 374.506 36.2458 374.741 36.8291 375.21C37.417 375.679 37.7109 376.386 37.7109 377.329C37.7109 378.651 37.041 379.544 35.7012 380.009L38.415 384.5H37.041L34.6211 380.344H32.5361ZM32.5361 379.346H34.1289C34.9492 379.346 35.5508 379.184 35.9336 378.86C36.3164 378.532 36.5078 378.042 36.5078 377.391C36.5078 376.73 36.3118 376.254 35.9199 375.962C35.5326 375.67 34.9082 375.524 34.0469 375.524H32.5361V379.346ZM43.4625 384.637C42.355 384.637 41.48 384.299 40.8375 383.625C40.1994 382.951 39.8804 382.014 39.8804 380.815C39.8804 379.608 40.1767 378.648 40.7691 377.938C41.3661 377.227 42.1659 376.871 43.1685 376.871C44.1073 376.871 44.8502 377.181 45.397 377.801C45.9439 378.416 46.2173 379.229 46.2173 380.241V380.959H41.0562C41.079 381.839 41.3 382.506 41.7193 382.962C42.1431 383.418 42.7379 383.646 43.5035 383.646C44.3101 383.646 45.1076 383.477 45.8961 383.14V384.151C45.495 384.325 45.1145 384.448 44.7545 384.521C44.399 384.598 43.9683 384.637 43.4625 384.637ZM43.1548 377.821C42.5533 377.821 42.0725 378.017 41.7125 378.409C41.357 378.801 41.1474 379.343 41.0836 380.036H45.0005C45.0005 379.321 44.841 378.774 44.522 378.396C44.203 378.013 43.7473 377.821 43.1548 377.821ZM53.4318 382.456C53.4318 383.153 53.172 383.691 52.6525 384.069C52.1329 384.448 51.4038 384.637 50.465 384.637C49.4715 384.637 48.6967 384.479 48.1407 384.165V383.112C48.5008 383.295 48.8859 383.438 49.296 383.543C49.7107 383.648 50.1095 383.7 50.4923 383.7C51.0848 383.7 51.5405 383.607 51.8595 383.42C52.1785 383.229 52.338 382.939 52.338 382.552C52.338 382.26 52.2104 382.012 51.9552 381.807C51.7045 381.597 51.2124 381.351 50.4786 381.068C49.7814 380.809 49.2846 380.583 48.9884 380.392C48.6967 380.196 48.478 379.975 48.3321 379.729C48.1909 379.482 48.1202 379.188 48.1202 378.847C48.1202 378.236 48.3686 377.755 48.8654 377.404C49.3621 377.049 50.0434 376.871 50.9093 376.871C51.7159 376.871 52.5043 377.035 53.2745 377.363L52.8712 378.286C52.1193 377.976 51.4379 377.821 50.8273 377.821C50.2895 377.821 49.8839 377.906 49.6105 378.074C49.337 378.243 49.2003 378.475 49.2003 378.771C49.2003 378.972 49.2504 379.143 49.3507 379.284C49.4555 379.425 49.6219 379.56 49.8497 379.688C50.0776 379.815 50.5151 380 51.1622 380.241C52.0509 380.565 52.6502 380.891 52.9601 381.219C53.2745 381.547 53.4318 381.959 53.4318 382.456ZM58.8893 384.637C57.7819 384.637 56.9069 384.299 56.2643 383.625C55.6263 382.951 55.3073 382.014 55.3073 380.815C55.3073 379.608 55.6035 378.648 56.196 377.938C56.793 377.227 57.5928 376.871 58.5954 376.871C59.5342 376.871 60.277 377.181 60.8239 377.801C61.3708 378.416 61.6442 379.229 61.6442 380.241V380.959H56.4831C56.5059 381.839 56.7269 382.506 57.1462 382.962C57.57 383.418 58.1647 383.646 58.9304 383.646C59.737 383.646 60.5345 383.477 61.3229 383.14V384.151C60.9219 384.325 60.5414 384.448 60.1813 384.521C59.8259 384.598 59.3952 384.637 58.8893 384.637ZM58.5817 377.821C57.9802 377.821 57.4994 378.017 57.1393 378.409C56.7839 378.801 56.5742 379.343 56.5104 380.036H60.4274C60.4274 379.321 60.2679 378.774 59.9489 378.396C59.6299 378.013 59.1742 377.821 58.5817 377.821ZM68.633 384.5L68.4075 383.434H68.3528C67.9791 383.903 67.6054 384.222 67.2317 384.391C66.8625 384.555 66.4 384.637 65.844 384.637C65.1011 384.637 64.5178 384.445 64.094 384.062C63.6747 383.68 63.4651 383.135 63.4651 382.429C63.4651 380.916 64.675 380.123 67.095 380.05L68.3664 380.009V379.544C68.3664 378.956 68.2388 378.523 67.9836 378.245C67.733 377.963 67.3297 377.821 66.7737 377.821C66.1493 377.821 65.4429 378.013 64.6545 378.396L64.3059 377.527C64.675 377.327 65.0784 377.17 65.5159 377.056C65.9579 376.942 66.4 376.885 66.842 376.885C67.7353 376.885 68.3961 377.083 68.8245 377.479C69.2574 377.876 69.4739 378.512 69.4739 379.387V384.5H68.633ZM66.0696 383.7C66.7759 383.7 67.3297 383.507 67.7307 383.119C68.1363 382.732 68.3391 382.189 68.3391 381.492V380.815L67.2043 380.863C66.302 380.895 65.6503 381.036 65.2493 381.287C64.8528 381.533 64.6545 381.918 64.6545 382.442C64.6545 382.853 64.7776 383.165 65.0237 383.379C65.2743 383.593 65.623 383.7 66.0696 383.7ZM75.6766 376.871C76.0092 376.871 76.3077 376.898 76.5721 376.953L76.4148 378.006C76.1049 377.938 75.8315 377.903 75.5945 377.903C74.9884 377.903 74.4689 378.149 74.0359 378.642C73.6076 379.134 73.3934 379.747 73.3934 380.48V384.5H72.2586V377.008H73.1951L73.325 378.396H73.3797C73.6577 377.908 73.9926 377.532 74.3846 377.268C74.7765 377.003 75.2072 376.871 75.6766 376.871ZM81.4076 384.637C80.3229 384.637 79.4821 384.304 78.8851 383.639C78.2927 382.969 77.9964 382.023 77.9964 380.802C77.9964 379.549 78.2972 378.58 78.8988 377.896C79.5049 377.213 80.3662 376.871 81.4828 376.871C81.8428 376.871 82.2028 376.91 82.5629 376.987C82.9229 377.065 83.2054 377.156 83.4105 377.261L83.0619 378.225C82.8112 378.124 82.5378 378.042 82.2416 377.979C81.9453 377.91 81.6833 377.876 81.4554 377.876C79.9333 377.876 79.1722 378.847 79.1722 380.788C79.1722 381.709 79.3568 382.415 79.7259 382.907C80.0996 383.399 80.6511 383.646 81.3802 383.646C82.0046 383.646 82.6449 383.511 83.3011 383.242V384.247C82.7998 384.507 82.1686 384.637 81.4076 384.637ZM90.6523 384.5V379.653C90.6523 379.043 90.5133 378.587 90.2353 378.286C89.9573 377.985 89.5221 377.835 88.9296 377.835C88.1412 377.835 87.5647 378.049 87.2001 378.478C86.8401 378.906 86.6601 379.608 86.6601 380.583V384.5H85.5253V373.863H86.6601V377.083C86.6601 377.47 86.6419 377.792 86.6054 378.047H86.6738C86.8971 377.687 87.2138 377.404 87.6239 377.199C88.0387 376.99 88.5103 376.885 89.039 376.885C89.955 376.885 90.6409 377.104 91.0966 377.541C91.5569 377.974 91.787 378.664 91.787 379.612V384.5H90.6523Z" fill="white"/>
<path opacity="0.5" d="M145.808 377.896C146.86 377.896 147.688 378.158 148.289 378.682C148.895 379.201 149.198 379.914 149.198 380.821C149.198 381.856 148.868 382.667 148.207 383.255C147.551 383.843 146.644 384.137 145.486 384.137C144.361 384.137 143.502 383.957 142.909 383.597V382.503C143.228 382.708 143.625 382.87 144.099 382.988C144.573 383.102 145.04 383.159 145.5 383.159C146.302 383.159 146.924 382.97 147.366 382.592C147.813 382.214 148.036 381.667 148.036 380.951C148.036 379.557 147.182 378.859 145.473 378.859C145.04 378.859 144.461 378.925 143.736 379.058L143.148 378.682L143.524 374.006H148.494V375.052H144.495L144.242 378.053C144.766 377.948 145.288 377.896 145.808 377.896ZM154.259 377.896C155.312 377.896 156.139 378.158 156.741 378.682C157.347 379.201 157.65 379.914 157.65 380.821C157.65 381.856 157.32 382.667 156.659 383.255C156.002 383.843 155.096 384.137 153.938 384.137C152.812 384.137 151.953 383.957 151.361 383.597V382.503C151.68 382.708 152.076 382.87 152.55 382.988C153.024 383.102 153.491 383.159 153.952 383.159C154.754 383.159 155.376 382.97 155.818 382.592C156.265 382.214 156.488 381.667 156.488 380.951C156.488 379.557 155.633 378.859 153.924 378.859C153.491 378.859 152.913 378.925 152.188 379.058L151.6 378.682L151.976 374.006H156.946V375.052H152.947L152.694 378.053C153.218 377.948 153.74 377.896 154.259 377.896ZM165.78 376.357C165.78 376.995 165.6 377.517 165.24 377.923C164.885 378.328 164.379 378.6 163.723 378.736V378.791C164.525 378.891 165.12 379.146 165.507 379.557C165.894 379.967 166.088 380.505 166.088 381.17C166.088 382.122 165.758 382.856 165.097 383.371C164.436 383.882 163.497 384.137 162.28 384.137C161.752 384.137 161.266 384.096 160.824 384.014C160.387 383.936 159.961 383.797 159.546 383.597V382.517C159.979 382.731 160.439 382.895 160.927 383.009C161.419 383.118 161.884 383.173 162.321 383.173C164.049 383.173 164.912 382.496 164.912 381.143C164.912 379.93 163.96 379.324 162.055 379.324H161.07V378.347H162.068C162.848 378.347 163.465 378.176 163.921 377.834C164.377 377.488 164.605 377.009 164.605 376.398C164.605 375.911 164.436 375.528 164.099 375.25C163.766 374.972 163.313 374.833 162.738 374.833C162.301 374.833 161.888 374.892 161.501 375.011C161.114 375.129 160.672 375.348 160.175 375.667L159.601 374.901C160.011 374.578 160.483 374.325 161.016 374.143C161.554 373.956 162.119 373.862 162.711 373.862C163.682 373.862 164.436 374.086 164.974 374.532C165.512 374.974 165.78 375.583 165.78 376.357Z" fill="white"/>
<rect opacity="0.7" x="188" y="369" width="17" height="21" rx="1" fill="#05050F"/>
<rect opacity="0.7" x="207" y="369" width="14" height="21" rx="1" fill="#05050F"/>
<rect opacity="0.7" x="223" y="369" width="14" height="21" rx="1" fill="#05050F"/>
<rect opacity="0.7" x="239" y="369" width="17" height="21" rx="1" fill="#05050F"/>
<path d="M188 375C196.627 375 194.851 381.75 205 381.75C215.149 381.75 213.373 378 222 378C230.627 378 230.262 382.875 237 382.875C243.54 382.875 246.373 375 255 375" stroke="url(#paint6_linear_617_22688)" stroke-width="2" stroke-linejoin="round"/>
<defs>
<linearGradient id="paint0_linear_617_22688" x1="118" y1="39" x2="118.09" y2="144.308" gradientUnits="userSpaceOnUse">
<stop stop-color="#E323FF"/>
<stop offset="1" stop-color="#7517F8"/>
</linearGradient>
<linearGradient id="paint1_linear_617_22688" x1="72" y1="20" x2="72" y2="160.677" gradientUnits="userSpaceOnUse">
<stop stop-color="#4DFFDF"/>
<stop offset="1" stop-color="#4DA1FF"/>
</linearGradient>
<linearGradient id="paint2_linear_617_22688" x1="108.5" y1="20" x2="108.621" y2="162.36" gradientUnits="userSpaceOnUse">
<stop stop-color="#FFD422"/>
<stop offset="1" stop-color="#FF7D05"/>
</linearGradient>
<linearGradient id="paint3_linear_617_22688" x1="72" y1="20" x2="72" y2="160.677" gradientUnits="userSpaceOnUse">
<stop stop-color="#4DFFDF"/>
<stop offset="1" stop-color="#4DA1FF"/>
</linearGradient>
<linearGradient id="paint4_linear_617_22688" x1="256" y1="312.75" x2="189.697" y2="313.1" gradientUnits="userSpaceOnUse">
<stop stop-color="#E323FF"/>
<stop offset="1" stop-color="#7517F8"/>
</linearGradient>
<linearGradient id="paint5_linear_617_22688" x1="222" y1="342" x2="222" y2="352.952" gradientUnits="userSpaceOnUse">
<stop stop-color="#8AFF6C"/>
<stop offset="1" stop-color="#02C751"/>
</linearGradient>
<linearGradient id="paint6_linear_617_22688" x1="255" y1="376.969" x2="189.674" y2="377.444" gradientUnits="userSpaceOnUse">
<stop stop-color="#FFD422"/>
<stop offset="1" stop-color="#FF7D05"/>
</linearGradient>
<clipPath id="clip0_617_22688">
<rect width="38" height="26" fill="white" transform="translate(174 223)"/>
</clipPath>
</defs>
</svg>
