<svg width="270" height="128" viewBox="0 0 290 128" fill="none" xmlns="http://www.w3.org/2000/svg">
<rect width="290" height="128" rx="10" fill="#14142B"/>
<path d="M35.0859 38H33.7578V27.7578H30.1406V26.5781H38.7031V27.7578H35.0859V38ZM48.065 33.7109C48.065 35.1068 47.7134 36.1979 47.0103 36.9844C46.3072 37.7656 45.3358 38.1562 44.0962 38.1562C43.3306 38.1562 42.6509 37.9766 42.0572 37.6172C41.4634 37.2578 41.0051 36.7422 40.6822 36.0703C40.3593 35.3984 40.1978 34.612 40.1978 33.7109C40.1978 32.3151 40.5468 31.2292 41.2447 30.4531C41.9426 29.6719 42.9114 29.2812 44.1509 29.2812C45.3489 29.2812 46.2994 29.6797 47.0025 30.4766C47.7108 31.2734 48.065 32.3516 48.065 33.7109ZM41.5416 33.7109C41.5416 34.8047 41.7603 35.638 42.1978 36.2109C42.6353 36.7839 43.2785 37.0703 44.1275 37.0703C44.9765 37.0703 45.6197 36.7865 46.0572 36.2188C46.4999 35.6458 46.7212 34.8099 46.7212 33.7109C46.7212 32.6224 46.4999 31.7969 46.0572 31.2344C45.6197 30.6667 44.9712 30.3828 44.1119 30.3828C43.2629 30.3828 42.6223 30.6615 42.19 31.2188C41.7577 31.776 41.5416 32.6068 41.5416 33.7109ZM53.5519 37.0859C53.781 37.0859 54.0024 37.0703 54.2159 37.0391C54.4295 37.0026 54.5987 36.9661 54.7237 36.9297V37.9219C54.5831 37.9896 54.3748 38.0443 54.0987 38.0859C53.8279 38.1328 53.5831 38.1562 53.3644 38.1562C51.7081 38.1562 50.88 37.2839 50.88 35.5391V30.4453H49.6534V29.8203L50.88 29.2812L51.4269 27.4531H52.1769V29.4375H54.6612V30.4453H52.1769V35.4844C52.1769 36 52.2993 36.3958 52.5441 36.6719C52.7889 36.9479 53.1248 37.0859 53.5519 37.0859ZM62.1481 38L61.8903 36.7812H61.8278C61.4007 37.3177 60.9736 37.6823 60.5466 37.875C60.1247 38.0625 59.596 38.1562 58.9606 38.1562C58.1117 38.1562 57.445 37.9375 56.9606 37.5C56.4815 37.0625 56.2419 36.4401 56.2419 35.6328C56.2419 33.9036 57.6247 32.9974 60.3903 32.9141L61.8434 32.8672V32.3359C61.8434 31.6641 61.6976 31.1693 61.4059 30.8516C61.1195 30.5286 60.6585 30.3672 60.0231 30.3672C59.3096 30.3672 58.5023 30.5859 57.6012 31.0234L57.2028 30.0312C57.6247 29.8021 58.0856 29.6224 58.5856 29.4922C59.0908 29.362 59.596 29.2969 60.1012 29.2969C61.1221 29.2969 61.8773 29.5234 62.3669 29.9766C62.8617 30.4297 63.1091 31.1562 63.1091 32.1562V38H62.1481ZM59.2184 37.0859C60.0257 37.0859 60.6585 36.8646 61.1169 36.4219C61.5804 35.9792 61.8122 35.3594 61.8122 34.5625V33.7891L60.5153 33.8438C59.4841 33.8802 58.7393 34.0417 58.2809 34.3281C57.8278 34.6094 57.6012 35.0495 57.6012 35.6484C57.6012 36.1172 57.7419 36.474 58.0231 36.7188C58.3096 36.9635 58.708 37.0859 59.2184 37.0859ZM67.5256 38H66.2287V25.8438H67.5256V38ZM78.9291 38.1562C77.6634 38.1562 76.6634 37.7708 75.9291 37C75.1999 36.2292 74.8353 35.1589 74.8353 33.7891C74.8353 32.4089 75.1739 31.3125 75.8509 30.5C76.5332 29.6875 77.4473 29.2812 78.5931 29.2812C79.666 29.2812 80.515 29.6354 81.14 30.3438C81.765 31.0469 82.0775 31.9766 82.0775 33.1328V33.9531H76.1791C76.2051 34.9583 76.4577 35.7214 76.9369 36.2422C77.4212 36.763 78.1009 37.0234 78.9759 37.0234C79.8978 37.0234 80.8093 36.8307 81.7103 36.4453V37.6016C81.252 37.7995 80.8171 37.9401 80.4056 38.0234C79.9994 38.112 79.5072 38.1562 78.9291 38.1562ZM78.5775 30.3672C77.89 30.3672 77.3405 30.5911 76.9291 31.0391C76.5228 31.487 76.2832 32.1068 76.2103 32.8984H80.6869C80.6869 32.0807 80.5046 31.4557 80.14 31.0234C79.7754 30.5859 79.2546 30.3672 78.5775 30.3672ZM90.0019 38L89.7441 36.7812H89.6816C89.2545 37.3177 88.8274 37.6823 88.4003 37.875C87.9784 38.0625 87.4498 38.1562 86.8144 38.1562C85.9654 38.1562 85.2988 37.9375 84.8144 37.5C84.3352 37.0625 84.0956 36.4401 84.0956 35.6328C84.0956 33.9036 85.4784 32.9974 88.2441 32.9141L89.6972 32.8672V32.3359C89.6972 31.6641 89.5514 31.1693 89.2597 30.8516C88.9732 30.5286 88.5123 30.3672 87.8769 30.3672C87.1633 30.3672 86.356 30.5859 85.455 31.0234L85.0566 30.0312C85.4784 29.8021 85.9394 29.6224 86.4394 29.4922C86.9446 29.362 87.4498 29.2969 87.955 29.2969C88.9758 29.2969 89.731 29.5234 90.2206 29.9766C90.7154 30.4297 90.9628 31.1562 90.9628 32.1562V38H90.0019ZM87.0722 37.0859C87.8795 37.0859 88.5123 36.8646 88.9706 36.4219C89.4342 35.9792 89.6659 35.3594 89.6659 34.5625V33.7891L88.3691 33.8438C87.3378 33.8802 86.593 34.0417 86.1347 34.3281C85.6816 34.6094 85.455 35.0495 85.455 35.6484C85.455 36.1172 85.5956 36.474 85.8769 36.7188C86.1633 36.9635 86.5618 37.0859 87.0722 37.0859ZM97.9888 29.2812C98.369 29.2812 98.7101 29.3125 99.0122 29.375L98.8325 30.5781C98.4783 30.5 98.1658 30.4609 97.895 30.4609C97.2023 30.4609 96.6085 30.7422 96.1138 31.3047C95.6242 31.8672 95.3794 32.5677 95.3794 33.4062V38H94.0825V29.4375H95.1528L95.3013 31.0234H95.3638C95.6815 30.4661 96.0643 30.0365 96.5122 29.7344C96.9601 29.4323 97.4523 29.2812 97.9888 29.2812ZM106.913 38V32.4609C106.913 31.763 106.754 31.2422 106.437 30.8984C106.119 30.5547 105.621 30.3828 104.944 30.3828C104.049 30.3828 103.392 30.625 102.976 31.1094C102.559 31.5938 102.351 32.3932 102.351 33.5078V38H101.054V29.4375H102.108L102.319 30.6094H102.382C102.647 30.1875 103.02 29.862 103.499 29.6328C103.978 29.3984 104.512 29.2812 105.101 29.2812C106.132 29.2812 106.908 29.5312 107.429 30.0312C107.95 30.526 108.21 31.3203 108.21 32.4141V38H106.913ZM112.619 38H111.322V29.4375H112.619V38ZM111.213 27.1172C111.213 26.8203 111.285 26.6042 111.431 26.4688C111.577 26.3281 111.759 26.2578 111.978 26.2578C112.186 26.2578 112.366 26.3281 112.517 26.4688C112.668 26.6094 112.744 26.8255 112.744 27.1172C112.744 27.4089 112.668 27.6276 112.517 27.7734C112.366 27.9141 112.186 27.9844 111.978 27.9844C111.759 27.9844 111.577 27.9141 111.431 27.7734C111.285 27.6276 111.213 27.4089 111.213 27.1172ZM121.668 38V32.4609C121.668 31.763 121.509 31.2422 121.192 30.8984C120.874 30.5547 120.376 30.3828 119.699 30.3828C118.804 30.3828 118.147 30.625 117.731 31.1094C117.314 31.5938 117.106 32.3932 117.106 33.5078V38H115.809V29.4375H116.863L117.074 30.6094H117.137C117.402 30.1875 117.775 29.862 118.254 29.6328C118.733 29.3984 119.267 29.2812 119.856 29.2812C120.887 29.2812 121.663 29.5312 122.184 30.0312C122.705 30.526 122.965 31.3203 122.965 32.4141V38H121.668ZM133.085 29.4375V30.2578L131.499 30.4453C131.645 30.6276 131.775 30.8672 131.889 31.1641C132.004 31.4557 132.061 31.7865 132.061 32.1562C132.061 32.9948 131.775 33.6641 131.202 34.1641C130.629 34.6641 129.842 34.9141 128.842 34.9141C128.587 34.9141 128.348 34.8932 128.124 34.8516C127.572 35.1432 127.296 35.5104 127.296 35.9531C127.296 36.1875 127.392 36.362 127.585 36.4766C127.777 36.5859 128.108 36.6406 128.577 36.6406H130.092C131.02 36.6406 131.731 36.8359 132.225 37.2266C132.725 37.6172 132.975 38.1849 132.975 38.9297C132.975 39.8776 132.595 40.599 131.835 41.0938C131.074 41.5938 129.965 41.8438 128.507 41.8438C127.387 41.8438 126.522 41.6354 125.913 41.2188C125.309 40.8021 125.007 40.2135 125.007 39.4531C125.007 38.9323 125.173 38.4818 125.507 38.1016C125.84 37.7214 126.309 37.4635 126.913 37.3281C126.694 37.2292 126.509 37.0755 126.358 36.8672C126.212 36.6589 126.139 36.4167 126.139 36.1406C126.139 35.8281 126.223 35.5547 126.389 35.3203C126.556 35.0859 126.819 34.8594 127.178 34.6406C126.736 34.4583 126.374 34.1484 126.092 33.7109C125.816 33.2734 125.678 32.7734 125.678 32.2109C125.678 31.2734 125.96 30.5521 126.522 30.0469C127.085 29.5365 127.882 29.2812 128.913 29.2812C129.361 29.2812 129.764 29.3333 130.124 29.4375H133.085ZM126.257 39.4375C126.257 39.901 126.452 40.2526 126.842 40.4922C127.233 40.7318 127.793 40.8516 128.522 40.8516C129.611 40.8516 130.415 40.6875 130.936 40.3594C131.462 40.0365 131.725 39.5964 131.725 39.0391C131.725 38.5755 131.582 38.2526 131.296 38.0703C131.009 37.8932 130.47 37.8047 129.678 37.8047H128.124C127.535 37.8047 127.077 37.9453 126.749 38.2266C126.421 38.5078 126.257 38.9115 126.257 39.4375ZM126.96 32.1797C126.96 32.7786 127.129 33.2318 127.467 33.5391C127.806 33.8464 128.277 34 128.882 34C130.147 34 130.78 33.3854 130.78 32.1562C130.78 30.8698 130.139 30.2266 128.858 30.2266C128.249 30.2266 127.78 30.3906 127.452 30.7188C127.124 31.0469 126.96 31.5339 126.96 32.1797Z" fill="white"/>
<path d="M38.3672 79.8711C35.9434 79.7604 33.6081 79.2181 31.3613 78.2441V72.7324C32.6452 73.3854 34.0397 73.9333 35.5449 74.376C37.0501 74.8076 38.3727 75.0234 39.5127 75.0234C40.4535 75.0234 41.1396 74.9128 41.5713 74.6914C42.014 74.459 42.2354 74.0771 42.2354 73.5459C42.2354 73.1807 42.0749 72.8708 41.7539 72.6162C41.444 72.3617 40.9183 72.0739 40.1768 71.7529C39.4463 71.432 38.4557 71.0446 37.2051 70.5908C35.7995 70.0706 34.665 69.4896 33.8018 68.8477C32.9385 68.1947 32.3076 67.4697 31.9092 66.6729C31.5218 65.8649 31.3281 64.8633 31.3281 63.668C31.3281 61.8418 31.9147 60.4141 33.0879 59.3848C34.2611 58.3555 36.0208 57.7191 38.3672 57.4756V55.2012H41.8037V57.4424C44.0062 57.5641 46.2253 58.1064 48.4609 59.0693L46.4854 63.8008C44.1722 62.7604 42.0859 62.2402 40.2266 62.2402C39.3411 62.2402 38.7158 62.3509 38.3506 62.5723C37.9964 62.7826 37.8193 63.098 37.8193 63.5186C37.8193 63.8838 37.9466 64.1882 38.2012 64.4316C38.4668 64.6641 38.9206 64.9297 39.5625 65.2285C40.2044 65.5163 41.0954 65.8538 42.2354 66.2412C44.5485 67.0602 46.2087 67.9954 47.2158 69.0469C48.223 70.0872 48.7266 71.432 48.7266 73.0811C48.7266 74.9404 48.1344 76.4512 46.9502 77.6133C45.777 78.7754 44.0615 79.4948 41.8037 79.7715V82.9756H38.3672V79.8711ZM65.1205 81H58.4633V68.1504C58.4633 66.5898 58.4965 65.1621 58.5629 63.8672C58.1534 64.3652 57.6443 64.8854 57.0356 65.4277L54.2797 67.7021L50.8764 63.5186L59.2104 56.7285H65.1205V81ZM87.5907 81H69.9764V76.6836L75.9032 70.6904C77.5966 68.9196 78.7033 67.7132 79.2235 67.0713C79.7437 66.4183 80.1034 65.8594 80.3026 65.3945C80.5129 64.9297 80.618 64.4427 80.618 63.9336C80.618 63.3027 80.4133 62.8047 80.0038 62.4395C79.5943 62.0742 79.0188 61.8916 78.2772 61.8916C77.5136 61.8916 76.7388 62.113 75.953 62.5557C75.1783 62.9873 74.2984 63.6292 73.3134 64.4814L69.7108 60.2646C70.9615 59.1468 72.0129 58.3499 72.8651 57.874C73.7173 57.387 74.6415 57.0163 75.6376 56.7617C76.6447 56.5072 77.7736 56.3799 79.0243 56.3799C80.5959 56.3799 81.996 56.6566 83.2245 57.21C84.4641 57.7633 85.4214 58.5547 86.0966 59.584C86.7828 60.6022 87.1259 61.7477 87.1259 63.0205C87.1259 63.9723 87.0041 64.8522 86.7606 65.6602C86.5282 66.4681 86.163 67.265 85.6649 68.0508C85.1669 68.8255 84.5028 69.6445 83.6727 70.5078C82.8537 71.3711 81.0995 73.0091 78.41 75.4219V75.5879H87.5907V81ZM96.7132 76.0361L96.9456 76.418C95.8721 80.6348 94.8981 83.7393 94.0238 85.7314H89.3919C89.7129 84.2041 90.0338 82.4941 90.3548 80.6016C90.6868 78.6979 90.9137 77.1761 91.0355 76.0361H96.7132ZM108.558 56.3799C111.115 56.3799 113.102 56.8945 114.518 57.9238C115.946 58.9531 116.66 60.4141 116.66 62.3066C116.66 63.5905 116.322 64.7194 115.647 65.6934C114.983 66.6562 113.926 67.4974 112.476 68.2168C114.269 69.235 115.531 70.2533 116.261 71.2715C117.003 72.2786 117.374 73.3688 117.374 74.542C117.374 76.7002 116.594 78.3714 115.033 79.5557C113.472 80.7399 111.292 81.332 108.492 81.332C105.636 81.332 103.451 80.7565 101.934 79.6055C100.418 78.4434 99.6599 76.7777 99.6599 74.6084C99.6599 73.2028 99.9975 72.0075 100.673 71.0225C101.348 70.0264 102.482 69.1243 104.076 68.3164C102.792 67.4531 101.851 66.529 101.254 65.5439C100.667 64.5479 100.374 63.4577 100.374 62.2734C100.374 60.4141 101.099 58.9697 102.549 57.9404C103.998 56.9001 106.002 56.3799 108.558 56.3799ZM105.67 74.3428C105.67 75.029 105.913 75.5824 106.4 76.0029C106.887 76.4124 107.562 76.6172 108.426 76.6172C110.373 76.6172 111.347 75.9033 111.347 74.4756C111.347 73.9333 111.132 73.402 110.7 72.8818C110.279 72.3506 109.521 71.7585 108.426 71.1055C107.441 71.6257 106.732 72.1514 106.301 72.6826C105.88 73.2028 105.67 73.7562 105.67 74.3428ZM108.525 61.1113C107.961 61.1113 107.485 61.2773 107.097 61.6094C106.71 61.9303 106.516 62.3509 106.516 62.8711C106.516 63.8229 107.164 64.6641 108.459 65.3945C109.245 64.9408 109.781 64.5257 110.069 64.1494C110.357 63.7731 110.501 63.347 110.501 62.8711C110.501 62.3398 110.307 61.9137 109.92 61.5928C109.532 61.2718 109.067 61.1113 108.525 61.1113ZM121.483 81L129.817 62.1904H119.308V56.7617H136.822V60.6299L128.273 81H121.483ZM148.518 65.0957C149.913 65.0957 151.169 65.4222 152.287 66.0752C153.416 66.7171 154.29 67.6302 154.91 68.8145C155.541 69.9987 155.856 71.3656 155.856 72.915C155.856 75.6266 155.037 77.7074 153.399 79.1572C151.772 80.6071 149.304 81.332 145.995 81.332C143.161 81.332 140.848 80.8949 139.055 80.0205V74.6416C140.018 75.0843 141.103 75.4495 142.309 75.7373C143.527 76.0251 144.573 76.1689 145.447 76.1689C146.664 76.1689 147.6 75.9144 148.253 75.4053C148.906 74.8851 149.232 74.1214 149.232 73.1143C149.232 72.1846 148.9 71.4596 148.236 70.9395C147.572 70.4193 146.565 70.1592 145.214 70.1592C144.185 70.1592 143.073 70.3529 141.878 70.7402L139.47 69.5449L140.383 56.7285H154.229V62.1904H145.962L145.663 65.3945C146.526 65.2285 147.14 65.14 147.506 65.1289C147.871 65.1068 148.208 65.0957 148.518 65.0957Z" fill="white"/>
<path d="M171 74L177 82H165L171 74Z" fill="#5EFF5A"/>
<path d="M182.888 82H181.78V74.877C181.78 74.2845 181.799 73.724 181.835 73.1953C181.739 73.291 181.632 73.3913 181.514 73.4961C181.395 73.6009 180.853 74.0452 179.887 74.8291L179.285 74.0498L181.931 72.0059H182.888V82ZM193.759 76.9893C193.759 78.7165 193.486 80.0062 192.939 80.8584C192.397 81.7106 191.565 82.1367 190.444 82.1367C189.368 82.1367 188.55 81.7015 187.99 80.8311C187.429 79.9561 187.149 78.6755 187.149 76.9893C187.149 75.2484 187.42 73.9564 187.962 73.1133C188.505 72.2702 189.332 71.8486 190.444 71.8486C191.529 71.8486 192.351 72.2884 192.912 73.168C193.477 74.0475 193.759 75.3213 193.759 76.9893ZM188.297 76.9893C188.297 78.443 188.468 79.5026 188.81 80.168C189.152 80.8288 189.697 81.1592 190.444 81.1592C191.2 81.1592 191.747 80.8242 192.085 80.1543C192.426 79.4798 192.597 78.4248 192.597 76.9893C192.597 75.5537 192.426 74.5033 192.085 73.8379C191.747 73.168 191.2 72.833 190.444 72.833C189.697 72.833 189.152 73.1634 188.81 73.8242C188.468 74.4805 188.297 75.5355 188.297 76.9893ZM196.558 74.9863C196.558 75.7611 196.642 76.3421 196.811 76.7295C196.979 77.1169 197.253 77.3105 197.631 77.3105C198.378 77.3105 198.752 76.5358 198.752 74.9863C198.752 73.446 198.378 72.6758 197.631 72.6758C197.253 72.6758 196.979 72.8672 196.811 73.25C196.642 73.6328 196.558 74.2116 196.558 74.9863ZM199.689 74.9863C199.689 76.0254 199.513 76.8115 199.162 77.3447C198.816 77.8734 198.305 78.1377 197.631 78.1377C196.993 78.1377 196.496 77.8665 196.141 77.3242C195.79 76.7819 195.614 76.0026 195.614 74.9863C195.614 73.9518 195.783 73.1725 196.12 72.6484C196.462 72.1243 196.966 71.8623 197.631 71.8623C198.292 71.8623 198.8 72.1335 199.155 72.6758C199.511 73.2181 199.689 73.9883 199.689 74.9863ZM202.573 78.9922C202.573 79.7715 202.658 80.3548 202.826 80.7422C202.995 81.125 203.271 81.3164 203.653 81.3164C204.036 81.3164 204.319 81.1273 204.501 80.749C204.683 80.3662 204.775 79.7806 204.775 78.9922C204.775 78.2129 204.683 77.6364 204.501 77.2627C204.319 76.8844 204.036 76.6953 203.653 76.6953C203.271 76.6953 202.995 76.8844 202.826 77.2627C202.658 77.6364 202.573 78.2129 202.573 78.9922ZM205.711 78.9922C205.711 80.0267 205.536 80.8105 205.185 81.3438C204.838 81.8724 204.328 82.1367 203.653 82.1367C203.006 82.1367 202.507 81.8656 202.156 81.3232C201.81 80.7809 201.637 80.0039 201.637 78.9922C201.637 77.9577 201.805 77.1784 202.143 76.6543C202.484 76.1302 202.988 75.8682 203.653 75.8682C204.301 75.8682 204.804 76.137 205.164 76.6748C205.529 77.208 205.711 77.9805 205.711 78.9922ZM203.947 72.0059L198.403 82H197.399L202.942 72.0059H203.947Z" fill="#5EFF5A"/>
<path opacity="0.6" d="M34.8457 97.2012C33.9043 97.2012 33.1602 97.5156 32.6133 98.1445C32.0703 98.7695 31.7988 99.627 31.7988 100.717C31.7988 101.838 32.0605 102.705 32.584 103.318C33.1113 103.928 33.8613 104.232 34.834 104.232C35.4316 104.232 36.1133 104.125 36.8789 103.91V104.783C36.2852 105.006 35.5527 105.117 34.6816 105.117C33.4199 105.117 32.4453 104.734 31.7578 103.969C31.0742 103.203 30.7324 102.115 30.7324 100.705C30.7324 99.8223 30.8965 99.0488 31.2246 98.3848C31.5566 97.7207 32.0332 97.209 32.6543 96.8496C33.2793 96.4902 34.0137 96.3105 34.8574 96.3105C35.7559 96.3105 36.541 96.4746 37.2129 96.8027L36.791 97.6582C36.1426 97.3535 35.4941 97.2012 34.8457 97.2012ZM44.5445 101.783C44.5445 102.83 44.2809 103.648 43.7535 104.238C43.2262 104.824 42.4977 105.117 41.568 105.117C40.9938 105.117 40.484 104.982 40.0387 104.713C39.5934 104.443 39.2496 104.057 39.0074 103.553C38.7652 103.049 38.6441 102.459 38.6441 101.783C38.6441 100.736 38.9059 99.9219 39.4293 99.3398C39.9527 98.7539 40.6793 98.4609 41.609 98.4609C42.5074 98.4609 43.2203 98.7598 43.7477 99.3574C44.2789 99.9551 44.5445 100.764 44.5445 101.783ZM39.652 101.783C39.652 102.604 39.816 103.229 40.1441 103.658C40.4723 104.088 40.9547 104.303 41.5914 104.303C42.2281 104.303 42.7105 104.09 43.0387 103.664C43.3707 103.234 43.5367 102.607 43.5367 101.783C43.5367 100.967 43.3707 100.348 43.0387 99.9258C42.7105 99.5 42.2242 99.2871 41.5797 99.2871C40.943 99.2871 40.4625 99.4961 40.1383 99.9141C39.8141 100.332 39.652 100.955 39.652 101.783ZM54.841 105V100.822C54.841 100.311 54.7316 99.9277 54.5129 99.6738C54.2941 99.416 53.9543 99.2871 53.4934 99.2871C52.8879 99.2871 52.4406 99.4609 52.1516 99.8086C51.8625 100.156 51.718 100.691 51.718 101.414V105H50.7453V100.822C50.7453 100.311 50.6359 99.9277 50.4172 99.6738C50.1984 99.416 49.8566 99.2871 49.3918 99.2871C48.7824 99.2871 48.3352 99.4707 48.05 99.8379C47.7688 100.201 47.6281 100.799 47.6281 101.631V105H46.6555V98.5781H47.4465L47.6047 99.457H47.6516C47.8352 99.1445 48.093 98.9004 48.425 98.7246C48.7609 98.5488 49.1359 98.4609 49.55 98.4609C50.5539 98.4609 51.2102 98.8242 51.5188 99.5508H51.5656C51.757 99.2148 52.0344 98.9492 52.3977 98.7539C52.7609 98.5586 53.175 98.4609 53.6398 98.4609C54.3664 98.4609 54.9094 98.6484 55.2688 99.0234C55.632 99.3945 55.8137 99.9902 55.8137 100.811V105H54.841ZM61.2117 105.117C60.7938 105.117 60.4109 105.041 60.0633 104.889C59.7195 104.732 59.4305 104.494 59.1961 104.174H59.1258C59.1727 104.549 59.1961 104.904 59.1961 105.24V107.883H58.2234V98.5781H59.0145L59.1492 99.457H59.1961C59.4461 99.1055 59.7371 98.8516 60.0691 98.6953C60.4012 98.5391 60.782 98.4609 61.2117 98.4609C62.0633 98.4609 62.7195 98.752 63.1805 99.334C63.6453 99.916 63.8777 100.732 63.8777 101.783C63.8777 102.838 63.6414 103.658 63.1688 104.244C62.7 104.826 62.0477 105.117 61.2117 105.117ZM61.0711 99.2871C60.4148 99.2871 59.9402 99.4688 59.6473 99.832C59.3543 100.195 59.2039 100.773 59.1961 101.566V101.783C59.1961 102.686 59.3465 103.332 59.6473 103.723C59.948 104.109 60.4305 104.303 61.0945 104.303C61.6492 104.303 62.0828 104.078 62.3953 103.629C62.7117 103.18 62.8699 102.561 62.8699 101.771C62.8699 100.971 62.7117 100.357 62.3953 99.9316C62.0828 99.502 61.6414 99.2871 61.0711 99.2871ZM69.932 105L69.7387 104.086H69.6918C69.3715 104.488 69.0512 104.762 68.7309 104.906C68.4145 105.047 68.018 105.117 67.5414 105.117C66.9047 105.117 66.4047 104.953 66.0414 104.625C65.682 104.297 65.5023 103.83 65.5023 103.225C65.5023 101.928 66.5395 101.248 68.6137 101.186L69.7035 101.15V100.752C69.7035 100.248 69.5941 99.877 69.3754 99.6387C69.1605 99.3965 68.8148 99.2754 68.3383 99.2754C67.8031 99.2754 67.1977 99.4395 66.5219 99.7676L66.223 99.0234C66.5395 98.8516 66.8852 98.7168 67.2602 98.6191C67.6391 98.5215 68.018 98.4727 68.3969 98.4727C69.1625 98.4727 69.7289 98.6426 70.0961 98.9824C70.4672 99.3223 70.6527 99.8672 70.6527 100.617V105H69.932ZM67.7348 104.314C68.3402 104.314 68.8148 104.148 69.1586 103.816C69.5062 103.484 69.6801 103.02 69.6801 102.422V101.842L68.7074 101.883C67.934 101.91 67.3754 102.031 67.0316 102.246C66.6918 102.457 66.5219 102.787 66.5219 103.236C66.5219 103.588 66.6273 103.855 66.8383 104.039C67.0531 104.223 67.352 104.314 67.7348 104.314ZM75.9922 98.4609C76.2773 98.4609 76.5332 98.4844 76.7598 98.5312L76.625 99.4336C76.3594 99.375 76.125 99.3457 75.9219 99.3457C75.4023 99.3457 74.957 99.5566 74.5859 99.9785C74.2188 100.4 74.0352 100.926 74.0352 101.555V105H73.0625V98.5781H73.8652L73.9766 99.7676H74.0234C74.2617 99.3496 74.5488 99.0273 74.8848 98.8008C75.2207 98.5742 75.5898 98.4609 75.9922 98.4609ZM81.0738 105.117C80.1246 105.117 79.3746 104.828 78.8238 104.25C78.277 103.672 78.0035 102.869 78.0035 101.842C78.0035 100.807 78.2574 99.9844 78.7652 99.375C79.277 98.7656 79.9625 98.4609 80.8219 98.4609C81.6266 98.4609 82.2633 98.7266 82.732 99.2578C83.2008 99.7852 83.4352 100.482 83.4352 101.35V101.965H79.0113C79.0309 102.719 79.2203 103.291 79.5797 103.682C79.943 104.072 80.4527 104.268 81.109 104.268C81.8004 104.268 82.484 104.123 83.1598 103.834V104.701C82.816 104.85 82.4898 104.955 82.1813 105.018C81.8766 105.084 81.5074 105.117 81.0738 105.117ZM80.8102 99.2754C80.2945 99.2754 79.8824 99.4434 79.5738 99.7793C79.2691 100.115 79.0895 100.58 79.0348 101.174H82.3922C82.3922 100.561 82.2555 100.092 81.982 99.7676C81.7086 99.4395 81.318 99.2754 80.8102 99.2754ZM89.8703 104.139H89.8176C89.3684 104.791 88.6965 105.117 87.802 105.117C86.9621 105.117 86.3078 104.83 85.8391 104.256C85.3742 103.682 85.1418 102.865 85.1418 101.807C85.1418 100.748 85.3762 99.9258 85.8449 99.3398C86.3137 98.7539 86.966 98.4609 87.802 98.4609C88.673 98.4609 89.341 98.7773 89.8059 99.4102H89.882L89.841 98.9473L89.8176 98.4961V95.8828H90.7902V105H89.9992L89.8703 104.139ZM87.925 104.303C88.5891 104.303 89.0695 104.123 89.3664 103.764C89.6672 103.4 89.8176 102.816 89.8176 102.012V101.807C89.8176 100.896 89.6652 100.248 89.3605 99.8613C89.0598 99.4707 88.5773 99.2754 87.9133 99.2754C87.343 99.2754 86.9055 99.498 86.6008 99.9434C86.3 100.385 86.1496 101.01 86.1496 101.818C86.1496 102.639 86.3 103.258 86.6008 103.676C86.9016 104.094 87.343 104.303 87.925 104.303ZM98.85 104.314C99.0219 104.314 99.1879 104.303 99.348 104.279C99.5082 104.252 99.6352 104.225 99.7289 104.197V104.941C99.6234 104.992 99.4672 105.033 99.2602 105.064C99.057 105.1 98.8734 105.117 98.7094 105.117C97.4672 105.117 96.8461 104.463 96.8461 103.154V99.334H95.9262V98.8652L96.8461 98.4609L97.2562 97.0898H97.8187V98.5781H99.682V99.334H97.8187V103.113C97.8187 103.5 97.9105 103.797 98.0941 104.004C98.2777 104.211 98.5297 104.314 98.85 104.314ZM106.961 101.783C106.961 102.83 106.697 103.648 106.17 104.238C105.643 104.824 104.914 105.117 103.984 105.117C103.41 105.117 102.9 104.982 102.455 104.713C102.01 104.443 101.666 104.057 101.424 103.553C101.182 103.049 101.061 102.459 101.061 101.783C101.061 100.736 101.322 99.9219 101.846 99.3398C102.369 98.7539 103.096 98.4609 104.025 98.4609C104.924 98.4609 105.637 98.7598 106.164 99.3574C106.695 99.9551 106.961 100.764 106.961 101.783ZM102.068 101.783C102.068 102.604 102.232 103.229 102.561 103.658C102.889 104.088 103.371 104.303 104.008 104.303C104.645 104.303 105.127 104.09 105.455 103.664C105.787 103.234 105.953 102.607 105.953 101.783C105.953 100.967 105.787 100.348 105.455 99.9258C105.127 99.5 104.641 99.2871 103.996 99.2871C103.359 99.2871 102.879 99.4961 102.555 99.9141C102.23 100.332 102.068 100.955 102.068 101.783ZM117.628 102.369C117.628 102.9 117.429 103.34 117.03 103.688C116.632 104.031 116.075 104.248 115.361 104.338V105.697H114.605V104.391C114.167 104.391 113.743 104.357 113.333 104.291C112.923 104.221 112.587 104.125 112.325 104.004V103.09C112.65 103.234 113.023 103.354 113.445 103.447C113.87 103.537 114.257 103.582 114.605 103.582V101.004C113.804 100.75 113.241 100.455 112.917 100.119C112.597 99.7832 112.437 99.3496 112.437 98.8184C112.437 98.3066 112.634 97.8867 113.029 97.5586C113.427 97.2305 113.952 97.0312 114.605 96.9609V95.8945H115.361V96.9492C116.079 96.9688 116.773 97.1133 117.441 97.3828L117.136 98.1504C116.554 97.9199 115.962 97.7832 115.361 97.7402V100.283C115.974 100.479 116.433 100.67 116.738 100.857C117.042 101.041 117.267 101.254 117.411 101.496C117.556 101.734 117.628 102.025 117.628 102.369ZM116.632 102.445C116.632 102.164 116.544 101.938 116.368 101.766C116.196 101.59 115.861 101.416 115.361 101.244V103.523C116.208 103.406 116.632 103.047 116.632 102.445ZM113.427 98.8066C113.427 99.1035 113.515 99.3418 113.691 99.5215C113.866 99.7012 114.171 99.8711 114.605 100.031V97.7637C114.218 97.8262 113.925 97.9492 113.726 98.1328C113.527 98.3125 113.427 98.5371 113.427 98.8066ZM125.042 105H119.411V104.162L121.667 101.895C122.354 101.199 122.807 100.703 123.026 100.406C123.245 100.109 123.409 99.8203 123.518 99.5391C123.628 99.2578 123.682 98.9551 123.682 98.6309C123.682 98.1738 123.544 97.8125 123.266 97.5469C122.989 97.2773 122.604 97.1426 122.112 97.1426C121.757 97.1426 121.419 97.2012 121.098 97.3184C120.782 97.4355 120.429 97.6484 120.038 97.957L119.522 97.2949C120.311 96.6387 121.171 96.3105 122.1 96.3105C122.905 96.3105 123.536 96.5176 123.993 96.9316C124.45 97.3418 124.679 97.8945 124.679 98.5898C124.679 99.1328 124.526 99.6699 124.221 100.201C123.917 100.732 123.346 101.404 122.511 102.217L120.636 104.051V104.098H125.042V105ZM130.282 105H129.332V98.8945C129.332 98.3867 129.348 97.9062 129.379 97.4531C129.297 97.5352 129.205 97.6211 129.104 97.7109C129.002 97.8008 128.537 98.1816 127.709 98.8535L127.194 98.1855L129.461 96.4336H130.282V105ZM135.41 103.605L135.498 103.74C135.396 104.131 135.25 104.584 135.059 105.1C134.867 105.619 134.668 106.102 134.461 106.547H133.729C133.834 106.141 133.949 105.639 134.074 105.041C134.203 104.443 134.293 103.965 134.344 103.605H135.41ZM143.322 103.031H142.05V105H141.119V103.031H136.953V102.182L141.019 96.3867H142.05V102.146H143.322V103.031ZM141.119 102.146V99.2988C141.119 98.7402 141.138 98.1094 141.177 97.4062H141.13C140.943 97.7812 140.767 98.0918 140.603 98.3379L137.925 102.146H141.119ZM150.185 100.09C150.185 103.441 148.888 105.117 146.294 105.117C145.841 105.117 145.482 105.078 145.216 105V104.162C145.529 104.264 145.884 104.314 146.282 104.314C147.22 104.314 147.927 104.025 148.404 103.447C148.884 102.865 149.146 101.975 149.189 100.775H149.118C148.904 101.1 148.618 101.348 148.263 101.52C147.907 101.688 147.507 101.771 147.062 101.771C146.304 101.771 145.702 101.545 145.257 101.092C144.812 100.639 144.589 100.006 144.589 99.1934C144.589 98.3027 144.837 97.5996 145.333 97.084C145.833 96.5684 146.489 96.3105 147.302 96.3105C147.884 96.3105 148.392 96.4609 148.825 96.7617C149.263 97.0586 149.599 97.4941 149.833 98.0684C150.068 98.6387 150.185 99.3125 150.185 100.09ZM147.302 97.1426C146.743 97.1426 146.312 97.3223 146.007 97.6816C145.702 98.041 145.55 98.541 145.55 99.1816C145.55 99.7441 145.691 100.188 145.972 100.512C146.253 100.832 146.681 100.992 147.255 100.992C147.611 100.992 147.937 100.92 148.234 100.775C148.534 100.631 148.771 100.434 148.943 100.184C149.114 99.9336 149.2 99.6719 149.2 99.3984C149.2 98.9883 149.12 98.6094 148.96 98.2617C148.8 97.9141 148.575 97.6406 148.286 97.4414C148.001 97.2422 147.673 97.1426 147.302 97.1426ZM157.499 100.705C157.499 102.186 157.264 103.291 156.796 104.021C156.331 104.752 155.618 105.117 154.657 105.117C153.735 105.117 153.034 104.744 152.554 103.998C152.073 103.248 151.833 102.15 151.833 100.705C151.833 99.2129 152.065 98.1055 152.53 97.3828C152.995 96.6602 153.704 96.2988 154.657 96.2988C155.587 96.2988 156.292 96.6758 156.772 97.4297C157.257 98.1836 157.499 99.2754 157.499 100.705ZM152.817 100.705C152.817 101.951 152.964 102.859 153.257 103.43C153.55 103.996 154.016 104.279 154.657 104.279C155.305 104.279 155.774 103.992 156.063 103.418C156.356 102.84 156.503 101.936 156.503 100.705C156.503 99.4746 156.356 98.5742 156.063 98.0039C155.774 97.4297 155.305 97.1426 154.657 97.1426C154.016 97.1426 153.55 97.4258 153.257 97.9922C152.964 98.5547 152.817 99.459 152.817 100.705ZM164.023 105H163.051V95.8828H164.023V105ZM170.435 105L170.242 104.086H170.195C169.875 104.488 169.554 104.762 169.234 104.906C168.918 105.047 168.521 105.117 168.045 105.117C167.408 105.117 166.908 104.953 166.545 104.625C166.185 104.297 166.005 103.83 166.005 103.225C166.005 101.928 167.043 101.248 169.117 101.186L170.207 101.15V100.752C170.207 100.248 170.097 99.877 169.879 99.6387C169.664 99.3965 169.318 99.2754 168.841 99.2754C168.306 99.2754 167.701 99.4395 167.025 99.7676L166.726 99.0234C167.043 98.8516 167.388 98.7168 167.763 98.6191C168.142 98.5215 168.521 98.4727 168.9 98.4727C169.666 98.4727 170.232 98.6426 170.599 98.9824C170.97 99.3223 171.156 99.8672 171.156 100.617V105H170.435ZM168.238 104.314C168.843 104.314 169.318 104.148 169.662 103.816C170.009 103.484 170.183 103.02 170.183 102.422V101.842L169.211 101.883C168.437 101.91 167.879 102.031 167.535 102.246C167.195 102.457 167.025 102.787 167.025 103.236C167.025 103.588 167.13 103.855 167.341 104.039C167.556 104.223 167.855 104.314 168.238 104.314ZM177.708 103.248C177.708 103.846 177.486 104.307 177.04 104.631C176.595 104.955 175.97 105.117 175.165 105.117C174.314 105.117 173.65 104.982 173.173 104.713V103.811C173.482 103.967 173.812 104.09 174.163 104.18C174.519 104.27 174.861 104.314 175.189 104.314C175.696 104.314 176.087 104.234 176.361 104.074C176.634 103.91 176.771 103.662 176.771 103.33C176.771 103.08 176.661 102.867 176.443 102.691C176.228 102.512 175.806 102.301 175.177 102.059C174.579 101.836 174.154 101.643 173.9 101.479C173.65 101.311 173.462 101.121 173.337 100.91C173.216 100.699 173.155 100.447 173.155 100.154C173.155 99.6309 173.368 99.2188 173.794 98.918C174.22 98.6133 174.804 98.4609 175.546 98.4609C176.238 98.4609 176.913 98.6016 177.573 98.8828L177.228 99.6738C176.583 99.4082 175.999 99.2754 175.476 99.2754C175.015 99.2754 174.667 99.3477 174.433 99.4922C174.198 99.6367 174.081 99.8359 174.081 100.09C174.081 100.262 174.124 100.408 174.21 100.529C174.3 100.65 174.443 100.766 174.638 100.875C174.833 100.984 175.208 101.143 175.763 101.35C176.525 101.627 177.038 101.906 177.304 102.188C177.573 102.469 177.708 102.822 177.708 103.248ZM181.77 104.314C181.942 104.314 182.108 104.303 182.268 104.279C182.429 104.252 182.555 104.225 182.649 104.197V104.941C182.544 104.992 182.387 105.033 182.18 105.064C181.977 105.1 181.794 105.117 181.63 105.117C180.387 105.117 179.766 104.463 179.766 103.154V99.334H178.846V98.8652L179.766 98.4609L180.177 97.0898H180.739V98.5781H182.602V99.334H180.739V103.113C180.739 103.5 180.831 103.797 181.014 104.004C181.198 104.211 181.45 104.314 181.77 104.314ZM186.836 98.5781H187.879L189.285 102.24C189.594 103.076 189.785 103.68 189.859 104.051H189.906C189.957 103.852 190.062 103.512 190.223 103.031C190.387 102.547 190.918 101.062 191.816 98.5781H192.859L190.1 105.891C189.826 106.613 189.506 107.125 189.139 107.426C188.775 107.73 188.328 107.883 187.797 107.883C187.5 107.883 187.207 107.85 186.918 107.783V107.004C187.133 107.051 187.373 107.074 187.639 107.074C188.307 107.074 188.783 106.699 189.068 105.949L189.426 105.035L186.836 98.5781ZM197.015 105.117C196.066 105.117 195.316 104.828 194.765 104.25C194.218 103.672 193.945 102.869 193.945 101.842C193.945 100.807 194.199 99.9844 194.707 99.375C195.218 98.7656 195.904 98.4609 196.763 98.4609C197.568 98.4609 198.205 98.7266 198.673 99.2578C199.142 99.7852 199.377 100.482 199.377 101.35V101.965H194.953C194.972 102.719 195.162 103.291 195.521 103.682C195.884 104.072 196.394 104.268 197.05 104.268C197.742 104.268 198.425 104.123 199.101 103.834V104.701C198.757 104.85 198.431 104.955 198.123 105.018C197.818 105.084 197.449 105.117 197.015 105.117ZM196.752 99.2754C196.236 99.2754 195.824 99.4434 195.515 99.7793C195.211 100.115 195.031 100.58 194.976 101.174H198.334C198.334 100.561 198.197 100.092 197.923 99.7676C197.65 99.4395 197.259 99.2754 196.752 99.2754ZM205.39 105L205.196 104.086H205.15C204.829 104.488 204.509 104.762 204.189 104.906C203.872 105.047 203.476 105.117 202.999 105.117C202.363 105.117 201.863 104.953 201.499 104.625C201.14 104.297 200.96 103.83 200.96 103.225C200.96 101.928 201.997 101.248 204.071 101.186L205.161 101.15V100.752C205.161 100.248 205.052 99.877 204.833 99.6387C204.618 99.3965 204.273 99.2754 203.796 99.2754C203.261 99.2754 202.655 99.4395 201.98 99.7676L201.681 99.0234C201.997 98.8516 202.343 98.7168 202.718 98.6191C203.097 98.5215 203.476 98.4727 203.855 98.4727C204.62 98.4727 205.187 98.6426 205.554 98.9824C205.925 99.3223 206.111 99.8672 206.111 100.617V105H205.39ZM203.193 104.314C203.798 104.314 204.273 104.148 204.616 103.816C204.964 103.484 205.138 103.02 205.138 102.422V101.842L204.165 101.883C203.392 101.91 202.833 102.031 202.489 102.246C202.15 102.457 201.98 102.787 201.98 103.236C201.98 103.588 202.085 103.855 202.296 104.039C202.511 104.223 202.81 104.314 203.193 104.314ZM211.45 98.4609C211.735 98.4609 211.991 98.4844 212.218 98.5312L212.083 99.4336C211.817 99.375 211.583 99.3457 211.38 99.3457C210.86 99.3457 210.415 99.5566 210.044 99.9785C209.677 100.4 209.493 100.926 209.493 101.555V105H208.52V98.5781H209.323L209.434 99.7676H209.481C209.72 99.3496 210.007 99.0273 210.343 98.8008C210.679 98.5742 211.048 98.4609 211.45 98.4609Z" fill="white"/>
</svg>
