<svg width="270" height="210" viewBox="0 0 290 230" fill="none" xmlns="http://www.w3.org/2000/svg">
<rect width="290" height="230" rx="10" fill="#191932"/>
<path d="M34.4502 35H33.2881V26.0381H30.123V25.0059H37.6152V26.0381H34.4502V35ZM42.813 27.3711C43.1457 27.3711 43.4442 27.3984 43.7086 27.4531L43.5513 28.5059C43.2414 28.4375 42.968 28.4033 42.731 28.4033C42.1249 28.4033 41.6054 28.6494 41.1724 29.1416C40.744 29.6338 40.5298 30.2467 40.5298 30.9805V35H39.3951V27.5078H40.3316L40.4615 28.8955H40.5162C40.7942 28.4079 41.1291 28.0319 41.5211 27.7676C41.913 27.5033 42.3436 27.3711 42.813 27.3711ZM50.1573 35L49.9318 33.9336H49.8771C49.5034 34.403 49.1297 34.722 48.756 34.8906C48.3868 35.0547 47.9243 35.1367 47.3683 35.1367C46.6254 35.1367 46.0421 34.9453 45.6183 34.5625C45.199 34.1797 44.9894 33.6351 44.9894 32.9287C44.9894 31.4157 46.1993 30.6227 48.6193 30.5498L49.8907 30.5088V30.0439C49.8907 29.4561 49.7631 29.0231 49.5079 28.7451C49.2573 28.4626 48.854 28.3213 48.298 28.3213C47.6736 28.3213 46.9672 28.5127 46.1788 28.8955L45.8302 28.0273C46.1993 27.8268 46.6027 27.6696 47.0402 27.5557C47.4822 27.4417 47.9243 27.3848 48.3663 27.3848C49.2596 27.3848 49.9204 27.583 50.3488 27.9795C50.7817 28.376 50.9982 29.0117 50.9982 29.8867V35H50.1573ZM47.5939 34.2002C48.3002 34.2002 48.854 34.0065 49.255 33.6191C49.6606 33.2318 49.8634 32.6895 49.8634 31.9922V31.3154L48.7286 31.3633C47.8263 31.3952 47.1746 31.5365 46.7736 31.7871C46.3771 32.0332 46.1788 32.4183 46.1788 32.9424C46.1788 33.3525 46.3019 33.6647 46.548 33.8789C46.7986 34.0931 47.1473 34.2002 47.5939 34.2002ZM55.4235 35L52.5798 27.5078H53.7966L55.4098 31.9512C55.7744 32.9902 55.9886 33.6647 56.0524 33.9746H56.1071C56.1572 33.7331 56.3145 33.234 56.5788 32.4775C56.8477 31.7165 57.447 30.0599 58.3766 27.5078H59.5934L56.7497 35H55.4235ZM64.4016 35.1367C63.2942 35.1367 62.4192 34.7995 61.7766 34.125C61.1386 33.4505 60.8196 32.514 60.8196 31.3154C60.8196 30.1077 61.1158 29.1484 61.7082 28.4375C62.3052 27.7266 63.1051 27.3711 64.1077 27.3711C65.0465 27.3711 65.7893 27.681 66.3362 28.3008C66.883 28.916 67.1565 29.7295 67.1565 30.7412V31.459H61.9954C62.0181 32.3385 62.2392 33.0062 62.6584 33.4619C63.0823 33.9176 63.677 34.1455 64.4426 34.1455C65.2493 34.1455 66.0468 33.9769 66.8352 33.6396V34.6514C66.4342 34.8245 66.0536 34.9476 65.6936 35.0205C65.3381 35.098 64.9075 35.1367 64.4016 35.1367ZM64.094 28.3213C63.4924 28.3213 63.0116 28.5173 62.6516 28.9092C62.2961 29.3011 62.0865 29.8434 62.0227 30.5361H65.9397C65.9397 29.8206 65.7802 29.2738 65.4612 28.8955C65.1422 28.5127 64.6864 28.3213 64.094 28.3213ZM70.6727 35H69.5379V24.3633H70.6727V35Z" fill="white"/>
<path d="M135.948 35L140.091 26.0518H134.643V25.0059H141.294V25.915L137.206 35H135.948ZM143.252 30.7275C143.252 28.7633 143.632 27.2959 144.393 26.3252C145.159 25.3499 146.289 24.8623 147.784 24.8623C148.299 24.8623 148.704 24.9056 149.001 24.9922V25.9697C148.65 25.8558 148.249 25.7988 147.797 25.7988C146.726 25.7988 145.908 26.1338 145.343 26.8037C144.778 27.4691 144.468 28.5173 144.414 29.9482H144.496C144.997 29.1644 145.79 28.7725 146.875 28.7725C147.772 28.7725 148.479 29.0436 148.994 29.5859C149.513 30.1283 149.773 30.8643 149.773 31.7939C149.773 32.833 149.488 33.651 148.919 34.248C148.353 34.8405 147.588 35.1367 146.622 35.1367C145.587 35.1367 144.767 34.7493 144.161 33.9746C143.555 33.1953 143.252 32.113 143.252 30.7275ZM146.608 34.1729C147.255 34.1729 147.756 33.9701 148.112 33.5645C148.472 33.1543 148.652 32.5641 148.652 31.7939C148.652 31.1331 148.486 30.6136 148.153 30.2354C147.82 29.8571 147.323 29.668 146.663 29.668C146.252 29.668 145.877 29.7523 145.535 29.9209C145.193 30.0895 144.919 30.3219 144.714 30.6182C144.514 30.9144 144.414 31.222 144.414 31.541C144.414 32.0104 144.505 32.4479 144.687 32.8535C144.869 33.2591 145.127 33.5804 145.46 33.8174C145.797 34.0544 146.18 34.1729 146.608 34.1729ZM158.211 29.9893C158.211 31.7165 157.938 33.0062 157.391 33.8584C156.848 34.7106 156.017 35.1367 154.896 35.1367C153.82 35.1367 153.002 34.7015 152.442 33.8311C151.881 32.9561 151.601 31.6755 151.601 29.9893C151.601 28.2484 151.872 26.9564 152.414 26.1133C152.956 25.2702 153.784 24.8486 154.896 24.8486C155.98 24.8486 156.803 25.2884 157.363 26.168C157.929 27.0475 158.211 28.3213 158.211 29.9893ZM152.749 29.9893C152.749 31.443 152.92 32.5026 153.262 33.168C153.604 33.8288 154.148 34.1592 154.896 34.1592C155.652 34.1592 156.199 33.8242 156.536 33.1543C156.878 32.4798 157.049 31.4248 157.049 29.9893C157.049 28.5537 156.878 27.5033 156.536 26.8379C156.199 26.168 155.652 25.833 154.896 25.833C154.148 25.833 153.604 26.1634 153.262 26.8242C152.92 27.4805 152.749 28.5355 152.749 29.9893Z" fill="#9292C1"/>
<path d="M197.253 35H190.684V34.0225L193.315 31.377C194.118 30.5658 194.646 29.987 194.901 29.6406C195.157 29.2943 195.348 28.957 195.476 28.6289C195.603 28.3008 195.667 27.9476 195.667 27.5693C195.667 27.0361 195.505 26.6146 195.182 26.3047C194.858 25.9902 194.409 25.833 193.835 25.833C193.42 25.833 193.026 25.9014 192.652 26.0381C192.283 26.1748 191.871 26.4232 191.415 26.7832L190.813 26.0107C191.734 25.2451 192.737 24.8623 193.821 24.8623C194.76 24.8623 195.496 25.1038 196.029 25.5869C196.562 26.0654 196.829 26.7103 196.829 27.5215C196.829 28.1549 196.651 28.7816 196.296 29.4014C195.94 30.0212 195.275 30.805 194.3 31.7529L192.112 33.8926V33.9473H197.253V35ZM200.844 33.373L200.947 33.5303C200.828 33.986 200.657 34.5146 200.434 35.1162C200.211 35.7223 199.978 36.2852 199.737 36.8047H198.882C199.005 36.3307 199.14 35.7451 199.286 35.0479C199.436 34.3506 199.541 33.7923 199.6 33.373H200.844ZM206.131 28.8955C207.184 28.8955 208.011 29.1576 208.612 29.6816C209.219 30.2012 209.522 30.9144 209.522 31.8213C209.522 32.8558 209.191 33.667 208.53 34.2549C207.874 34.8428 206.967 35.1367 205.81 35.1367C204.684 35.1367 203.825 34.9567 203.233 34.5967V33.5029C203.552 33.708 203.948 33.8698 204.422 33.9883C204.896 34.1022 205.363 34.1592 205.823 34.1592C206.625 34.1592 207.248 33.9701 207.69 33.5918C208.136 33.2135 208.359 32.6667 208.359 31.9512C208.359 30.5566 207.505 29.8594 205.796 29.8594C205.363 29.8594 204.784 29.9255 204.06 30.0576L203.472 29.6816L203.848 25.0059H208.818V26.0518H204.818L204.566 29.0527C205.09 28.9479 205.611 28.8955 206.131 28.8955ZM218.5 32.7031H217.016V35H215.929V32.7031H211.069V31.7119L215.813 24.9512H217.016V31.6709H218.5V32.7031ZM215.929 31.6709V28.3486C215.929 27.6969 215.952 26.9609 215.998 26.1406H215.943C215.724 26.5781 215.519 26.9404 215.328 27.2275L212.204 31.6709H215.929ZM226.534 29.9893C226.534 31.7165 226.261 33.0062 225.714 33.8584C225.172 34.7106 224.34 35.1367 223.219 35.1367C222.143 35.1367 221.325 34.7015 220.765 33.8311C220.204 32.9561 219.924 31.6755 219.924 29.9893C219.924 28.2484 220.195 26.9564 220.738 26.1133C221.28 25.2702 222.107 24.8486 223.219 24.8486C224.304 24.8486 225.126 25.2884 225.687 26.168C226.252 27.0475 226.534 28.3213 226.534 29.9893ZM221.073 29.9893C221.073 31.443 221.243 32.5026 221.585 33.168C221.927 33.8288 222.472 34.1592 223.219 34.1592C223.975 34.1592 224.522 33.8242 224.86 33.1543C225.201 32.4798 225.372 31.4248 225.372 29.9893C225.372 28.5537 225.201 27.5033 224.86 26.8379C224.522 26.168 223.975 25.833 223.219 25.833C222.472 25.833 221.927 26.1634 221.585 26.8242C221.243 27.4805 221.073 28.5355 221.073 29.9893Z" fill="white"/>
<g clip-path="url(#clip0_569_686)">
<path d="M253 27L259 35H247L253 27Z" fill="#00B929"/>
</g>
<path d="M37.7109 61.918C37.7109 62.9297 37.3646 63.709 36.6719 64.2559C35.9837 64.7982 34.9971 65.0693 33.7119 65.0693H32.5361V69H31.374V59.0059H33.9648C36.4622 59.0059 37.7109 59.9766 37.7109 61.918ZM32.5361 64.0713H33.582C34.612 64.0713 35.3571 63.9049 35.8174 63.5723C36.2777 63.2396 36.5078 62.7064 36.5078 61.9727C36.5078 61.3118 36.2913 60.8197 35.8584 60.4961C35.4255 60.1725 34.751 60.0107 33.835 60.0107H32.5361V64.0713ZM43.4966 61.3711C43.8293 61.3711 44.1278 61.3984 44.3921 61.4531L44.2349 62.5059C43.925 62.4375 43.6516 62.4033 43.4146 62.4033C42.8085 62.4033 42.289 62.6494 41.856 63.1416C41.4276 63.6338 41.2134 64.2467 41.2134 64.9805V69H40.0787V61.5078H41.0152L41.1451 62.8955H41.1998C41.4778 62.4079 41.8127 62.0319 42.2046 61.7676C42.5966 61.5033 43.0272 61.3711 43.4966 61.3711ZM49.3986 69.1367C48.2911 69.1367 47.4161 68.7995 46.7736 68.125C46.1355 67.4505 45.8165 66.514 45.8165 65.3154C45.8165 64.1077 46.1127 63.1484 46.7052 62.4375C47.3022 61.7266 48.102 61.3711 49.1046 61.3711C50.0434 61.3711 50.7863 61.681 51.3331 62.3008C51.88 62.916 52.1534 63.7295 52.1534 64.7412V65.459H46.9923C47.0151 66.3385 47.2361 67.0062 47.6554 67.4619C48.0792 67.9176 48.6739 68.1455 49.4396 68.1455C50.2462 68.1455 51.0437 67.9769 51.8321 67.6396V68.6514C51.4311 68.8245 51.0506 68.9476 50.6905 69.0205C50.3351 69.098 49.9044 69.1367 49.3986 69.1367ZM49.0909 62.3213C48.4894 62.3213 48.0086 62.5173 47.6486 62.9092C47.2931 63.3011 47.0835 63.8434 47.0196 64.5361H50.9366C50.9366 63.8206 50.7771 63.2738 50.4581 62.8955C50.1391 62.5127 49.6834 62.3213 49.0909 62.3213ZM59.3679 66.9561C59.3679 67.6533 59.1081 68.1911 58.5886 68.5693C58.069 68.9476 57.3399 69.1367 56.4011 69.1367C55.4076 69.1367 54.6328 68.9795 54.0768 68.665V67.6123C54.4369 67.7946 54.822 67.9382 55.2321 68.043C55.6468 68.1478 56.0456 68.2002 56.4284 68.2002C57.0208 68.2002 57.4766 68.1068 57.7956 67.9199C58.1146 67.7285 58.2741 67.4391 58.2741 67.0518C58.2741 66.7601 58.1465 66.5117 57.8913 66.3066C57.6406 66.097 57.1485 65.8509 56.4147 65.5684C55.7175 65.3086 55.2207 65.083 54.9245 64.8916C54.6328 64.6956 54.4141 64.4746 54.2682 64.2285C54.127 63.9824 54.0563 63.6885 54.0563 63.3467C54.0563 62.736 54.3047 62.2552 54.8014 61.9043C55.2982 61.5488 55.9795 61.3711 56.8454 61.3711C57.652 61.3711 58.4404 61.5352 59.2106 61.8633L58.8073 62.7861C58.0554 62.4762 57.374 62.3213 56.7634 62.3213C56.2256 62.3213 55.82 62.4056 55.5466 62.5742C55.2731 62.7428 55.1364 62.9753 55.1364 63.2715C55.1364 63.472 55.1865 63.6429 55.2868 63.7842C55.3916 63.9255 55.558 64.0599 55.7858 64.1875C56.0137 64.3151 56.4512 64.4997 57.0983 64.7412C57.987 65.0648 58.5863 65.3906 58.8962 65.7188C59.2106 66.0469 59.3679 66.4593 59.3679 66.9561ZM64.8254 69.1367C63.718 69.1367 62.843 68.7995 62.2004 68.125C61.5624 67.4505 61.2434 66.514 61.2434 65.3154C61.2434 64.1077 61.5396 63.1484 62.1321 62.4375C62.7291 61.7266 63.5289 61.3711 64.5315 61.3711C65.4703 61.3711 66.2131 61.681 66.76 62.3008C67.3069 62.916 67.5803 63.7295 67.5803 64.7412V65.459H62.4192C62.442 66.3385 62.663 67.0062 63.0823 67.4619C63.5061 67.9176 64.1008 68.1455 64.8664 68.1455C65.6731 68.1455 66.4706 67.9769 67.259 67.6396V68.6514C66.858 68.8245 66.4774 68.9476 66.1174 69.0205C65.762 69.098 65.3313 69.1367 64.8254 69.1367ZM64.5178 62.3213C63.9163 62.3213 63.4355 62.5173 63.0754 62.9092C62.72 63.3011 62.5103 63.8434 62.4465 64.5361H66.3635C66.3635 63.8206 66.204 63.2738 65.885 62.8955C65.566 62.5127 65.1103 62.3213 64.5178 62.3213ZM75.0887 69V64.1533C75.0887 63.5426 74.9497 63.0869 74.6717 62.7861C74.3937 62.4854 73.9585 62.335 73.366 62.335C72.5822 62.335 72.0079 62.5469 71.6434 62.9707C71.2788 63.3945 71.0965 64.0941 71.0965 65.0693V69H69.9617V61.5078H70.8846L71.0691 62.5332H71.1238C71.3563 62.1641 71.6821 61.8792 72.1014 61.6787C72.5206 61.4736 72.9878 61.3711 73.5027 61.3711C74.4051 61.3711 75.0841 61.5898 75.5398 62.0273C75.9956 62.4603 76.2234 63.1553 76.2234 64.1123V69H75.0887ZM81.4212 68.2002C81.6218 68.2002 81.8155 68.1865 82.0023 68.1592C82.1892 68.1273 82.3373 68.0954 82.4466 68.0635V68.9316C82.3236 68.9909 82.1413 69.0387 81.8998 69.0752C81.6628 69.1162 81.4486 69.1367 81.2572 69.1367C79.808 69.1367 79.0834 68.3734 79.0834 66.8467V62.3896H78.0101V61.8428L79.0834 61.3711L79.5619 59.7715H80.2181V61.5078H82.392V62.3896H80.2181V66.7988C80.2181 67.25 80.3252 67.5964 80.5394 67.8379C80.7536 68.0794 81.0476 68.2002 81.4212 68.2002ZM88.998 69L88.7724 67.9336H88.7177C88.344 68.403 87.9703 68.722 87.5966 68.8906C87.2275 69.0547 86.7649 69.1367 86.2089 69.1367C85.4661 69.1367 84.8827 68.9453 84.4589 68.5625C84.0396 68.1797 83.83 67.6351 83.83 66.9287C83.83 65.4157 85.04 64.6227 87.4599 64.5498L88.7314 64.5088V64.0439C88.7314 63.4561 88.6038 63.0231 88.3486 62.7451C88.0979 62.4626 87.6946 62.3213 87.1386 62.3213C86.5142 62.3213 85.8079 62.5127 85.0195 62.8955L84.6708 62.0273C85.04 61.8268 85.4433 61.6696 85.8808 61.5557C86.3228 61.4417 86.7649 61.3848 87.207 61.3848C88.1002 61.3848 88.761 61.583 89.1894 61.9795C89.6223 62.376 89.8388 63.0117 89.8388 63.8867V69H88.998ZM86.4345 68.2002C87.1409 68.2002 87.6946 68.0065 88.0956 67.6191C88.5012 67.2318 88.704 66.6895 88.704 65.9922V65.3154L87.5693 65.3633C86.6669 65.3952 86.0152 65.5365 85.6142 65.7871C85.2177 66.0332 85.0195 66.4183 85.0195 66.9424C85.0195 67.3525 85.1425 67.6647 85.3886 67.8789C85.6392 68.0931 85.9879 68.2002 86.4345 68.2002ZM95.0434 68.2002C95.244 68.2002 95.4376 68.1865 95.6245 68.1592C95.8113 68.1273 95.9595 68.0954 96.0688 68.0635V68.9316C95.9458 68.9909 95.7635 69.0387 95.522 69.0752C95.285 69.1162 95.0708 69.1367 94.8794 69.1367C93.4302 69.1367 92.7055 68.3734 92.7055 66.8467V62.3896H91.6323V61.8428L92.7055 61.3711L93.1841 59.7715H93.8403V61.5078H96.0141V62.3896H93.8403V66.7988C93.8403 67.25 93.9474 67.5964 94.1616 67.8379C94.3758 68.0794 94.6697 68.2002 95.0434 68.2002ZM99.1475 69H98.0127V61.5078H99.1475V69ZM97.917 59.4775C97.917 59.2178 97.9808 59.0286 98.1084 58.9102C98.236 58.7871 98.3955 58.7256 98.587 58.7256C98.7692 58.7256 98.9265 58.7871 99.0586 58.9102C99.1908 59.0332 99.2569 59.2223 99.2569 59.4775C99.2569 59.7327 99.1908 59.9242 99.0586 60.0518C98.9265 60.1748 98.7692 60.2363 98.587 60.2363C98.3955 60.2363 98.236 60.1748 98.1084 60.0518C97.9808 59.9242 97.917 59.7327 97.917 59.4775ZM108.461 65.2471C108.461 66.4684 108.153 67.4232 107.538 68.1113C106.922 68.7949 106.073 69.1367 104.988 69.1367C104.318 69.1367 103.723 68.9795 103.204 68.665C102.684 68.3506 102.283 67.8994 102.001 67.3115C101.718 66.7236 101.577 66.0355 101.577 65.2471C101.577 64.0257 101.882 63.0755 102.493 62.3965C103.103 61.7129 103.951 61.3711 105.036 61.3711C106.084 61.3711 106.916 61.7197 107.531 62.417C108.151 63.1143 108.461 64.0576 108.461 65.2471ZM102.753 65.2471C102.753 66.2041 102.944 66.9333 103.327 67.4346C103.71 67.9359 104.272 68.1865 105.015 68.1865C105.758 68.1865 106.321 67.9382 106.704 67.4414C107.091 66.9401 107.285 66.2087 107.285 65.2471C107.285 64.2946 107.091 63.5723 106.704 63.0801C106.321 62.5833 105.754 62.335 105.002 62.335C104.259 62.335 103.698 62.5788 103.32 63.0664C102.942 63.554 102.753 64.2809 102.753 65.2471ZM116.024 69V64.1533C116.024 63.5426 115.885 63.0869 115.607 62.7861C115.329 62.4854 114.893 62.335 114.301 62.335C113.517 62.335 112.943 62.5469 112.578 62.9707C112.214 63.3945 112.031 64.0941 112.031 65.0693V69H110.897V61.5078H111.819L112.004 62.5332H112.059C112.291 62.1641 112.617 61.8792 113.036 61.6787C113.456 61.4736 113.923 61.3711 114.438 61.3711C115.34 61.3711 116.019 61.5898 116.475 62.0273C116.93 62.4603 117.158 63.1553 117.158 64.1123V69H116.024Z" fill="white"/>
<path d="M134.8 64.7275C134.8 62.7633 135.18 61.2959 135.941 60.3252C136.707 59.3499 137.837 58.8623 139.332 58.8623C139.847 58.8623 140.253 58.9056 140.549 58.9922V59.9697C140.198 59.8558 139.797 59.7988 139.346 59.7988C138.275 59.7988 137.457 60.1338 136.892 60.8037C136.326 61.4691 136.017 62.5173 135.962 63.9482H136.044C136.545 63.1644 137.338 62.7725 138.423 62.7725C139.321 62.7725 140.027 63.0436 140.542 63.5859C141.062 64.1283 141.321 64.8643 141.321 65.7939C141.321 66.833 141.036 67.651 140.467 68.248C139.902 68.8405 139.136 69.1367 138.17 69.1367C137.135 69.1367 136.315 68.7493 135.709 67.9746C135.103 67.1953 134.8 66.113 134.8 64.7275ZM138.156 68.1729C138.803 68.1729 139.305 67.9701 139.66 67.5645C140.02 67.1543 140.2 66.5641 140.2 65.7939C140.2 65.1331 140.034 64.6136 139.701 64.2354C139.368 63.8571 138.872 63.668 138.211 63.668C137.801 63.668 137.425 63.7523 137.083 63.9209C136.741 64.0895 136.468 64.3219 136.263 64.6182C136.062 64.9144 135.962 65.222 135.962 65.541C135.962 66.0104 136.053 66.4479 136.235 66.8535C136.418 67.2591 136.675 67.5804 137.008 67.8174C137.345 68.0544 137.728 68.1729 138.156 68.1729ZM146.259 62.8955C147.312 62.8955 148.139 63.1576 148.741 63.6816C149.347 64.2012 149.65 64.9144 149.65 65.8213C149.65 66.8558 149.32 67.667 148.659 68.2549C148.002 68.8428 147.096 69.1367 145.938 69.1367C144.812 69.1367 143.953 68.9567 143.361 68.5967V67.5029C143.68 67.708 144.076 67.8698 144.55 67.9883C145.024 68.1022 145.491 68.1592 145.952 68.1592C146.754 68.1592 147.376 67.9701 147.818 67.5918C148.265 67.2135 148.488 66.6667 148.488 65.9512C148.488 64.5566 147.633 63.8594 145.924 63.8594C145.491 63.8594 144.913 63.9255 144.188 64.0576L143.6 63.6816L143.976 59.0059H148.946V60.0518H144.947L144.694 63.0527C145.218 62.9479 145.74 62.8955 146.259 62.8955ZM158.211 63.9893C158.211 65.7165 157.938 67.0062 157.391 67.8584C156.848 68.7106 156.017 69.1367 154.896 69.1367C153.82 69.1367 153.002 68.7015 152.442 67.8311C151.881 66.9561 151.601 65.6755 151.601 63.9893C151.601 62.2484 151.872 60.9564 152.414 60.1133C152.956 59.2702 153.784 58.8486 154.896 58.8486C155.98 58.8486 156.803 59.2884 157.363 60.168C157.929 61.0475 158.211 62.3213 158.211 63.9893ZM152.749 63.9893C152.749 65.443 152.92 66.5026 153.262 67.168C153.604 67.8288 154.148 68.1592 154.896 68.1592C155.652 68.1592 156.199 67.8242 156.536 67.1543C156.878 66.4798 157.049 65.4248 157.049 63.9893C157.049 62.5537 156.878 61.5033 156.536 60.8379C156.199 60.168 155.652 59.833 154.896 59.833C154.148 59.833 153.604 60.1634 153.262 60.8242C152.92 61.4805 152.749 62.5355 152.749 63.9893Z" fill="#9292C1"/>
<path d="M197.253 69H190.684V68.0225L193.315 65.377C194.118 64.5658 194.646 63.987 194.901 63.6406C195.157 63.2943 195.348 62.957 195.476 62.6289C195.603 62.3008 195.667 61.9476 195.667 61.5693C195.667 61.0361 195.505 60.6146 195.182 60.3047C194.858 59.9902 194.409 59.833 193.835 59.833C193.42 59.833 193.026 59.9014 192.652 60.0381C192.283 60.1748 191.871 60.4232 191.415 60.7832L190.813 60.0107C191.734 59.2451 192.737 58.8623 193.821 58.8623C194.76 58.8623 195.496 59.1038 196.029 59.5869C196.562 60.0654 196.829 60.7103 196.829 61.5215C196.829 62.1549 196.651 62.7816 196.296 63.4014C195.94 64.0212 195.275 64.805 194.3 65.7529L192.112 67.8926V67.9473H197.253V69ZM200.844 67.373L200.947 67.5303C200.828 67.986 200.657 68.5146 200.434 69.1162C200.211 69.7223 199.978 70.2852 199.737 70.8047H198.882C199.005 70.3307 199.14 69.7451 199.286 69.0479C199.436 68.3506 199.541 67.7923 199.6 67.373H200.844ZM209.2 61.3574C209.2 61.9954 209.02 62.5173 208.66 62.9229C208.305 63.3285 207.799 63.5996 207.143 63.7363V63.791C207.945 63.8913 208.54 64.1465 208.927 64.5566C209.314 64.9668 209.508 65.5046 209.508 66.1699C209.508 67.1224 209.178 67.8561 208.517 68.3711C207.856 68.8815 206.917 69.1367 205.7 69.1367C205.172 69.1367 204.686 69.0957 204.244 69.0137C203.807 68.9362 203.381 68.7972 202.966 68.5967V67.5166C203.399 67.7308 203.859 67.8949 204.347 68.0088C204.839 68.1182 205.304 68.1729 205.741 68.1729C207.469 68.1729 208.332 67.4961 208.332 66.1426C208.332 64.9303 207.38 64.3242 205.475 64.3242H204.49V63.3467H205.488C206.268 63.3467 206.885 63.1758 207.341 62.834C207.797 62.4876 208.025 62.0091 208.025 61.3984C208.025 60.9108 207.856 60.528 207.519 60.25C207.186 59.972 206.733 59.833 206.158 59.833C205.721 59.833 205.308 59.8923 204.921 60.0107C204.534 60.1292 204.092 60.348 203.595 60.667L203.021 59.9014C203.431 59.5778 203.902 59.3249 204.436 59.1426C204.973 58.9557 205.539 58.8623 206.131 58.8623C207.102 58.8623 207.856 59.0856 208.394 59.5322C208.931 59.9743 209.2 60.5827 209.2 61.3574ZM218.083 63.9893C218.083 65.7165 217.809 67.0062 217.262 67.8584C216.72 68.7106 215.888 69.1367 214.767 69.1367C213.692 69.1367 212.874 68.7015 212.313 67.8311C211.753 66.9561 211.472 65.6755 211.472 63.9893C211.472 62.2484 211.744 60.9564 212.286 60.1133C212.828 59.2702 213.655 58.8486 214.767 58.8486C215.852 58.8486 216.674 59.2884 217.235 60.168C217.8 61.0475 218.083 62.3213 218.083 63.9893ZM212.621 63.9893C212.621 65.443 212.792 66.5026 213.133 67.168C213.475 67.8288 214.02 68.1592 214.767 68.1592C215.524 68.1592 216.071 67.8242 216.408 67.1543C216.75 66.4798 216.921 65.4248 216.921 63.9893C216.921 62.5537 216.75 61.5033 216.408 60.8379C216.071 60.168 215.524 59.833 214.767 59.833C214.02 59.833 213.475 60.1634 213.133 60.8242C212.792 61.4805 212.621 62.5355 212.621 63.9893ZM226.951 66.7031H225.468V69H224.381V66.7031H219.521V65.7119L224.265 58.9512H225.468V65.6709H226.951V66.7031ZM224.381 65.6709V62.3486C224.381 61.6969 224.404 60.9609 224.449 60.1406H224.395C224.176 60.5781 223.971 60.9404 223.78 61.2275L220.656 65.6709H224.381Z" fill="white"/>
<g clip-path="url(#clip1_569_686)">
<path d="M253 69L247 61L259 61L253 69Z" fill="#FF2D2E"/>
</g>
<path d="M31.374 93.0059H34.1973C35.5234 93.0059 36.4827 93.2041 37.0752 93.6006C37.6676 93.9971 37.9639 94.6237 37.9639 95.4805C37.9639 96.0729 37.7975 96.5628 37.4648 96.9502C37.1367 97.333 36.6559 97.5814 36.0225 97.6953V97.7637C37.54 98.0234 38.2988 98.821 38.2988 100.156C38.2988 101.049 37.9958 101.747 37.3896 102.248C36.7881 102.749 35.945 103 34.8604 103H31.374V93.0059ZM32.5361 97.2852H34.4502C35.2705 97.2852 35.8607 97.1576 36.2207 96.9023C36.5807 96.6426 36.7607 96.2074 36.7607 95.5967C36.7607 95.0361 36.5602 94.6328 36.1592 94.3867C35.7581 94.1361 35.1201 94.0107 34.2451 94.0107H32.5361V97.2852ZM32.5361 98.2695V102.009H34.6211C35.4277 102.009 36.0339 101.854 36.4395 101.544C36.8496 101.229 37.0547 100.74 37.0547 100.074C37.0547 99.4544 36.8451 98.9987 36.4258 98.707C36.0111 98.4154 35.3776 98.2695 34.5254 98.2695H32.5361ZM41.7877 95.5078V100.368C41.7877 100.979 41.9267 101.435 42.2046 101.735C42.4826 102.036 42.9179 102.187 43.5103 102.187C44.2942 102.187 44.8661 101.972 45.2261 101.544C45.5907 101.116 45.773 100.416 45.773 99.4453V95.5078H46.9078V103H45.9712L45.8072 101.995H45.7457C45.5132 102.364 45.1897 102.647 44.775 102.843C44.3648 103.039 43.8954 103.137 43.3668 103.137C42.4553 103.137 41.7717 102.92 41.316 102.487C40.8648 102.054 40.6392 101.362 40.6392 100.409V95.5078H41.7877ZM54.5939 100.956C54.5939 101.653 54.3341 102.191 53.8146 102.569C53.295 102.948 52.5659 103.137 51.6271 103.137C50.6336 103.137 49.8588 102.979 49.3029 102.665V101.612C49.6629 101.795 50.048 101.938 50.4581 102.043C50.8728 102.148 51.2716 102.2 51.6544 102.2C52.2469 102.2 52.7026 102.107 53.0216 101.92C53.3406 101.729 53.5001 101.439 53.5001 101.052C53.5001 100.76 53.3725 100.512 53.1173 100.307C52.8667 100.097 52.3745 99.8509 51.6407 99.5684C50.9435 99.3086 50.4467 99.083 50.1505 98.8916C49.8588 98.6956 49.6401 98.4746 49.4943 98.2285C49.353 97.9824 49.2823 97.6885 49.2823 97.3467C49.2823 96.736 49.5307 96.2552 50.0275 95.9043C50.5242 95.5488 51.2055 95.3711 52.0714 95.3711C52.878 95.3711 53.6665 95.5352 54.4366 95.8633L54.0333 96.7861C53.2814 96.4762 52.6001 96.3213 51.9894 96.3213C51.4516 96.3213 51.046 96.4056 50.7726 96.5742C50.4991 96.7428 50.3624 96.9753 50.3624 97.2715C50.3624 97.472 50.4126 97.6429 50.5128 97.7842C50.6176 97.9255 50.784 98.0599 51.0118 98.1875C51.2397 98.3151 51.6772 98.4997 52.3243 98.7412C53.213 99.0648 53.8123 99.3906 54.1222 99.7188C54.4366 100.047 54.5939 100.459 54.5939 100.956ZM58.0212 103H56.8864V95.5078H58.0212V103ZM56.7907 93.4775C56.7907 93.2178 56.8545 93.0286 56.9821 92.9102C57.1097 92.7871 57.2692 92.7256 57.4606 92.7256C57.6429 92.7256 57.8001 92.7871 57.9323 92.9102C58.0645 93.0332 58.1305 93.2223 58.1305 93.4775C58.1305 93.7327 58.0645 93.9242 57.9323 94.0518C57.8001 94.1748 57.6429 94.2363 57.4606 94.2363C57.2692 94.2363 57.1097 94.1748 56.9821 94.0518C56.8545 93.9242 56.7907 93.7327 56.7907 93.4775ZM65.9944 103V98.1533C65.9944 97.5426 65.8554 97.0869 65.5774 96.7861C65.2994 96.4854 64.8642 96.335 64.2717 96.335C63.4879 96.335 62.9136 96.5469 62.5491 96.9707C62.1845 97.3945 62.0022 98.0941 62.0022 99.0693V103H60.8674V95.5078H61.7903L61.9748 96.5332H62.0295C62.262 96.1641 62.5878 95.8792 63.0071 95.6787C63.4263 95.4736 63.8935 95.3711 64.4084 95.3711C65.3108 95.3711 65.9898 95.5898 66.4455 96.0273C66.9013 96.4603 67.1291 97.1553 67.1291 98.1123V103H65.9944ZM73.0721 103.137C71.9646 103.137 71.0896 102.799 70.4471 102.125C69.8091 101.451 69.49 100.514 69.49 99.3154C69.49 98.1077 69.7863 97.1484 70.3787 96.4375C70.9757 95.7266 71.7755 95.3711 72.7781 95.3711C73.7169 95.3711 74.4598 95.681 75.0066 96.3008C75.5535 96.916 75.827 97.7295 75.827 98.7412V99.459H70.6658C70.6886 100.339 70.9096 101.006 71.3289 101.462C71.7527 101.918 72.3475 102.146 73.1131 102.146C73.9197 102.146 74.7173 101.977 75.5057 101.64V102.651C75.1046 102.825 74.7241 102.948 74.3641 103.021C74.0086 103.098 73.5779 103.137 73.0721 103.137ZM72.7645 96.3213C72.1629 96.3213 71.6821 96.5173 71.3221 96.9092C70.9666 97.3011 70.757 97.8434 70.6932 98.5361H74.6102C74.6102 97.8206 74.4507 97.2738 74.1316 96.8955C73.8126 96.5127 73.3569 96.3213 72.7645 96.3213ZM83.0414 100.956C83.0414 101.653 82.7816 102.191 82.2621 102.569C81.7425 102.948 81.0134 103.137 80.0746 103.137C79.0811 103.137 78.3063 102.979 77.7504 102.665V101.612C78.1104 101.795 78.4955 101.938 78.9056 102.043C79.3203 102.148 79.7191 102.2 80.1019 102.2C80.6944 102.2 81.1501 102.107 81.4691 101.92C81.7881 101.729 81.9476 101.439 81.9476 101.052C81.9476 100.76 81.82 100.512 81.5648 100.307C81.3142 100.097 80.822 99.8509 80.0882 99.5684C79.391 99.3086 78.8942 99.083 78.598 98.8916C78.3063 98.6956 78.0876 98.4746 77.9418 98.2285C77.8005 97.9824 77.7298 97.6885 77.7298 97.3467C77.7298 96.736 77.9782 96.2552 78.475 95.9043C78.9717 95.5488 79.653 95.3711 80.5189 95.3711C81.3255 95.3711 82.114 95.5352 82.8841 95.8633L82.4808 96.7861C81.7289 96.4762 81.0476 96.3213 80.4369 96.3213C79.8991 96.3213 79.4935 96.4056 79.2201 96.5742C78.9466 96.7428 78.8099 96.9753 78.8099 97.2715C78.8099 97.472 78.8601 97.6429 78.9603 97.7842C79.0651 97.9255 79.2315 98.0599 79.4593 98.1875C79.6872 98.3151 80.1247 98.4997 80.7718 98.7412C81.6605 99.0648 82.2598 99.3906 82.5697 99.7188C82.8841 100.047 83.0414 100.459 83.0414 100.956ZM90.1669 100.956C90.1669 101.653 89.9072 102.191 89.3876 102.569C88.8681 102.948 88.1389 103.137 87.2001 103.137C86.2066 103.137 85.4319 102.979 84.8759 102.665V101.612C85.2359 101.795 85.621 101.938 86.0312 102.043C86.4459 102.148 86.8447 102.2 87.2275 102.2C87.8199 102.2 88.2756 102.107 88.5947 101.92C88.9137 101.729 89.0732 101.439 89.0732 101.052C89.0732 100.76 88.9456 100.512 88.6904 100.307C88.4397 100.097 87.9475 99.8509 87.2138 99.5684C86.5165 99.3086 86.0198 99.083 85.7236 98.8916C85.4319 98.6956 85.2131 98.4746 85.0673 98.2285C84.926 97.9824 84.8554 97.6885 84.8554 97.3467C84.8554 96.736 85.1038 96.2552 85.6005 95.9043C86.0973 95.5488 86.7786 95.3711 87.6445 95.3711C88.4511 95.3711 89.2395 95.5352 90.0097 95.8633L89.6064 96.7861C88.8544 96.4762 88.1731 96.3213 87.5624 96.3213C87.0247 96.3213 86.6191 96.4056 86.3456 96.5742C86.0722 96.7428 85.9355 96.9753 85.9355 97.2715C85.9355 97.472 85.9856 97.6429 86.0859 97.7842C86.1907 97.9255 86.357 98.0599 86.5849 98.1875C86.8127 98.3151 87.2502 98.4997 87.8974 98.7412C88.7861 99.0648 89.3853 99.3906 89.6952 99.7188C90.0097 100.047 90.1669 100.459 90.1669 100.956Z" fill="white"/>
<path d="M134.8 98.7275C134.8 96.7633 135.18 95.2959 135.941 94.3252C136.707 93.3499 137.837 92.8623 139.332 92.8623C139.847 92.8623 140.253 92.9056 140.549 92.9922V93.9697C140.198 93.8558 139.797 93.7988 139.346 93.7988C138.275 93.7988 137.457 94.1338 136.892 94.8037C136.326 95.4691 136.017 96.5173 135.962 97.9482H136.044C136.545 97.1644 137.338 96.7725 138.423 96.7725C139.321 96.7725 140.027 97.0436 140.542 97.5859C141.062 98.1283 141.321 98.8643 141.321 99.7939C141.321 100.833 141.036 101.651 140.467 102.248C139.902 102.84 139.136 103.137 138.17 103.137C137.135 103.137 136.315 102.749 135.709 101.975C135.103 101.195 134.8 100.113 134.8 98.7275ZM138.156 102.173C138.803 102.173 139.305 101.97 139.66 101.564C140.02 101.154 140.2 100.564 140.2 99.7939C140.2 99.1331 140.034 98.6136 139.701 98.2354C139.368 97.8571 138.872 97.668 138.211 97.668C137.801 97.668 137.425 97.7523 137.083 97.9209C136.741 98.0895 136.468 98.3219 136.263 98.6182C136.062 98.9144 135.962 99.222 135.962 99.541C135.962 100.01 136.053 100.448 136.235 100.854C136.418 101.259 136.675 101.58 137.008 101.817C137.345 102.054 137.728 102.173 138.156 102.173ZM147.339 103H146.232V95.877C146.232 95.2845 146.25 94.724 146.287 94.1953C146.191 94.291 146.084 94.3913 145.965 94.4961C145.847 94.6009 145.305 95.0452 144.338 95.8291L143.737 95.0498L146.382 93.0059H147.339V103ZM158.156 103H151.587V102.022L154.219 99.377C155.021 98.5658 155.55 97.987 155.805 97.6406C156.06 97.2943 156.251 96.957 156.379 96.6289C156.507 96.3008 156.57 95.9476 156.57 95.5693C156.57 95.0361 156.409 94.6146 156.085 94.3047C155.762 93.9902 155.313 93.833 154.738 93.833C154.324 93.833 153.929 93.9014 153.556 94.0381C153.187 94.1748 152.774 94.4232 152.318 94.7832L151.717 94.0107C152.637 93.2451 153.64 92.8623 154.725 92.8623C155.664 92.8623 156.4 93.1038 156.933 93.5869C157.466 94.0654 157.733 94.7103 157.733 95.5215C157.733 96.1549 157.555 96.7816 157.199 97.4014C156.844 98.0212 156.179 98.805 155.203 99.7529L153.016 101.893V101.947H158.156V103Z" fill="#9292C1"/>
<path d="M197.253 103H190.684V102.022L193.315 99.377C194.118 98.5658 194.646 97.987 194.901 97.6406C195.157 97.2943 195.348 96.957 195.476 96.6289C195.603 96.3008 195.667 95.9476 195.667 95.5693C195.667 95.0361 195.505 94.6146 195.182 94.3047C194.858 93.9902 194.409 93.833 193.835 93.833C193.42 93.833 193.026 93.9014 192.652 94.0381C192.283 94.1748 191.871 94.4232 191.415 94.7832L190.813 94.0107C191.734 93.2451 192.737 92.8623 193.821 92.8623C194.76 92.8623 195.496 93.1038 196.029 93.5869C196.562 94.0654 196.829 94.7103 196.829 95.5215C196.829 96.1549 196.651 96.7816 196.296 97.4014C195.94 98.0212 195.275 98.805 194.3 99.7529L192.112 101.893V101.947H197.253V103ZM200.844 101.373L200.947 101.53C200.828 101.986 200.657 102.515 200.434 103.116C200.211 103.722 199.978 104.285 199.737 104.805H198.882C199.005 104.331 199.14 103.745 199.286 103.048C199.436 102.351 199.541 101.792 199.6 101.373H200.844ZM207.211 103H206.104V95.877C206.104 95.2845 206.122 94.724 206.158 94.1953C206.063 94.291 205.956 94.3913 205.837 94.4961C205.719 94.6009 205.176 95.0452 204.21 95.8291L203.609 95.0498L206.254 93.0059H207.211V103ZM218.5 100.703H217.016V103H215.929V100.703H211.069V99.7119L215.813 92.9512H217.016V99.6709H218.5V100.703ZM215.929 99.6709V96.3486C215.929 95.6969 215.952 94.9609 215.998 94.1406H215.943C215.724 94.5781 215.519 94.9404 215.328 95.2275L212.204 99.6709H215.929ZM226.534 97.9893C226.534 99.7165 226.261 101.006 225.714 101.858C225.172 102.711 224.34 103.137 223.219 103.137C222.143 103.137 221.325 102.701 220.765 101.831C220.204 100.956 219.924 99.6755 219.924 97.9893C219.924 96.2484 220.195 94.9564 220.738 94.1133C221.28 93.2702 222.107 92.8486 223.219 92.8486C224.304 92.8486 225.126 93.2884 225.687 94.168C226.252 95.0475 226.534 96.3213 226.534 97.9893ZM221.073 97.9893C221.073 99.443 221.243 100.503 221.585 101.168C221.927 101.829 222.472 102.159 223.219 102.159C223.975 102.159 224.522 101.824 224.86 101.154C225.201 100.48 225.372 99.4248 225.372 97.9893C225.372 96.5537 225.201 95.5033 224.86 94.8379C224.522 94.168 223.975 93.833 223.219 93.833C222.472 93.833 221.927 94.1634 221.585 94.8242C221.243 95.4805 221.073 96.5355 221.073 97.9893Z" fill="white"/>
<g clip-path="url(#clip2_569_686)">
<path d="M253 95L259 103H247L253 95Z" fill="#00B929"/>
</g>
<path d="M32.5361 137H31.374V127.006H36.9453V128.038H32.5361V131.695H36.6787V132.728H32.5361V137ZM40.0103 137H38.8755V129.508H40.0103V137ZM38.7798 127.478C38.7798 127.218 38.8436 127.029 38.9713 126.91C39.0989 126.787 39.2584 126.726 39.4498 126.726C39.6321 126.726 39.7893 126.787 39.9214 126.91C40.0536 127.033 40.1197 127.222 40.1197 127.478C40.1197 127.733 40.0536 127.924 39.9214 128.052C39.7893 128.175 39.6321 128.236 39.4498 128.236C39.2584 128.236 39.0989 128.175 38.9713 128.052C38.8436 127.924 38.7798 127.733 38.7798 127.478ZM47.9835 137V132.153C47.9835 131.543 47.8445 131.087 47.5665 130.786C47.2885 130.485 46.8533 130.335 46.2609 130.335C45.477 130.335 44.9028 130.547 44.5382 130.971C44.1736 131.395 43.9913 132.094 43.9913 133.069V137H42.8566V129.508H43.7794L43.964 130.533H44.0187C44.2511 130.164 44.5769 129.879 44.9962 129.679C45.4155 129.474 45.8826 129.371 46.3976 129.371C47.2999 129.371 47.979 129.59 48.4347 130.027C48.8904 130.46 49.1183 131.155 49.1183 132.112V137H47.9835ZM56.5036 137L56.278 135.934H56.2233C55.8496 136.403 55.4759 136.722 55.1022 136.891C54.7331 137.055 54.2705 137.137 53.7145 137.137C52.9717 137.137 52.3884 136.945 51.9645 136.562C51.5453 136.18 51.3356 135.635 51.3356 134.929C51.3356 133.416 52.5456 132.623 54.9655 132.55L56.237 132.509V132.044C56.237 131.456 56.1094 131.023 55.8542 130.745C55.6035 130.463 55.2002 130.321 54.6442 130.321C54.0199 130.321 53.3135 130.513 52.5251 130.896L52.1764 130.027C52.5456 129.827 52.9489 129.67 53.3864 129.556C53.8285 129.442 54.2705 129.385 54.7126 129.385C55.6058 129.385 56.2666 129.583 56.695 129.979C57.1279 130.376 57.3444 131.012 57.3444 131.887V137H56.5036ZM53.9401 136.2C54.6465 136.2 55.2002 136.007 55.6012 135.619C56.0068 135.232 56.2096 134.689 56.2096 133.992V133.315L55.0749 133.363C54.1725 133.395 53.5208 133.536 53.1198 133.787C52.7233 134.033 52.5251 134.418 52.5251 134.942C52.5251 135.353 52.6481 135.665 52.8942 135.879C53.1449 136.093 53.4935 136.2 53.9401 136.2ZM65.2561 137V132.153C65.2561 131.543 65.1171 131.087 64.8391 130.786C64.5611 130.485 64.1259 130.335 63.5334 130.335C62.7496 130.335 62.1754 130.547 61.8108 130.971C61.4462 131.395 61.2639 132.094 61.2639 133.069V137H60.1291V129.508H61.052L61.2366 130.533H61.2913C61.5237 130.164 61.8495 129.879 62.2688 129.679C62.6881 129.474 63.1552 129.371 63.6702 129.371C64.5725 129.371 65.2515 129.59 65.7073 130.027C66.163 130.46 66.3909 131.155 66.3909 132.112V137H65.2561ZM72.1629 137.137C71.0783 137.137 70.2374 136.804 69.6404 136.139C69.048 135.469 68.7518 134.523 68.7518 133.302C68.7518 132.049 69.0525 131.08 69.6541 130.396C70.2602 129.713 71.1216 129.371 72.2381 129.371C72.5981 129.371 72.9581 129.41 73.3182 129.487C73.6782 129.565 73.9607 129.656 74.1658 129.761L73.8172 130.725C73.5665 130.624 73.2931 130.542 72.9969 130.479C72.7007 130.41 72.4386 130.376 72.2107 130.376C70.6886 130.376 69.9275 131.347 69.9275 133.288C69.9275 134.209 70.1121 134.915 70.4813 135.407C70.8549 135.899 71.4064 136.146 72.1355 136.146C72.7599 136.146 73.4002 136.011 74.0564 135.742V136.747C73.5551 137.007 72.924 137.137 72.1629 137.137ZM79.4457 137.137C78.3382 137.137 77.4632 136.799 76.8207 136.125C76.1826 135.451 75.8636 134.514 75.8636 133.315C75.8636 132.108 76.1599 131.148 76.7523 130.438C77.3493 129.727 78.1491 129.371 79.1517 129.371C80.0905 129.371 80.8334 129.681 81.3802 130.301C81.9271 130.916 82.2005 131.729 82.2005 132.741V133.459H77.0394C77.0622 134.339 77.2832 135.006 77.7025 135.462C78.1263 135.918 78.7211 136.146 79.4867 136.146C80.2933 136.146 81.0908 135.977 81.8793 135.64V136.651C81.4782 136.825 81.0977 136.948 80.7377 137.021C80.3822 137.098 79.9515 137.137 79.4457 137.137ZM79.138 130.321C78.5365 130.321 78.0557 130.517 77.6957 130.909C77.3402 131.301 77.1306 131.843 77.0668 132.536H80.9837C80.9837 131.821 80.8242 131.274 80.5052 130.896C80.1862 130.513 79.7305 130.321 79.138 130.321Z" fill="white"/>
<path d="M137.808 130.896C138.86 130.896 139.688 131.158 140.289 131.682C140.895 132.201 141.198 132.914 141.198 133.821C141.198 134.856 140.868 135.667 140.207 136.255C139.551 136.843 138.644 137.137 137.486 137.137C136.361 137.137 135.502 136.957 134.909 136.597V135.503C135.228 135.708 135.625 135.87 136.099 135.988C136.573 136.102 137.04 136.159 137.5 136.159C138.302 136.159 138.924 135.97 139.366 135.592C139.813 135.214 140.036 134.667 140.036 133.951C140.036 132.557 139.182 131.859 137.473 131.859C137.04 131.859 136.461 131.925 135.736 132.058L135.148 131.682L135.524 127.006H140.494V128.052H136.495L136.242 131.053C136.766 130.948 137.288 130.896 137.808 130.896ZM149.705 131.271C149.705 135.182 148.192 137.137 145.166 137.137C144.637 137.137 144.218 137.091 143.908 137V136.022C144.272 136.141 144.687 136.2 145.152 136.2C146.246 136.2 147.071 135.863 147.627 135.188C148.187 134.509 148.492 133.47 148.543 132.071H148.461C148.21 132.45 147.877 132.739 147.462 132.939C147.048 133.135 146.581 133.233 146.061 133.233C145.177 133.233 144.475 132.969 143.956 132.44C143.436 131.912 143.176 131.174 143.176 130.226C143.176 129.187 143.466 128.366 144.044 127.765C144.628 127.163 145.393 126.862 146.341 126.862C147.02 126.862 147.613 127.038 148.119 127.389C148.629 127.735 149.021 128.243 149.294 128.913C149.568 129.578 149.705 130.365 149.705 131.271ZM146.341 127.833C145.69 127.833 145.186 128.043 144.831 128.462C144.475 128.881 144.297 129.465 144.297 130.212C144.297 130.868 144.461 131.385 144.79 131.764C145.118 132.137 145.617 132.324 146.287 132.324C146.701 132.324 147.082 132.24 147.428 132.071C147.779 131.903 148.055 131.673 148.255 131.381C148.456 131.089 148.556 130.784 148.556 130.465C148.556 129.986 148.463 129.544 148.276 129.139C148.089 128.733 147.827 128.414 147.49 128.182C147.157 127.949 146.774 127.833 146.341 127.833ZM154.896 126.862C155.807 126.862 156.529 127.074 157.063 127.498C157.596 127.922 157.862 128.507 157.862 129.255C157.862 129.747 157.71 130.196 157.404 130.602C157.099 131.007 156.611 131.376 155.942 131.709C156.753 132.096 157.329 132.504 157.671 132.933C158.013 133.356 158.184 133.849 158.184 134.409C158.184 135.239 157.894 135.902 157.316 136.398C156.737 136.891 155.944 137.137 154.937 137.137C153.87 137.137 153.05 136.904 152.476 136.439C151.901 135.97 151.614 135.307 151.614 134.45C151.614 133.306 152.312 132.415 153.706 131.777C153.077 131.422 152.626 131.039 152.353 130.629C152.079 130.214 151.942 129.752 151.942 129.241C151.942 128.517 152.209 127.94 152.742 127.512C153.28 127.079 153.998 126.862 154.896 126.862ZM152.735 134.478C152.735 135.024 152.925 135.451 153.303 135.756C153.686 136.061 154.221 136.214 154.909 136.214C155.588 136.214 156.117 136.054 156.495 135.735C156.873 135.416 157.063 134.979 157.063 134.423C157.063 133.981 156.885 133.589 156.529 133.247C156.174 132.901 155.554 132.566 154.67 132.242C153.991 132.534 153.499 132.857 153.193 133.213C152.888 133.564 152.735 133.985 152.735 134.478ZM154.882 127.785C154.312 127.785 153.866 127.922 153.542 128.195C153.219 128.469 153.057 128.833 153.057 129.289C153.057 129.708 153.191 130.068 153.46 130.369C153.729 130.67 154.226 130.971 154.95 131.271C155.602 130.998 156.062 130.704 156.331 130.39C156.605 130.075 156.741 129.708 156.741 129.289C156.741 128.829 156.575 128.464 156.242 128.195C155.914 127.922 155.461 127.785 154.882 127.785Z" fill="#9292C1"/>
<path d="M194.888 137H193.78V129.877C193.78 129.285 193.799 128.724 193.835 128.195C193.739 128.291 193.632 128.391 193.514 128.496C193.395 128.601 192.853 129.045 191.887 129.829L191.285 129.05L193.931 127.006H194.888V137ZM200.844 135.373L200.947 135.53C200.828 135.986 200.657 136.515 200.434 137.116C200.211 137.722 199.978 138.285 199.737 138.805H198.882C199.005 138.331 199.14 137.745 199.286 137.048C199.436 136.351 199.541 135.792 199.6 135.373H200.844ZM209.576 131.271C209.576 135.182 208.063 137.137 205.037 137.137C204.509 137.137 204.089 137.091 203.779 137V136.022C204.144 136.141 204.559 136.2 205.024 136.2C206.117 136.2 206.942 135.863 207.498 135.188C208.059 134.509 208.364 133.47 208.414 132.071H208.332C208.081 132.45 207.749 132.739 207.334 132.939C206.919 133.135 206.452 133.233 205.933 133.233C205.049 133.233 204.347 132.969 203.827 132.44C203.308 131.912 203.048 131.174 203.048 130.226C203.048 129.187 203.337 128.366 203.916 127.765C204.499 127.163 205.265 126.862 206.213 126.862C206.892 126.862 207.484 127.038 207.99 127.389C208.501 127.735 208.893 128.243 209.166 128.913C209.44 129.578 209.576 130.365 209.576 131.271ZM206.213 127.833C205.561 127.833 205.058 128.043 204.702 128.462C204.347 128.881 204.169 129.465 204.169 130.212C204.169 130.868 204.333 131.385 204.661 131.764C204.989 132.137 205.488 132.324 206.158 132.324C206.573 132.324 206.954 132.24 207.3 132.071C207.651 131.903 207.927 131.673 208.127 131.381C208.328 131.089 208.428 130.784 208.428 130.465C208.428 129.986 208.334 129.544 208.148 129.139C207.961 128.733 207.699 128.414 207.361 128.182C207.029 127.949 206.646 127.833 206.213 127.833ZM212.723 137L216.866 128.052H211.418V127.006H218.069V127.915L213.981 137H212.723ZM220.027 132.728C220.027 130.763 220.407 129.296 221.168 128.325C221.934 127.35 223.064 126.862 224.559 126.862C225.074 126.862 225.479 126.906 225.776 126.992V127.97C225.425 127.856 225.024 127.799 224.573 127.799C223.502 127.799 222.684 128.134 222.118 128.804C221.553 129.469 221.243 130.517 221.189 131.948H221.271C221.772 131.164 222.565 130.772 223.65 130.772C224.547 130.772 225.254 131.044 225.769 131.586C226.288 132.128 226.548 132.864 226.548 133.794C226.548 134.833 226.263 135.651 225.694 136.248C225.128 136.84 224.363 137.137 223.397 137.137C222.362 137.137 221.542 136.749 220.936 135.975C220.33 135.195 220.027 134.113 220.027 132.728ZM223.383 136.173C224.03 136.173 224.531 135.97 224.887 135.564C225.247 135.154 225.427 134.564 225.427 133.794C225.427 133.133 225.261 132.614 224.928 132.235C224.595 131.857 224.099 131.668 223.438 131.668C223.028 131.668 222.652 131.752 222.31 131.921C221.968 132.09 221.695 132.322 221.489 132.618C221.289 132.914 221.189 133.222 221.189 133.541C221.189 134.01 221.28 134.448 221.462 134.854C221.644 135.259 221.902 135.58 222.235 135.817C222.572 136.054 222.955 136.173 223.383 136.173Z" fill="white"/>
<g clip-path="url(#clip3_569_686)">
<path d="M253 129L259 137H247L253 129Z" fill="#00B929"/>
</g>
<path d="M34.4502 171H33.2881V162.038H30.123V161.006H37.6152V162.038H34.4502V171ZM42.813 163.371C43.1457 163.371 43.4442 163.398 43.7086 163.453L43.5513 164.506C43.2414 164.438 42.968 164.403 42.731 164.403C42.1249 164.403 41.6054 164.649 41.1724 165.142C40.744 165.634 40.5298 166.247 40.5298 166.98V171H39.3951V163.508H40.3316L40.4615 164.896H40.5162C40.7942 164.408 41.1291 164.032 41.5211 163.768C41.913 163.503 42.3436 163.371 42.813 163.371ZM50.1573 171L49.9318 169.934H49.8771C49.5034 170.403 49.1297 170.722 48.756 170.891C48.3868 171.055 47.9243 171.137 47.3683 171.137C46.6254 171.137 46.0421 170.945 45.6183 170.562C45.199 170.18 44.9894 169.635 44.9894 168.929C44.9894 167.416 46.1993 166.623 48.6193 166.55L49.8907 166.509V166.044C49.8907 165.456 49.7631 165.023 49.5079 164.745C49.2573 164.463 48.854 164.321 48.298 164.321C47.6736 164.321 46.9672 164.513 46.1788 164.896L45.8302 164.027C46.1993 163.827 46.6027 163.67 47.0402 163.556C47.4822 163.442 47.9243 163.385 48.3663 163.385C49.2596 163.385 49.9204 163.583 50.3488 163.979C50.7817 164.376 50.9982 165.012 50.9982 165.887V171H50.1573ZM47.5939 170.2C48.3002 170.2 48.854 170.007 49.255 169.619C49.6606 169.232 49.8634 168.689 49.8634 167.992V167.315L48.7286 167.363C47.8263 167.395 47.1746 167.536 46.7736 167.787C46.3771 168.033 46.1788 168.418 46.1788 168.942C46.1788 169.353 46.3019 169.665 46.548 169.879C46.7986 170.093 47.1473 170.2 47.5939 170.2ZM55.4235 171L52.5798 163.508H53.7966L55.4098 167.951C55.7744 168.99 55.9886 169.665 56.0524 169.975H56.1071C56.1572 169.733 56.3145 169.234 56.5788 168.478C56.8477 167.716 57.447 166.06 58.3766 163.508H59.5934L56.7497 171H55.4235ZM64.4016 171.137C63.2942 171.137 62.4192 170.799 61.7766 170.125C61.1386 169.451 60.8196 168.514 60.8196 167.315C60.8196 166.108 61.1158 165.148 61.7082 164.438C62.3052 163.727 63.1051 163.371 64.1077 163.371C65.0465 163.371 65.7893 163.681 66.3362 164.301C66.883 164.916 67.1565 165.729 67.1565 166.741V167.459H61.9954C62.0181 168.339 62.2392 169.006 62.6584 169.462C63.0823 169.918 63.677 170.146 64.4426 170.146C65.2493 170.146 66.0468 169.977 66.8352 169.64V170.651C66.4342 170.825 66.0536 170.948 65.6936 171.021C65.3381 171.098 64.9075 171.137 64.4016 171.137ZM64.094 164.321C63.4924 164.321 63.0116 164.517 62.6516 164.909C62.2961 165.301 62.0865 165.843 62.0227 166.536H65.9397C65.9397 165.821 65.7802 165.274 65.4612 164.896C65.1422 164.513 64.6864 164.321 64.094 164.321ZM70.6727 171H69.5379V160.363H70.6727V171Z" fill="white"/>
<path d="M137.808 164.896C138.86 164.896 139.688 165.158 140.289 165.682C140.895 166.201 141.198 166.914 141.198 167.821C141.198 168.856 140.868 169.667 140.207 170.255C139.551 170.843 138.644 171.137 137.486 171.137C136.361 171.137 135.502 170.957 134.909 170.597V169.503C135.228 169.708 135.625 169.87 136.099 169.988C136.573 170.102 137.04 170.159 137.5 170.159C138.302 170.159 138.924 169.97 139.366 169.592C139.813 169.214 140.036 168.667 140.036 167.951C140.036 166.557 139.182 165.859 137.473 165.859C137.04 165.859 136.461 165.925 135.736 166.058L135.148 165.682L135.524 161.006H140.494V162.052H136.495L136.242 165.053C136.766 164.948 137.288 164.896 137.808 164.896ZM147.339 171H146.232V163.877C146.232 163.285 146.25 162.724 146.287 162.195C146.191 162.291 146.084 162.391 145.965 162.496C145.847 162.601 145.305 163.045 144.338 163.829L143.737 163.05L146.382 161.006H147.339V171ZM157.78 163.357C157.78 163.995 157.6 164.517 157.24 164.923C156.885 165.328 156.379 165.6 155.723 165.736V165.791C156.525 165.891 157.12 166.146 157.507 166.557C157.894 166.967 158.088 167.505 158.088 168.17C158.088 169.122 157.758 169.856 157.097 170.371C156.436 170.882 155.497 171.137 154.28 171.137C153.752 171.137 153.266 171.096 152.824 171.014C152.387 170.936 151.961 170.797 151.546 170.597V169.517C151.979 169.731 152.439 169.895 152.927 170.009C153.419 170.118 153.884 170.173 154.321 170.173C156.049 170.173 156.912 169.496 156.912 168.143C156.912 166.93 155.96 166.324 154.055 166.324H153.07V165.347H154.068C154.848 165.347 155.465 165.176 155.921 164.834C156.377 164.488 156.605 164.009 156.605 163.398C156.605 162.911 156.436 162.528 156.099 162.25C155.766 161.972 155.313 161.833 154.738 161.833C154.301 161.833 153.888 161.892 153.501 162.011C153.114 162.129 152.672 162.348 152.175 162.667L151.601 161.901C152.011 161.578 152.483 161.325 153.016 161.143C153.554 160.956 154.119 160.862 154.711 160.862C155.682 160.862 156.436 161.086 156.974 161.532C157.512 161.974 157.78 162.583 157.78 163.357Z" fill="#9292C1"/>
<path d="M194.888 171H193.78V163.877C193.78 163.285 193.799 162.724 193.835 162.195C193.739 162.291 193.632 162.391 193.514 162.496C193.395 162.601 192.853 163.045 191.887 163.829L191.285 163.05L193.931 161.006H194.888V171ZM200.844 169.373L200.947 169.53C200.828 169.986 200.657 170.515 200.434 171.116C200.211 171.722 199.978 172.285 199.737 172.805H198.882C199.005 172.331 199.14 171.745 199.286 171.048C199.436 170.351 199.541 169.792 199.6 169.373H200.844ZM209.576 165.271C209.576 169.182 208.063 171.137 205.037 171.137C204.509 171.137 204.089 171.091 203.779 171V170.022C204.144 170.141 204.559 170.2 205.024 170.2C206.117 170.2 206.942 169.863 207.498 169.188C208.059 168.509 208.364 167.47 208.414 166.071H208.332C208.081 166.45 207.749 166.739 207.334 166.939C206.919 167.135 206.452 167.233 205.933 167.233C205.049 167.233 204.347 166.969 203.827 166.44C203.308 165.912 203.048 165.174 203.048 164.226C203.048 163.187 203.337 162.366 203.916 161.765C204.499 161.163 205.265 160.862 206.213 160.862C206.892 160.862 207.484 161.038 207.99 161.389C208.501 161.735 208.893 162.243 209.166 162.913C209.44 163.578 209.576 164.365 209.576 165.271ZM206.213 161.833C205.561 161.833 205.058 162.043 204.702 162.462C204.347 162.881 204.169 163.465 204.169 164.212C204.169 164.868 204.333 165.385 204.661 165.764C204.989 166.137 205.488 166.324 206.158 166.324C206.573 166.324 206.954 166.24 207.3 166.071C207.651 165.903 207.927 165.673 208.127 165.381C208.328 165.089 208.428 164.784 208.428 164.465C208.428 163.986 208.334 163.544 208.148 163.139C207.961 162.733 207.699 162.414 207.361 162.182C207.029 161.949 206.646 161.833 206.213 161.833ZM218.083 165.989C218.083 167.716 217.809 169.006 217.262 169.858C216.72 170.711 215.888 171.137 214.767 171.137C213.692 171.137 212.874 170.701 212.313 169.831C211.753 168.956 211.472 167.675 211.472 165.989C211.472 164.248 211.744 162.956 212.286 162.113C212.828 161.27 213.655 160.849 214.767 160.849C215.852 160.849 216.674 161.288 217.235 162.168C217.8 163.048 218.083 164.321 218.083 165.989ZM212.621 165.989C212.621 167.443 212.792 168.503 213.133 169.168C213.475 169.829 214.02 170.159 214.767 170.159C215.524 170.159 216.071 169.824 216.408 169.154C216.75 168.48 216.921 167.425 216.921 165.989C216.921 164.554 216.75 163.503 216.408 162.838C216.071 162.168 215.524 161.833 214.767 161.833C214.02 161.833 213.475 162.163 213.133 162.824C212.792 163.48 212.621 164.535 212.621 165.989ZM226.104 163.357C226.104 163.995 225.924 164.517 225.564 164.923C225.208 165.328 224.702 165.6 224.046 165.736V165.791C224.848 165.891 225.443 166.146 225.83 166.557C226.218 166.967 226.411 167.505 226.411 168.17C226.411 169.122 226.081 169.856 225.42 170.371C224.759 170.882 223.821 171.137 222.604 171.137C222.075 171.137 221.59 171.096 221.148 171.014C220.71 170.936 220.284 170.797 219.869 170.597V169.517C220.302 169.731 220.763 169.895 221.25 170.009C221.742 170.118 222.207 170.173 222.645 170.173C224.372 170.173 225.236 169.496 225.236 168.143C225.236 166.93 224.283 166.324 222.378 166.324H221.394V165.347H222.392C223.171 165.347 223.789 165.176 224.244 164.834C224.7 164.488 224.928 164.009 224.928 163.398C224.928 162.911 224.759 162.528 224.422 162.25C224.089 161.972 223.636 161.833 223.062 161.833C222.624 161.833 222.212 161.892 221.824 162.011C221.437 162.129 220.995 162.348 220.498 162.667L219.924 161.901C220.334 161.578 220.806 161.325 221.339 161.143C221.877 160.956 222.442 160.862 223.034 160.862C224.005 160.862 224.759 161.086 225.297 161.532C225.835 161.974 226.104 162.583 226.104 163.357Z" fill="white"/>
<g clip-path="url(#clip4_569_686)">
<path d="M253 171L247 163L259 163L253 171Z" fill="#FF2D2E"/>
</g>
<path d="M37.0137 202.341C37.0137 203.22 36.6947 203.906 36.0566 204.398C35.4186 204.891 34.5527 205.137 33.459 205.137C32.2741 205.137 31.3626 204.984 30.7246 204.679V203.558C31.1348 203.731 31.5814 203.868 32.0645 203.968C32.5475 204.068 33.026 204.118 33.5 204.118C34.2747 204.118 34.8581 203.972 35.25 203.681C35.6419 203.384 35.8379 202.974 35.8379 202.45C35.8379 202.104 35.7673 201.821 35.626 201.603C35.4893 201.379 35.2568 201.174 34.9287 200.987C34.6051 200.8 34.1107 200.589 33.4453 200.352C32.5156 200.019 31.8503 199.625 31.4492 199.169C31.0527 198.713 30.8545 198.118 30.8545 197.385C30.8545 196.615 31.1439 196.002 31.7227 195.546C32.3014 195.09 33.0671 194.862 34.0195 194.862C35.013 194.862 35.9268 195.045 36.7607 195.409L36.3984 196.421C35.5736 196.075 34.7715 195.901 33.9922 195.901C33.377 195.901 32.8962 196.034 32.5498 196.298C32.2035 196.562 32.0303 196.929 32.0303 197.398C32.0303 197.745 32.0941 198.03 32.2217 198.253C32.3493 198.472 32.5635 198.674 32.8643 198.861C33.1696 199.044 33.6344 199.246 34.2588 199.47C35.307 199.843 36.027 200.244 36.4189 200.673C36.8154 201.101 37.0137 201.657 37.0137 202.341ZM41.7466 204.2C41.9472 204.2 42.1408 204.187 42.3277 204.159C42.5145 204.127 42.6627 204.095 42.772 204.063V204.932C42.649 204.991 42.4667 205.039 42.2252 205.075C41.9882 205.116 41.774 205.137 41.5826 205.137C40.1334 205.137 39.4087 204.373 39.4087 202.847V198.39H38.3355V197.843L39.4087 197.371L39.8873 195.771H40.5435V197.508H42.7173V198.39H40.5435V202.799C40.5435 203.25 40.6506 203.596 40.8648 203.838C41.079 204.079 41.3729 204.2 41.7466 204.2ZM49.3234 205L49.0978 203.934H49.0431C48.6694 204.403 48.2957 204.722 47.922 204.891C47.5529 205.055 47.0903 205.137 46.5343 205.137C45.7915 205.137 45.2081 204.945 44.7843 204.562C44.365 204.18 44.1554 203.635 44.1554 202.929C44.1554 201.416 45.3654 200.623 47.7853 200.55L49.0568 200.509V200.044C49.0568 199.456 48.9292 199.023 48.6739 198.745C48.4233 198.463 48.02 198.321 47.464 198.321C46.8396 198.321 46.1333 198.513 45.3448 198.896L44.9962 198.027C45.3654 197.827 45.7687 197.67 46.2062 197.556C46.6482 197.442 47.0903 197.385 47.5323 197.385C48.4256 197.385 49.0864 197.583 49.5148 197.979C49.9477 198.376 50.1642 199.012 50.1642 199.887V205H49.3234ZM46.7599 204.2C47.4663 204.2 48.02 204.007 48.421 203.619C48.8266 203.232 49.0294 202.689 49.0294 201.992V201.315L47.8946 201.363C46.9923 201.395 46.3406 201.536 45.9396 201.787C45.5431 202.033 45.3448 202.418 45.3448 202.942C45.3448 203.353 45.4679 203.665 45.714 203.879C45.9646 204.093 46.3133 204.2 46.7599 204.2ZM56.3669 197.371C56.6996 197.371 56.9981 197.398 57.2624 197.453L57.1052 198.506C56.7953 198.438 56.5218 198.403 56.2848 198.403C55.6787 198.403 55.1592 198.649 54.7262 199.142C54.2979 199.634 54.0837 200.247 54.0837 200.98V205H52.9489V197.508H53.8854L54.0153 198.896H54.07C54.348 198.408 54.683 198.032 55.0749 197.768C55.4668 197.503 55.8975 197.371 56.3669 197.371ZM61.5237 204.2C61.7242 204.2 61.9179 204.187 62.1047 204.159C62.2916 204.127 62.4397 204.095 62.5491 204.063V204.932C62.426 204.991 62.2437 205.039 62.0022 205.075C61.7652 205.116 61.551 205.137 61.3596 205.137C59.9104 205.137 59.1858 204.373 59.1858 202.847V198.39H58.1125V197.843L59.1858 197.371L59.6643 195.771H60.3205V197.508H62.4944V198.39H60.3205V202.799C60.3205 203.25 60.4276 203.596 60.6418 203.838C60.856 204.079 61.15 204.2 61.5237 204.2ZM65.5594 197.508V202.368C65.5594 202.979 65.6984 203.435 65.9764 203.735C66.2544 204.036 66.6896 204.187 67.282 204.187C68.0659 204.187 68.6378 203.972 68.9979 203.544C69.3624 203.116 69.5447 202.416 69.5447 201.445V197.508H70.6795V205H69.743L69.5789 203.995H69.5174C69.285 204.364 68.9614 204.647 68.5467 204.843C68.1365 205.039 67.6671 205.137 67.1385 205.137C66.227 205.137 65.5434 204.92 65.0877 204.487C64.6365 204.054 64.4109 203.362 64.4109 202.409V197.508H65.5594ZM77.0189 205.137C76.5313 205.137 76.0847 205.048 75.6791 204.87C75.278 204.688 74.9408 204.41 74.6673 204.036H74.5853C74.64 204.474 74.6673 204.888 74.6673 205.28V208.363H73.5326V197.508H74.4554L74.6127 198.533H74.6673C74.959 198.123 75.2985 197.827 75.6859 197.645C76.0733 197.462 76.5176 197.371 77.0189 197.371C78.0124 197.371 78.778 197.711 79.3158 198.39C79.8581 199.069 80.1293 200.021 80.1293 201.247C80.1293 202.478 79.8535 203.435 79.3021 204.118C78.7552 204.797 77.9942 205.137 77.0189 205.137ZM76.8548 198.335C76.0892 198.335 75.5355 198.547 75.1937 198.971C74.8519 199.395 74.6765 200.069 74.6673 200.994V201.247C74.6673 202.3 74.8428 203.054 75.1937 203.51C75.5446 203.961 76.1074 204.187 76.8822 204.187C77.5293 204.187 78.0352 203.924 78.3998 203.4C78.7689 202.876 78.9535 202.154 78.9535 201.233C78.9535 200.299 78.7689 199.584 78.3998 199.087C78.0352 198.586 77.5202 198.335 76.8548 198.335Z" fill="white"/>
<path d="M141.725 202.703H140.241V205H139.154V202.703H134.294V201.712L139.038 194.951H140.241V201.671H141.725V202.703ZM139.154 201.671V198.349C139.154 197.697 139.177 196.961 139.223 196.141H139.168C138.949 196.578 138.744 196.94 138.553 197.228L135.429 201.671H139.154ZM149.705 199.271C149.705 203.182 148.192 205.137 145.166 205.137C144.637 205.137 144.218 205.091 143.908 205V204.022C144.272 204.141 144.687 204.2 145.152 204.2C146.246 204.2 147.071 203.863 147.627 203.188C148.187 202.509 148.492 201.47 148.543 200.071H148.461C148.21 200.45 147.877 200.739 147.462 200.939C147.048 201.135 146.581 201.233 146.061 201.233C145.177 201.233 144.475 200.969 143.956 200.44C143.436 199.912 143.176 199.174 143.176 198.226C143.176 197.187 143.466 196.366 144.044 195.765C144.628 195.163 145.393 194.862 146.341 194.862C147.02 194.862 147.613 195.038 148.119 195.389C148.629 195.735 149.021 196.243 149.294 196.913C149.568 197.578 149.705 198.365 149.705 199.271ZM146.341 195.833C145.69 195.833 145.186 196.043 144.831 196.462C144.475 196.881 144.297 197.465 144.297 198.212C144.297 198.868 144.461 199.385 144.79 199.764C145.118 200.137 145.617 200.324 146.287 200.324C146.701 200.324 147.082 200.24 147.428 200.071C147.779 199.903 148.055 199.673 148.255 199.381C148.456 199.089 148.556 198.784 148.556 198.465C148.556 197.986 148.463 197.544 148.276 197.139C148.089 196.733 147.827 196.414 147.49 196.182C147.157 195.949 146.774 195.833 146.341 195.833ZM154.896 194.862C155.807 194.862 156.529 195.074 157.063 195.498C157.596 195.922 157.862 196.507 157.862 197.255C157.862 197.747 157.71 198.196 157.404 198.602C157.099 199.007 156.611 199.376 155.942 199.709C156.753 200.096 157.329 200.504 157.671 200.933C158.013 201.356 158.184 201.849 158.184 202.409C158.184 203.239 157.894 203.902 157.316 204.398C156.737 204.891 155.944 205.137 154.937 205.137C153.87 205.137 153.05 204.904 152.476 204.439C151.901 203.97 151.614 203.307 151.614 202.45C151.614 201.306 152.312 200.415 153.706 199.777C153.077 199.422 152.626 199.039 152.353 198.629C152.079 198.214 151.942 197.752 151.942 197.241C151.942 196.517 152.209 195.94 152.742 195.512C153.28 195.079 153.998 194.862 154.896 194.862ZM152.735 202.478C152.735 203.024 152.925 203.451 153.303 203.756C153.686 204.061 154.221 204.214 154.909 204.214C155.588 204.214 156.117 204.054 156.495 203.735C156.873 203.416 157.063 202.979 157.063 202.423C157.063 201.981 156.885 201.589 156.529 201.247C156.174 200.901 155.554 200.566 154.67 200.242C153.991 200.534 153.499 200.857 153.193 201.213C152.888 201.564 152.735 201.985 152.735 202.478ZM154.882 195.785C154.312 195.785 153.866 195.922 153.542 196.195C153.219 196.469 153.057 196.833 153.057 197.289C153.057 197.708 153.191 198.068 153.46 198.369C153.729 198.67 154.226 198.971 154.95 199.271C155.602 198.998 156.062 198.704 156.331 198.39C156.605 198.075 156.741 197.708 156.741 197.289C156.741 196.829 156.575 196.464 156.242 196.195C155.914 195.922 155.461 195.785 154.882 195.785Z" fill="#9292C1"/>
<path d="M194.888 205H193.78V197.877C193.78 197.285 193.799 196.724 193.835 196.195C193.739 196.291 193.632 196.391 193.514 196.496C193.395 196.601 192.853 197.045 191.887 197.829L191.285 197.05L193.931 195.006H194.888V205ZM200.844 203.373L200.947 203.53C200.828 203.986 200.657 204.515 200.434 205.116C200.211 205.722 199.978 206.285 199.737 206.805H198.882C199.005 206.331 199.14 205.745 199.286 205.048C199.436 204.351 199.541 203.792 199.6 203.373H200.844ZM209.2 197.357C209.2 197.995 209.02 198.517 208.66 198.923C208.305 199.328 207.799 199.6 207.143 199.736V199.791C207.945 199.891 208.54 200.146 208.927 200.557C209.314 200.967 209.508 201.505 209.508 202.17C209.508 203.122 209.178 203.856 208.517 204.371C207.856 204.882 206.917 205.137 205.7 205.137C205.172 205.137 204.686 205.096 204.244 205.014C203.807 204.936 203.381 204.797 202.966 204.597V203.517C203.399 203.731 203.859 203.895 204.347 204.009C204.839 204.118 205.304 204.173 205.741 204.173C207.469 204.173 208.332 203.496 208.332 202.143C208.332 200.93 207.38 200.324 205.475 200.324H204.49V199.347H205.488C206.268 199.347 206.885 199.176 207.341 198.834C207.797 198.488 208.025 198.009 208.025 197.398C208.025 196.911 207.856 196.528 207.519 196.25C207.186 195.972 206.733 195.833 206.158 195.833C205.721 195.833 205.308 195.892 204.921 196.011C204.534 196.129 204.092 196.348 203.595 196.667L203.021 195.901C203.431 195.578 203.902 195.325 204.436 195.143C204.973 194.956 205.539 194.862 206.131 194.862C207.102 194.862 207.856 195.086 208.394 195.532C208.931 195.974 209.2 196.583 209.2 197.357ZM218.028 205H211.459V204.022L214.091 201.377C214.893 200.566 215.421 199.987 215.676 199.641C215.932 199.294 216.123 198.957 216.251 198.629C216.378 198.301 216.442 197.948 216.442 197.569C216.442 197.036 216.28 196.615 215.957 196.305C215.633 195.99 215.184 195.833 214.61 195.833C214.195 195.833 213.801 195.901 213.427 196.038C213.058 196.175 212.646 196.423 212.19 196.783L211.589 196.011C212.509 195.245 213.512 194.862 214.596 194.862C215.535 194.862 216.271 195.104 216.804 195.587C217.338 196.065 217.604 196.71 217.604 197.521C217.604 198.155 217.426 198.782 217.071 199.401C216.716 200.021 216.05 200.805 215.075 201.753L212.887 203.893V203.947H218.028V205ZM226.534 199.989C226.534 201.716 226.261 203.006 225.714 203.858C225.172 204.711 224.34 205.137 223.219 205.137C222.143 205.137 221.325 204.701 220.765 203.831C220.204 202.956 219.924 201.675 219.924 199.989C219.924 198.248 220.195 196.956 220.738 196.113C221.28 195.27 222.107 194.849 223.219 194.849C224.304 194.849 225.126 195.288 225.687 196.168C226.252 197.048 226.534 198.321 226.534 199.989ZM221.073 199.989C221.073 201.443 221.243 202.503 221.585 203.168C221.927 203.829 222.472 204.159 223.219 204.159C223.975 204.159 224.522 203.824 224.86 203.154C225.201 202.48 225.372 201.425 225.372 199.989C225.372 198.554 225.201 197.503 224.86 196.838C224.522 196.168 223.975 195.833 223.219 195.833C222.472 195.833 221.927 196.163 221.585 196.824C221.243 197.48 221.073 198.535 221.073 199.989Z" fill="white"/>
<g clip-path="url(#clip5_569_686)">
<path d="M253 205L247 197L259 197L253 205Z" fill="#FF2D2E"/>
</g>
<defs>
<clipPath id="clip0_569_686">
<rect width="14" height="20" fill="white" transform="translate(246 20)"/>
</clipPath>
<clipPath id="clip1_569_686">
<rect width="14" height="20" fill="white" transform="translate(246 54)"/>
</clipPath>
<clipPath id="clip2_569_686">
<rect width="14" height="20" fill="white" transform="translate(246 88)"/>
</clipPath>
<clipPath id="clip3_569_686">
<rect width="14" height="20" fill="white" transform="translate(246 122)"/>
</clipPath>
<clipPath id="clip4_569_686">
<rect width="14" height="20" fill="white" transform="translate(246 156)"/>
</clipPath>
<clipPath id="clip5_569_686">
<rect width="14" height="20" fill="white" transform="translate(246 190)"/>
</clipPath>
</defs>
</svg>
